<svg width="595" height="300" version="1.1" id="svg265" xmlns="http://www.w3.org/2000/svg" xmlns:qgis="https://austromorph.space/qgis"><defs id="defs245"><style type="text/css" id="style243">.SingleSymbol{fill:#000;stroke:#000}</style></defs><path d="m476.59 174.217 3.552-.923 3.308-.584 4.914-3.937 2.189-4.716-2.043-2.722.146-1.847 3.502-7.438-1.119-3.452-3.113-.583-1.265-3.889.633-5.299-2.287-.875.584-1.507 1.946.243.486 2.14 3.746-4.182.535-1.75-2.53-2.041 4.038-1.41.779-3.646 3.892-2.333 1.848-.146 3.99 5.153 3.259-5.64 4.086-2.138.049-4.327 7.832-1.896 2.725-4.278 2.724.34.243 1.556 3.21.778.682 1.653 2.19-4.91-3.163-1.945.39-.875 2.82-.146-1.07 1.264 2.19.681 1.751-3.306 1.8 2.48-1.314 1.07 1.022 1.409-1.119.972 1.265.875-1.216 1.41 1.508 1.02 1.216-1.117 3.308 2.139-4.038 3.597 1.46.826-1.508 2.577 1.41.632-1.508 5.056-4.718 1.75 4.33 4.52-1.412 1.41 3.065 7.973-13.767 2.528-.681-3.16-2.287 3.792-5.06.34-1.994-5.007-7.2-2.042-3.891 1.021-.244 3.695-2.627.826-1.508 2.285-1.8-1.361-1.508 3.014 9.778 3.889 5.06-.535 1.41 1.653-.389 3.646 3.309 2.382-1.46 2.82-2.335 1.069.778 4.18-5.302 4.862-3.795-.243-1.216 2.09-.827-1.847-2.53.292 1.12 2.187-1.655 2.965 2.043 1.702 1.8 4.958-1.313 2.674-2.287.049.779 1.798-1.362 3.695 2.335.632.097 4.278 3.99-.827.923 2.042-4.135 3.209.681 1.993 3.163 1.507-5.157 2.722 1.557-.34 3.259 2.77-2.092.827-1.849-.924-1.167 1.167-5.4-1.458-.438 1.361-2.53-.097-.875-1.459-.73 4.862-1.703.194-1.702 2.48-1.46-.535-1.216 3.354-7.59 6.709-3.988.437.924-4.618 3.551-4.959h1.606l1.508-5.347 2.189-.292-4.719-7.486 1.703-6.66-4.233-15.994-3.016-4.812 1.168-.487 3.113-3.597-.048 1.215 1.508.049-.438-1.75.973-.049z" class="SingleSymbol" qgis:fid="Austria_PopulationByNUTS2.0" qgis:nuts2="AT11" qgis:pop20170101="291974" qgis:area_km2="3957.21" id="path247" style="fill:none;stroke-width:.377953"/><path d="m339.403 219.768 2.578-.973.244-2.916 3.308-.438 3.794-3.257.34-1.75 2.044.73.097.048h.049v-.049l2.627-2.333 2.092 4.812.973-.826 7.443.875 1.362 4.18 2.822-1.992 1.751.437.049-1.75.875.583 2.14-1.75v.049l.73 1.604 4.038-.437 2.384 1.312.778-1.458 6.52-.34.778-1.362 5.789-1.944 4.767 4.57 3.552 1.02 4.621 7.535-1.216 2.674.827 3.306-2.676 5.687 3.552 1.361.973 5.153-1.314 3.987 1.849.194.973 1.702-3.162 1.118-2.335 3.743-1.606-2.917-2.092 1.167-.194 1.799-3.211-.438-2.968 5.834-.194 3.451-5.06.486-.778 1.41-.924-.875-.925 3.451-6.713 2.626-1.995 6.125-2.821-5.153-2.773 1.36-2.384-.874-.876-2.236-6.762 1.604-2.821-1.167-7.784 1.021-2.773-4.035-4.622-1.507-2.87 1.167-6.178-3.743-7.687 1.555-11.189-3.403-3.356.292-.633-1.215-2.724.486-1.022-1.847-5.06.826-3.502-1.993-3.357 2.625-3.356-.972-1.946.923-4.622-3.5-15.616-2.139-4.913.535-1.362-2.528-4.476-1.604-2.043 1.313-2.627-2.188-.049-4.278 2.092-.049-.049-3.597 4.622-1.41 3.26.73 3.745-2.577 2.092 1.215 2.238-2.43-8.027-6.757-.243-4.862-5.935-4.57-1.265-3.354 3.113-4.132-3.746-.486-3.648-5.201.584-2.188 4.086-.73.584 2.918 12.065 1.993 2.48 3.889 3.406-.243 3.551 2.673.487-1.264 10.848-2.236v-3.305l1.898-.875 2.091.826 3.406-1.167 2.578 2.771 3.552-1.07 7.686 2.626 3.892-.292.68 1.507 2.92-.097.048 3.208 4.184 1.605 1.703 4.277 4.135 3.209 6.616-3.16 1.07-1.993v.049h.049z" class="SingleSymbol" qgis:fid="Austria_PopulationByNUTS2.1" qgis:nuts2="AT21" qgis:pop20170101="561098" qgis:area_km2="9542.04" id="path249" style="fill:none;stroke-width:.377953"/><path d="m383.43 66.248 1.848-1.701-.632-4.521 1.265-4.375 4.573-3.646-.05-4.23 4.525-.194 4.719 1.993 1.41-1.361-1.653-1.653 2.238-10.792-1.168-6.32.827-3.646 1.849-1.07 2.773.536v1.36l5.692.487.389 4.861 3.94-1.847 2.335.535.973-3.89 1.703 1.556 3.795-.486 3.648 2.771 2.724-.097 2.87 3.5 6.228 1.312 4.913 3.84 3.99.244 1.556-2.188 3.843-.34.146 1.653 3.454.924-.243 1.312 4.086.972-.486 1.702 2.87 2.333 6.908 2.966 14.206.777.778-1.36 2.238 1.506 3.405-3.646 1.41-4.132 3.698.875 1.314-1.555 3.405 2.82h4.378l1.411 4.958 2.579-1.118 4.864 2.82 4.865-1.848 2.384 1.896.486 7.486 1.363.438 1.167 6.951-6.08 9.09.972 2.82-1.751 3.792.827 2.771 4.183 2.14-.827 1.506 1.752 3.403 2.384.826-.584 2.626 2.189 5.93 3.308 2.771 1.946-.34.681 2.333-1.751 3.306-2.19-.68 1.07-1.264-2.82.145-.39.875 3.162 1.945-2.189 4.91-.681-1.653-3.21-.778-.244-1.555-2.724-.34-2.725 4.277-7.832 1.896-.049 4.327-4.086 2.139-3.26 5.639-3.989-5.153-1.848.146-3.892 2.333-.779 3.646-4.037 1.41 2.53 2.041-.536 1.75-3.746 4.181-.486-2.139-1.946-.243-.584 1.507 2.287.875-.633 5.299 1.265 3.889 3.113.583 1.12 3.452-3.503 7.438-.146 1.847 2.043 2.722-2.19 4.716-4.913 3.937-3.308.584-3.794-4.764-.535-4.764-3.163 3.937-2.773-2.965-6.567-1.07-.73-3.014-3.697-.34.486-5.056-4.962-1.896-2.237 1.119-1.265-1.362-.681-6.125-2.433 1.264-2.773-1.458-1.946-3.403-5.886.68-.39-1.944-3.745-.389-.779-1.701-1.8.631-.34-2.625-1.995-1.166-4.865.583-.632 2.868-4.476-.437-1.021 4.083-3.843-.68-.536 1.36-3.843.779-2.627-1.167-3.551.923-2.822 3.16-3.26-.437-1.07-2.334-2.675-.243-3.26 1.75-1.848-2.09-1.751-3.84 1.264-1.362-1.362-1.02.827-2.48-.973-.875 3.503-2.236-.438-2.528-2.043-3.208-1.508.923-4.962-1.555-8.514-5.056-2.383-4.18.097-2.966-.243-.583.924-.486-.681-.535 2.238-1.993-1.752-.973.633-1.118-.681-1.36 1.021-2.431-.194-2.723.632-1.944 1.8-1.313 3.94 1.215 3.309 4.084 3.551 2.09.924-.534.633-1.507 1.508.583 5.838-1.799 1.46-1.847.096-1.507 1.509-.73 3.648.147 1.314 2.382.973.437-1.46-1.799 1.362-1.507-.243-1.118 1.314-.875-.438-5.785-.438-.583-2.335-.049 1.216-5.979-1.751-.68-1.314.583 2.043-2.334-2.383-1.507-.876-1.896-1.46-.486-.583-2.236 1.41-.68.146-1.167h1.654l.146-.68-1.605-1.605-3.21-.583-.439-1.264-1.946-1.118-1.556-.39-.584.487-.973-.778-1.313 1.118-1.557-2.43zm94.766 36.46 2.676 1.604-.097 1.653 1.119-.195-1.217 1.313 3.308-1.07 2.579 1.264.778-1.798 5.643 1.653 1.508-.243-.34-1.653 2.773-1.945 2.432-.194 3.843 1.993.05-1.41-2.677-2.09.292-8.459-2.14-.34-1.168-2.285-1.46 1.556-3.161-4.132h-2.092l-1.168 3.889-1.41-.778-3.503 1.944-2.092 3.063-3.21-2.14-1.217 3.89 1.557 1.215z" class="SingleSymbol" qgis:fid="Austria_PopulationByNUTS2.2" qgis:nuts2="AT12" qgis:pop20170101="1665815" qgis:area_km2="19190.88" id="path251" style="fill:none;stroke-width:.377953"/><path d="M323.252 170.717v.049l-.049.097-.292 2.042-8.367-1.264-4.476-2.042-2.578-3.403.146-3.354 2.87-4.716-2.53-2.187 4.281-6.855-7.346-2.382 1.849-4.423 3.26 1.312 1.216-.389-.39-1.944-8.902.291-6.568-3.402-.34-11.765 1.702-.875 3.211 2.334.876-3.55-4.476-1.75-.292-1.409-6.227 3.403-3.308.389.244-2.334-1.8.535-2.92-1.41-2.091-3.548-4.087 1.701-2.383-1.264-3.065 4.278-1.995-.535-6.227-7.243-.632-2.528.486-2.528 1.752.292 5.4-7.34 5.4-.681 3.843-4.375 4.037-1.993 11.238-1.605 9.39-7.389 3.113-13.077-1.314-4.229h2.384l2.092-3.257 13.913 7.097 1.46-4.618.973.973 1.946-1.896 1.508-4.278-.779-6.903 1.46-.827-2.627-1.36 2.967-5.446 13.573 9.237-.34 1.944-2.676 1.264 2.335 1.167 1.216 3.063 12.843 1.118 3.892 2.722 1.508-2.139 1.898.243-.146-1.993 2.821.292 1.508-3.403-.778-1.702 1.605-.534 2.141 2.916 3.697 1.264 3.016-2.382 3.357 4.327 1.752-.292 1.362.584 1.556 2.43 1.314-1.118.973.778.584-.486 1.556.389 1.946 1.118.438 1.264 3.21.583 1.606 1.604-.146.68h-1.654l-.146 1.168-1.41.68.583 2.236 1.46.486.875 1.896 2.384 1.507-2.043 2.334 1.314-.584 1.75.681-1.215 5.98 2.335.048.438.583.437 5.785-1.313.875.243 1.118-1.362 1.507 1.46 1.8-.973-.438-1.314-2.382-3.649-.146-1.508.729-.097 1.507-1.46 1.847-5.837 1.799-1.508-.584-.633 1.507-.924.535-3.551-2.09-3.308-4.084-3.941-1.215-1.8 1.313-.632 1.944.194 2.722-1.021 2.431.68 1.361-.632 1.118 1.752.973-2.238 1.993.68.534-.923.487.243.583-.098 2.965 2.384 4.181 8.514 5.056 4.962 1.555 1.508-.923 2.043 3.208.438 2.528-3.503 2.236.973.875-.827 2.48 1.362 1.02-1.264 1.362 1.75 3.84-2.675-1.556-3.065 3.84-7.346 1.265-.875 3.014-2.238.194-2.87 2.625-2.481.049-.39 1.555-4.962 2.869-3.697-.584-2.092-2.722.584-.826-1.703-.146-9.827 3.451.244-4.812-2.87-3.063-5.79-.34-2.773-1.993-1.654 1.118-4.67-.34-2.53 4.18-1.946.924-.68 3.014-.05 5.007 2.628.243 1.313 2.285.292 3.062-1.362 2.236-.049.049-.097.049-.39.389-.194.243z" class="SingleSymbol" qgis:fid="Austria_PopulationByNUTS2.3" qgis:nuts2="AT31" qgis:pop20170101="1465205" qgis:area_km2="11974.26" id="path253" style="fill:none;stroke-width:.377953"/><path d="m335.316 209.656-2.627 7-5.156 5.007-1.703-4.277-4.184-1.605-.048-3.208-2.92.097-.68-1.507-3.892.292-7.687-2.625-3.55 1.07-2.58-2.772-3.405 1.167-2.091-.827-1.898.876v3.305l-10.848 2.236-.487 1.264-3.551-2.673-3.405.243-2.481-3.89-12.065-1.992-.584-2.917-4.086.729-.584 2.188-4.476-3.112-2.724.292-2.968-2.625-5.205 1.264-1.168-.972-2.335 1.02-1.167 3.014-6.811 3.695-3.503-2.236-3.26 1.07-3.307-10.55 1.897-4.57-2.14-2.77 2.53-3.452 1.848 1.75 5.108-2.236 2.773.972 1.994-2.77 4.963 2.09 6.13-1.118 1.653-1.264-1.021-3.16 1.751-2.188 4.67.195 3.795-4.132-.39-2.625 4.379-1.216-4.476-6.805 2.481-2.723-5.886-2.528.049-2.576 2.14-3.89 7.93-.485 1.605 1.555 1.508-.972-1.46 2.09 4.184 3.744-2.918 3.062 1.556 2.771 2.822.389 3.843 4.667 3.649 2.09.778-.923 1.508 1.944 2.968-2.625-1.07-3.84 1.75-2.771-.875-1.993 1.703-.34-.487-1.362 2.287-3.16-1.12-4.91-3.988-3.403-2.822 1.459-4.378-1.556 6.373-11.667-4.135-9.042-4.038-1.896-.876-3.16 1.995.535 3.065-4.278 2.383 1.264 4.087-1.701 2.092 3.548 2.919 1.41 1.8-.535-.244 2.334 3.308-.389 6.227-3.403.292 1.41 4.476 1.75-.876 3.549-3.21-2.334-1.703.875.34 11.765 6.568 3.402 8.902-.291.39 1.944-1.217.39-3.259-1.313-1.849 4.423 7.346 2.382-4.28 6.855 2.529 2.187-2.87 4.716-.146 3.354 2.578 3.403 4.476 2.042-1.362 5.444v.05l2.821 12.541 6.714 2.236.827-1.798 2.286 1.118 3.6-2.82.438 2.723 2.821 1.847-1.021 1.847 2.919 3.792v.049h.048-.048l4.232 2.722h.049v.048l1.994 2.626-2.286.534-1.216-1.166-3.844 3.402v.05z" class="SingleSymbol" qgis:fid="Austria_PopulationByNUTS2.4" qgis:nuts2="AT32" qgis:pop20170101="549372" qgis:area_km2="7132.61" id="path255" style="fill:none;stroke-width:.377953"/><path d="m339.403 219.768-.049-.049-1.07 1.993-6.616 3.16-4.135-3.209 5.157-5.007 2.627-7-1.8-2.77v-.05l3.843-3.402 1.216 1.166 2.286-.534-1.994-2.625v-.049h-.049l-4.232-2.722h.048l-.048-.049-2.92-3.792 1.023-1.847-2.822-1.847-.438-2.723-3.6 2.82-2.286-1.118-.827 1.798-6.714-2.236-2.821-12.542v-.048l1.362-5.445 8.367 1.264.292-2.042.049-.146.34-.437.098-.146.097-.097.39-.39.145-.096 1.362-2.237-.292-3.062-1.313-2.285-2.627-.243.049-5.007.68-3.014 1.947-.924 2.53-4.18 4.67.34 1.654-1.118 2.773 1.993 5.789.34 2.87 3.063-.243 4.812 9.827-3.451 1.702.146-.584.826 2.092 2.722 3.698.584 4.962-2.868.389-1.556 2.481-.049 2.87-2.625 2.238-.194.876-3.014 7.346-1.264 3.064-3.84 2.676 1.555 1.849 2.09 3.26-1.75 2.675.244 1.07 2.333 3.26.437 2.821-3.16 3.551-.923 2.627 1.167 3.844-.778.535-1.361 3.843.68 1.022-4.083 4.475.437.633-2.868 4.864-.583 1.995 1.167.34 2.625 1.8-.632.779 1.701 3.746.389.389 1.945 5.886-.681 1.946 3.403 2.773 1.458 2.433-1.264.68 6.126 1.266 1.36 2.237-1.117 4.963 1.895-.487 5.056 3.697.34.73 3.014 6.568 1.07 2.773 2.965 3.162-3.937.535 4.764 3.794 4.764-3.55.923-.974.05.438 1.75-1.508-.05.048-1.215-3.113 3.598-1.168.486 3.017 4.812 4.232 15.994-1.703 6.66 4.72 7.486-2.19.292-1.508 5.347h-1.605l-3.552 4.959-.924 4.618-.487 7.875 1.363 3.257 1.702.487.73 5.201-8.416-4.812-4.67-1.021-4.573 2.333-7.687-.389-1.216 2.48-2.335-.876-3.26 2.042.487 2.917-3.016 2.382-2.627-.049-.39-2.236-2.821-1.507-11.578 1.847-5.887-1.798-5.205.875-.973-1.702-1.849-.194 1.314-3.986-.973-5.153-3.551-1.361 2.675-5.688-.827-3.306 1.216-2.674-4.621-7.535-3.551-1.02-4.768-4.57-5.79 1.944-.778 1.362-6.518.34-.779 1.458-2.384-1.312-4.037.437-.73-1.604v-.049l-2.14 1.75-.876-.583-.049 1.75-1.751-.437-2.822 1.993-1.362-4.18-7.443-.876-.973.827-2.092-4.813-2.627 2.333v.049l-.146-.049-2.043-.729-.34 1.75-3.795 3.257-3.308.438-.244 2.916z" class="SingleSymbol" qgis:fid="Austria_PopulationByNUTS2.5" qgis:nuts2="AT22" qgis:pop20170101="1237372" qgis:area_km2="16409.74" id="path257" style="fill:none;stroke-width:.377953"/><path d="m114.502 160.606-1.556-2.09 3.405-.535zm113.448 48.807 6.81-3.695 1.168-3.014 2.335-1.02 1.168.972 5.205-1.264 2.968 2.625 2.724-.292 4.476 3.112 3.648 5.201 3.746.486-3.113 4.132 1.265 3.355 5.935 4.57.243 4.86 8.027 6.758-2.238 2.43-2.092-1.215-3.746 2.577-3.26-.73-4.62 1.41.048 3.597-2.092.049.049 4.278-8.125.437-3.21-2.576-4.72-.972-4.086-3.063-1.362-5.153-4.767-.826 1.556-5.494-.924-2.236-3.162-2.479-1.751 1.556-1.606-3.063-2.967-.778 1.605-2.187-2.335-2.382-.633-4.132 1.752-1.75 3.697-.146.778-2.966zm-6.762-1.167-14.206 4.23-5.254 3.694-3.55-.048-2.287 2.187-2.238-2.333-3.016.097-2.384-2.09-5.79 2.625-3.794-2.625-4.816 4.229-2.967-2.528-2.482-.243-7.394 2.625-2.724-.389-.098 2.48-3.21.68-1.265 1.799.292 2.139-2.044 3.354.681 2.965-2.87 1.507-1.216 3.744-6.422-1.167-2.675 1.118-2.627-1.896-1.752.583-1.75-2.041-3.65.632 2.287-3.257-6.081-5.105-7.978 3.306.486-1.167-5.351-.68 1.557-7.73-4.184-2.139.243-1.604-2.286-2.43-2.822.923-2.676 3.889.487 2.139-4.865-.778-.73 6.077-5.74 1.215-2.773-7.049 4.232-5.396-2.189-3.743 2.238-2.43-1.41-3.112 5.983-6.27-1.46-3.939 1.217-2.09-.973-2.188 1.702-1.166-2.821-1.993 3.454.097 6.421-3.014 4.379-6.514 2.724-.34.097-2.869 2.579-1.944-.341-4.23-2.238-2.576 1.654-4.861 7.395 2.382 1.8-3.355 5.935 1.216.146 1.36 4.086 1.07 1.12 1.994 7.296-1.994 1.703 2.334-2.967 1.118-.195 1.604 4.281.34-.535 1.021 3.357 3.89-.925 2.819 9.243.68 2.676-2.333 6.081-.875-1.508 3.452 3.405-.438.681-2.43 3.114-2.091 5.303.632-.73-2.09-1.606-.584 3.844-4.23 3.989 1.362 4.33-.826 2.237-6.223 1.8.097.195-1.312 1.508 1.02 7.735-.534 3.99 1.02.729-1.992 9.827-1.945.827 1.313 11.578.632-2.48-8.945 2.675-.583 3.405-3.306-1.07 4.57.876 1.41 5.302-1.556 1.606 1.264 4.913-1.021v1.993l3.697 4.667 4.817-.632-.05 2.576 5.887 2.528-2.48 2.722 4.475 6.806-4.378 1.216.389 2.625-3.795 4.132-4.67-.195-1.751 2.188 1.021 3.16-1.654 1.264-6.13 1.118-4.962-2.09-1.994 2.77-2.773-.972-5.108 2.236-1.849-1.75-2.53 3.452 2.141 2.77-1.897 4.57z" class="SingleSymbol" qgis:fid="Austria_PopulationByNUTS2.6" qgis:nuts2="AT33" qgis:pop20170101="746179" qgis:area_km2="12614.21" id="path259" style="fill:none;stroke-width:.377953"/><path d="m93.486 213.788-4.232 5.396 2.773 7.05-2.627.874-1.07-1.993-2.336-.34L84 221.129l-9-3.5-.243-2.723 1.508-2.479-.925-2.965-2.627.68-9.73-5.104-4.62.194.194-2.041 1.41-.292-.68-2.625.972-1.604-.73-2.237-3.6-1.944 1.46-3.257-2.043-1.799 1.07-1.701-2.189-2.82 3.892-4.23 1.265-3.11 3.746-1.702.827-1.75-1.703-4.23 1.022-1.652-3.114-1.896-.875.68-2.238-5.055 2.092 1.604 3.55-2.625 1.898 2.382 4.622-.243-1.314-2.236 1.557-3.5 1.946-2.285 1.654.048 1.508 1.556-.827 3.063 3.649 1.944.486-1.847 2.53 1.847 3.162-1.36-.438 2.332 2.14 3.744 2.822-.39 1.46 3.063 1.41-.243.779 2.868-2.384 1.653 1.703 5.3 1.362-1.897 2.967.778 1.07-2.188 1.947 1.216 1.119-.68.437 1.36-2.578 4.375.973 1.459-2.481 1.458-.097 2.334 2.821 1.993-1.702 1.166.973 2.188-1.217 2.09 1.46 3.938-5.984 6.271 1.41 3.111-2.237 2.431z" class="SingleSymbol" qgis:fid="Austria_PopulationByNUTS2.7" qgis:nuts2="AT34" qgis:pop20170101="388711" qgis:area_km2="2580.89" id="path261" style="fill:none;stroke-width:.377953"/><path d="m492.985 107.132-5.643-1.653-.778 1.798-2.579-1.263-3.308 1.069 1.217-1.313-1.12.195.098-1.653-2.676-1.604 1.606-3.695-1.557-1.215 1.216-3.89 3.21 2.14 2.093-3.063 3.502-1.944 1.411.778 1.168-3.89h2.092l3.162 4.133 1.46-1.556 1.167 2.285 2.14.34-.292 8.459 2.676 2.09-.048 1.41-3.844-1.993-2.432.194-2.773 1.945.34 1.653z" class="SingleSymbol" qgis:fid="Austria_PopulationByNUTS2.8" qgis:nuts2="AT13" qgis:pop20170101="1867960" qgis:area_km2="414.03" id="path263" style="fill:none;stroke-width:.377953"/><path id="path459" style="fill:#708ce4;fill-opacity:1;stroke:none;stroke-width:.377953" class="SingleSymbol" d="m229.848 145.875-3.407 3.307-2.675.584 2.482 8.943-11.58-.63-.826-1.313-9.826 1.943-.73 1.994-3.99-1.021-7.735.535-1.508-1.022-.196 1.313-1.798-.096-2.239 6.22-4.33.829-3.988-1.361-3.844 4.228 1.606.584.73 2.09-5.303-.633-3.113 2.092-.682 2.43-3.406.437 1.51-3.451-6.082.875-2.676 2.334-9.242-.682.924-2.818-3.358-3.889.536-1.021-4.282-.34.196-1.606 2.966-1.117-1.7-2.334-7.3 1.994-1.119-1.994-4.086-1.07-.144-1.36-5.936-1.216-1.8 3.355-7.395-2.383-1.654 4.862 2.238 2.576.34 4.23-2.578 1.944-.098 2.869-2.723.34-4.379 6.513-6.421 3.014-3.454-.096 2.82 1.993-1.702 1.166.974 2.187-1.217 2.092 1.46 3.937-5.983 6.272 1.41 3.111-2.238 2.43 2.19 3.744-4.233 5.395 2.773 7.048 5.74-1.214.73-6.077 4.864.778-.486-2.139 2.676-3.889 2.822-.923 2.285 2.43-.242 1.605 4.184 2.138-1.557 7.729 5.351.682-.486 1.166 7.979-3.305 6.08 5.103-2.287 3.258 3.648-.633 1.752 2.041 1.752-.582 2.627 1.897 2.676-1.12 6.422 1.167 1.214-3.742 2.872-1.508-.682-2.965 2.043-3.354-.291-2.14 1.265-1.797 3.21-.682.097-2.478 2.725.388 7.394-2.625 2.48.243 2.97 2.529 4.816-4.23 3.793 2.624 5.79-2.625 2.384 2.09 3.015-.095 2.239 2.332 2.287-2.188 3.55.049 5.254-3.693 14.206-4.23-3.31-10.55 1.9-4.57-2.141-2.77 2.529-3.453 1.85 1.752 5.107-2.236 2.773.97 1.995-2.769 4.963 2.09 6.128-1.12 1.655-1.263-1.022-3.16 1.75-2.188 4.672.196 3.793-4.133-.389-2.625 4.38-1.215-4.477-6.805 2.482-2.722-5.887-2.53.05-2.576-4.817.633-3.697-4.668v-1.992l-4.914 1.021-1.606-1.265-5.303 1.556-.875-1.41zm-115.346 14.73 1.85-2.625-3.407.536zm118.965-5.113 4.111.967.537-.111 3.137 3.96 4.57 1.852 1.035-.137 1.11 1.72 1.42.609-.221 2.793 1.627 2.474-2.297 3.533.04.266-.612.666-2.35-.098-4.111 1.871-1.752 2.188-.58 3.168-1.711.312-3.588-1.513-5.478 1.54.423.15-3.66.136-2.072.908.559.527-7.471.676-2.53 3.451.077 6.014.367.475-.785 1.89-.153 3.414 1.79 5.71-9.342 2.78-1.451.702-3.928 2.763-1.932-.025-1.683.662.699.73-1.256-.511-1.285.506.754-.723-1.983-.808-1.043.033-.9-.79-5.361-.792-3.21 1.455-1.464-1.014-6.145.356-1.566 1.375.324.275-2.754-1.17-2.48-.242-2.16.264-6.235 2.212-1.506-.214-5.703 4.754.045-1.135-2.447 1.615-1.264 1.799-.865 3.553.053.378-1.12 1.836-.447 2.754.203-.107-.228.271-.131.803-.117-.51-1.953 2.319.132-.412-2.123-.387-2.82.306-.092.04-.357-.258-4.154-.635-.022-.164.6-.201-.657-.235-.343-2.625-6.082-5.103-5.127-.79-4.83 2-.118-.202-.02-.002.497-2.461-2.627-5.44-.977-.498-.296 1.957-1.301-4.176-2.287-2.43-5.198-1.325-2.82.923-2.564 1.918-2.188 3.18-1.719 1.297.278-4.07-.324-.553-.266.289.875-5.451-.016-.037 3.653-3.828 1.072-5.19-.64-1.724.029-.051.128-2.356-.894.612.012-1.532.957-.449.045-.822.294.662 5.045-2.367 2.026-1.738 3.107-4.624.465-.058 4.377-4.791.016-.485.673-.505 1.973-4.395-.34-4.219.293.094 5.94-2.394.039-.073-1.291-.265-.244-2.272 3.705 4.305 2.031.531.08.143 5.678 2.375 1.217-.332 2.906 3.556.715.057 1.154 1.336-.045.135 4.385 6.542 9.242.682 3.654-1.219 1.563-1.363.85-.121 2.187 2.918 3.404-.438 4.178-3.609.184-.656.044-.03 3.463.413 4.631-5.764 2.395.168 4.33-.826 3.767-3.219.979-2.72-1.916-.104.848-.694 1.47.397 6.932-.479 3.207.82 5.935-3.124-.236.646 3.7-.73-1.005-1.594 3.957 2.326 11.579.633 5.09-6.33-.223-.805.219.084 2.828-.828zm-61.746 18.602.23.933-.625-.226-.053-.15zm67.191 8.316-.055.297-.066-.205zm5.725 18.983-5.205 1.263-1.168-.972-2.336 1.021-1.168 3.014-6.81 3.693-1.606.973-.778 2.967-3.697.144-1.752 1.75.633 4.133 2.334 2.38-1.604 2.19 2.967.778 1.606 3.062 1.752-1.557 3.162 2.48.924 2.237-1.557 5.492 4.768.827 1.36 5.154 4.087 3.062 4.719.971 3.21 2.578 8.126-.437-.05-4.28 2.093-.048-.05-3.596 4.624-1.41 3.258.728 3.746-2.576 2.091 1.215 2.239-2.43-3.612-3.04-.044.001-.002-.04-4.37-3.678-.242-4.862-5.935-4.57-1.266-3.354 3.113-4.132-3.744-.485-3.65-5.203-4.475-3.111-2.724.293zm-1.358 5.474 1.012.895 3.846 1.226.869-.093 2.215 1.54 3.138 4.475.508.307-.46 3.203 1.265 3.355 1.627 2.198 4.107 3.162.127 2.556 1.776 3.577 1.441 1.213-.44-.098-2.548.096-4.623 1.41-2.534 3.472 1.834-.043-4.884 5.055-.006-.514-1.43.078-1.72-1.38-2.122-.998-3.623-.747-1.8-1.35-.919-3.472-3.394-3.111.16-.567-.19-3.273-.925-2.236-1.535-2.026-3.162-2.478-2.067.062-1.986-1.58-.18-2.521-.346-.352 4.092-3.289.26-.988 6.482-3.518 2.28-2.588.101-.261 1.086.252z"/><g aria-label="Tyrol" id="text1965" style="font-size:13.3333px;line-height:1.25;font-family:'HelveticaNeue LT 65 Medium';-inkscape-font-specification:'HelveticaNeue LT 65 Medium, Normal';fill:#264eca"><path d="M143.792 133.038h7.706v1.44h-3.026v8.08h-1.667v-8.08h-3.013z" id="path2004"/><path d="M150.152 135.665h1.666l1.8 5.146h.027l1.747-5.146h1.586l-2.68 7.266q-.186.467-.373.894-.173.426-.44.746-.253.334-.64.52-.387.2-.987.2-.533 0-1.053-.08v-1.28q.187.027.36.054.173.04.36.04.267 0 .44-.067t.28-.2q.12-.12.2-.293.08-.174.147-.4l.173-.534z" id="path2006"/><path d="M157.832 135.665h1.426v1.333h.027q.067-.28.253-.547.2-.266.467-.48.28-.226.613-.36.334-.133.68-.133.267 0 .36.013l.214.027v1.467q-.16-.027-.334-.04-.16-.027-.32-.027-.386 0-.733.16-.333.147-.587.453-.253.294-.4.734-.146.44-.146 1.013v3.28h-1.52z" id="path2008"/><path d="M165.445 142.745q-.827 0-1.48-.267-.64-.28-1.093-.76-.44-.48-.68-1.147-.227-.666-.227-1.466 0-.787.227-1.454.24-.666.68-1.146.453-.48 1.093-.747.653-.28 1.48-.28t1.467.28q.653.267 1.093.747.453.48.68 1.146.24.667.24 1.454 0 .8-.24 1.466-.227.667-.68 1.147-.44.48-1.093.76-.64.267-1.467.267zm0-1.2q.507 0 .88-.214.373-.213.613-.56.24-.346.347-.773.12-.44.12-.893 0-.44-.12-.88-.107-.44-.347-.774-.24-.346-.613-.56-.373-.213-.88-.213t-.88.213q-.373.214-.613.56-.24.334-.36.774-.107.44-.107.88 0 .453.107.893.12.427.36.773.24.347.613.56.373.214.88.214z" id="path2010"/><path d="M170.232 133.038h1.52v9.52h-1.52z" id="path2012"/></g><g aria-label="also Tyrol" id="text1969" style="font-size:13.3333px;line-height:1.25;font-family:'HelveticaNeue LT 65 Medium';-inkscape-font-specification:'HelveticaNeue LT 65 Medium, Normal';fill:#264eca"><path d="M177.79 257.02q0 .28.066.4.08.12.294.12h.16q.093 0 .213-.027v1.053q-.08.027-.213.054-.12.04-.254.066-.133.027-.266.04-.134.014-.227.014-.467 0-.773-.187-.307-.187-.4-.653-.454.44-1.12.64-.654.2-1.267.2-.467 0-.893-.134-.427-.12-.76-.36-.32-.253-.52-.626-.187-.387-.187-.894 0-.64.227-1.04.24-.4.613-.626.387-.227.853-.32.48-.107.96-.16.414-.08.787-.107.373-.04.653-.12.294-.08.454-.24.173-.173.173-.507 0-.293-.147-.48-.133-.186-.346-.28-.2-.106-.454-.133-.253-.04-.48-.04-.64 0-1.053.267-.413.266-.467.826h-1.52q.04-.666.32-1.106.28-.44.707-.707.44-.267.987-.373.546-.107 1.12-.107.506 0 1 .107.493.106.88.346.4.24.64.627.24.373.24.92zm-1.52-1.92q-.347.227-.854.28-.506.04-1.013.133-.24.04-.467.12-.226.067-.4.2-.173.12-.28.333-.093.2-.093.494 0 .253.147.426.146.174.346.28.214.094.454.134.253.04.453.04.253 0 .547-.067.293-.067.546-.227.267-.16.44-.4.174-.253.174-.613z" id="path1985"/><path d="M179.47 249.033h1.52v9.52h-1.52z" id="path1987"/><path d="M183.79 256.34q.066.667.506.933.44.267 1.053.267.214 0 .48-.027.28-.04.52-.133.24-.094.387-.267.147-.173.147-.427 0-.026-.013-.186 0-.16-.2-.347-.2-.187-.52-.293-.307-.12-.707-.2-.4-.08-.813-.174-.427-.093-.827-.226-.387-.134-.707-.36-.306-.227-.493-.574-.187-.36-.187-.88 0-.56.267-.933.28-.387.693-.613.427-.24.934-.334.52-.093.986-.093.534 0 1.014.12.493.107.88.36.4.254.653.667.267.4.333.973h-1.586q-.107-.546-.507-.733-.387-.187-.893-.187-.16 0-.387.027-.213.027-.413.107-.187.066-.32.213-.134.133-.134.36 0 .28.187.453.2.174.507.294.32.106.72.186.4.08.826.174.414.093.814.226.4.134.706.36.32.227.507.574.2.346.2.853 0 .613-.28 1.04-.28.427-.733.693-.44.267-.987.387-.547.12-1.08.12-.653 0-1.213-.147-.547-.146-.96-.44-.4-.306-.64-.746-.227-.454-.24-1.067z" id="path1989"/><path d="M192.723 258.74q-.827 0-1.48-.267-.64-.28-1.094-.76-.44-.48-.68-1.147-.226-.666-.226-1.466 0-.787.226-1.453.24-.667.68-1.147.454-.48 1.094-.747.653-.28 1.48-.28.826 0 1.466.28.654.267 1.094.747.453.48.68 1.147.24.666.24 1.453 0 .8-.24 1.467-.227.666-.68 1.146-.44.48-1.094.76-.64.267-1.466.267zm0-1.2q.506 0 .88-.214.373-.213.613-.56.24-.346.347-.773.12-.44.12-.893 0-.44-.12-.88-.107-.44-.347-.773-.24-.347-.613-.56-.374-.214-.88-.214-.507 0-.88.214-.374.213-.614.56-.24.333-.36.773-.106.44-.106.88 0 .453.106.893.12.427.36.774.24.346.614.56.373.213.88.213z" id="path1991"/><path d="M200.483 249.033h7.706v1.44h-3.026v8.08h-1.667v-8.08h-3.013z" id="path1993"/><path d="M206.843 251.66h1.666l1.8 5.147h.027l1.747-5.147h1.586l-2.68 7.266q-.186.467-.373.894-.173.426-.44.746-.253.334-.64.52-.387.2-.987.2-.533 0-1.053-.08v-1.28q.187.027.36.054.173.04.36.04.267 0 .44-.067t.28-.2q.12-.12.2-.293.08-.174.147-.4l.173-.534z" id="path1995"/><path d="M214.523 251.66h1.426v1.333h.027q.067-.28.253-.546.2-.267.467-.48.28-.227.613-.36.334-.134.68-.134.267 0 .36.013l.214.027v1.467q-.16-.027-.334-.04-.16-.027-.32-.027-.386 0-.733.16-.333.147-.587.453-.253.294-.4.734-.146.44-.146 1.013v3.28h-1.52z" id="path1997"/><path d="M222.136 258.74q-.827 0-1.48-.267-.64-.28-1.093-.76-.44-.48-.68-1.147-.227-.666-.227-1.466 0-.787.227-1.453.24-.667.68-1.147.453-.48 1.093-.747.653-.28 1.48-.28t1.467.28q.653.267 1.093.747.453.48.68 1.147.24.666.24 1.453 0 .8-.24 1.467-.227.666-.68 1.146-.44.48-1.093.76-.64.267-1.467.267zm0-1.2q.507 0 .88-.214.373-.213.613-.56.24-.346.347-.773.12-.44.12-.893 0-.44-.12-.88-.107-.44-.347-.773-.24-.347-.613-.56-.373-.214-.88-.214t-.88.214q-.373.213-.613.56-.24.333-.36.773-.107.44-.107.88 0 .453.107.893.12.427.36.774.24.346.613.56.373.213.88.213z" id="path1999"/><path d="M226.923 249.033h1.52v9.52h-1.52z" id="path2001"/></g><g aria-label="→" transform="rotate(90)" id="text1973" style="font-size:13.3333px;line-height:1.25;font-family:'HelveticaNeue LT 65 Medium';-inkscape-font-specification:'HelveticaNeue LT 65 Medium, Normal';fill:#264eca"><path d="M154.909-160.39q.866.944 1.497 1.438.632.489 1.192.73v.293q-.645.312-1.25.8-.606.482-1.446 1.42h-.5q.611-1.309 1.282-2.012H145.3v-.658h10.384q-.495-.631-.69-.937-.196-.306-.58-1.074z" id="path1982"/></g><g aria-label="→" transform="rotate(-40.662)" id="text1977" style="font-size:13.3333px;line-height:1.25;font-family:'HelveticaNeue LT 65 Medium';-inkscape-font-specification:'HelveticaNeue LT 65 Medium, Normal';fill:#264eca"><path d="M13.4 325.689q.867.944 1.498 1.439.632.488 1.191.729v.293q-.644.312-1.25.8-.605.482-1.445 1.42h-.501q.612-1.309 1.282-2.012H3.791v-.657h10.384q-.494-.632-.69-.938-.195-.306-.58-1.074z" id="path1979"/></g></svg>