<svg xmlns="http://www.w3.org/2000/svg" xmlns:xlink="http://www.w3.org/1999/xlink" width="300" height="300" viewBox="384574.124221618 6671093.468717448 1330.1714883511886 1222.853895086795" preserveAspectRatio="xMinYMin meet"><g transform="matrix(1,0,0,-1,0,13343409.791329984)"><path fill-rule="evenodd" fill="#66cc99" stroke="#555555" stroke-width="8.867809922341257" opacity="0.6" d="M 384887.43520964065,6671142.734328128 L 384874.6134171016,6671144.953666562 L 384862.49321464007,6671149.703062389 L 384846.70817595173,6671156.250464548 L 384830.55097262113,6671163.678893964 L 384819.2577072033,6671169.817780623 L 384810.548805537,6671175.830884326 L 384799.8097661783,6671185.46288525 L 384787.5960553605,6671198.183697623 L 384746.24026350107,6671242.713250414 L 384735.2918974575,6671256.09654915 L 384727.4991241174,6671267.3857674645 L 384659.8583754331,6671369.992065999 L 384633.0996793158,6671411.455786523 L 384630.248874986,6671418.811690406 L 384628.1016578999,6671429.109849386 L 384627.1870488745,6671437.808982659 L 384624.5128871406,6671468.763145481 L 384623.92622339417,6671484.172020655 L 384623.3898322977,6671505.586139437 L 384624.16995266604,6671547.642789744 L 384629.5989824361,6671781.058284743 L 384629.84665722464,6671787.335923339 L 384630.97953189426,6671796.505516778 L 384633.3943610887,6671805.824194773 L 384997.3250063297,6672083.911938155 L 385005.4581702336,6672089.161916895 L 385285.23408373387,6672267.057001855 L 385445.4157476912,6672263.0357064 L 385453.99608750106,6672262.733936 L 385460.9719194115,6672262.437781863 L 385855.0300992895,6671721.810323974 L 385525.0601066145,6671505.966311486 L 385406.5873904012,6671428.494826604 L 385382.135169029,6671412.554377728 L 385377.88331170316,6671409.789872091 L 385372.5462995696,6671406.424095187 L 384912.88220936153,6671147.774655974 L 384904.2688298981,6671144.4567097 L 384896.0935586088,6671142.885828212 L 384887.43520964065,6671142.734328128 z" /></g></svg>