<svg height="210" width="300" version="1.2" viewBox="0 0 937.5 656.251" xml:space="preserve" xmlns="http://www.w3.org/2000/svg"><defs><linearGradient id="c"><stop style="stop-color:#b8b8b8;stop-opacity:.49803922" offset="0"/><stop style="stop-color:#7f7f7f;stop-opacity:0" offset="1"/></linearGradient><linearGradient id="a"><stop style="stop-color:#ffd43b;stop-opacity:1" offset="0"/><stop style="stop-color:#ffe873;stop-opacity:1" offset="1"/></linearGradient><linearGradient id="b"><stop style="stop-color:#5a9fd4;stop-opacity:1" offset="0"/><stop style="stop-color:#306998;stop-opacity:1" offset="1"/></linearGradient></defs><g style="display:inline"><path style="color:#000;fill:#2876ad;fill-opacity:.996078;stroke:none;stroke-width:1.83854;stroke-linecap:square;stroke-linejoin:bevel;-inkscape-stroke:none" d="M393.46 35.437c-3.576.055-8.076.736-12.187 1.32-4.015.572-7.671.998-9.413.786a4.35 4.35 0 0 0-3.045-1.576c-1.407-.11-2.946.17-4.515.548-3.138.758-6.5 1.884-8.198 1.722l-.237.011c-15.507 2.735-28.727 5.413-43.169 10.527l-.536 1.127c.31.865.925 1.336 1.55 1.673-1.58.606-4.2 1.602-8.388 3.298l-.04.016c-1.848.86-4.088 1.529-6.1 2.239-1.851.653-3.468 1.336-4.549 2.458-4.15.831-7.245 2.51-10.25 4.152-3.056 1.669-6.044 3.285-10.188 4.082l-.29.112c-7.274 4.391-18.018 8.371-22.578 16.611l.044.926c1.12 1.634 2.93 2.146 4.714 1.873 1.784-.273 3.666-1.175 5.625-2.252 3.918-2.155 8.198-5.044 11.359-5.591l.208-.064c8.67-3.869 17.615-6.486 26.67-8.822.062.205.087.406.193.623.286.588.95 1.432 1.592 2.267-1.075.547-1.884 1.149-2.182 1.964a2.104 2.104 0 0 0 .082 1.61c.231.476.605.839 1.042 1.126 1.713 1.127 4.585 1.35 7.179.062 1.032-.01 2.254-.368 3.766-.925a37.292 37.292 0 0 0 5.068-2.318c1.58-.882 2.892-1.732 3.587-2.782.174-.262.316-.553.361-.903a1.599 1.599 0 0 0-.257-1.073c-.428-.622-1.099-.846-1.955-1l-.7.172c-1.735 1.36-5.13 1.132-8.456.429-1.2-.254-2.287-.532-3.373-.797 6.777-1.672 13.579-3.26 20.399-5.2l.251-1.127c0-.019.156-.07.16-.091.053.175.142.356.11.437-.054.137-.05.077.042-.003.182-.16.63-.451 1.206-.758 1.15-.614 2.838-1.35 4.477-2.008a84.454 84.454 0 0 1 4.236-1.576c.406-.135.623-.19.727-.22l.044.104c18.45-6.593 37.534-14.246 56.647-17.481l.283-1.476c.326-.251 1.162-.632 1.877-.97.36-.172.686-.325.996-.571.155-.123.332-.267.456-.583.123-.316.03-.837-.184-1.091-.428-.51-.83-.536-1.434-.665-.604-.13-1.419-.241-2.547-.345l-.197.004c.178-.024.25.007.215.002-.036-.006-.185-.036-.38.009zm176.581.732-.537.08c-.621.31-1.088.61-1.372 1.152-.284.541-.102 1.3.237 1.69.678.78 1.677 1.096 2.85 1.487 1.172.392 2.502.743 3.631 1.073 1.13.33 2.122.727 2.267.835l.206.113c.903.35 2.552.636 4.037.98-.02.01-.08.011-.1.022-.17.086-.338.185-.503.382-.165.197-.305.573-.237.904.137.661.546.786.846.93.233.11.62.164.907.249-.08.061-.186.052-.26.127-.446.45-.611 1.268-.366 1.926l.264.372c2.354 1.938 4.816 3.084 6.794 2.947.99-.068 1.987-.654 2.289-1.656.07-.234.011-.51.022-.761.157.46.432.738.756 1.035.883.807 2.397 1.672 4.038 2.528-.032.015-.077 0-.108.017-.212.107-.443.26-.616.548a1.322 1.322 0 0 0-.109 1.006c.192.6.59.896 1.139 1.279l.104.062c7.073 3.613 14.362 6.938 21.628 5.864.22.257.452.49.693.709-3.209-.225-6.267-.227-8.331-.139a61.485 61.485 0 0 1-1.957.06l-.224-.4c-.484.155-.724.207-1.064.428-.086.055-.205.102-.348.364-.005.008-.003.03-.008.039-.723.359-1.467.577-2.376.566-1.378-.016-3.1-.416-5.283-.97l-.184-.025c-4.037-.146-8.517-1.143-12.88-1.913-4.363-.769-8.62-1.328-12.32-.439l-.566.434c-.83 1.516-1.242 2.826-1.197 4.037.044 1.21.595 2.265 1.437 3.074 1.466 1.406 3.834 2.29 6.61 3.264-.274.327-.697.636-.839.988-.3.741-.223 1.57.135 2.199.716 1.259 2.17 1.912 3.78 2.425 1.611.513 3.43.812 4.982.916.777.052 1.485.056 2.085.002.34-.03.607-.182.894-.266.121.05.225.097.265.157.053.08.108.241.124.523.03.562-.134 1.492-.212 2.526-.077 1.035-.054 2.228.545 3.349.399.747 1.156 1.363 2.09 1.897-.32.376-.531.983-.343 1.448.202.496.56.745.92.956.362.212.767.373 1.203.507a9.71 9.71 0 0 0 2.719.426c.431.001.83-.03 1.219-.153.119-.038.25-.132.379-.208 1.877.441 3.849 1.591 5.954 2.52 2.05.905 4.365 1.438 6.717.476 1.389 1.109 2.147 2.503 2.403 3.999.26 1.516.02 3.07-.417 4.276-.805.572-1.626 1.096-2.655 1.459l-.38 1.397c.38.452.845.786 1.388.886.543.1 1.085-.071 1.492-.347.764-.517 1.242-1.358 1.642-2.311 2.022-1.569 3.222-3.711 3.691-6.182.101.265.053.608.24.802.904.929 2.213.89 3.292.588.539-.151 1.046-.388 1.463-.763.416-.376.763-.984.672-1.656-.092-.673-.548-1.217-1.195-1.666-.647-.448-1.535-.844-2.77-1.218l-.99.355c-.268.403-.294.712-.46 1.071a14.474 14.474 0 0 0-.263-2.315c.213.057.401.164.625.189.584.066 1.234-.015 1.804-.366.57-.352 1.012-.943 1.29-1.707l.028-.09c.152-.613.222-.826.27-.982.612.194 2.22.89 5.404 1.396l-.042-.007c10.637 2.212 21.642 4.927 30.995 11.563l.126.073c.76.367 1.491.833 2.254 1.211l-.393.403c-.074.801.233 1.541.677 2.175.445.634 1.043 1.197 1.715 1.715 1.345 1.034 2.995 1.881 4.379 2.42.691.27 1.308.463 1.834.557.263.046.498.075.778.042.14-.017.3-.046.487-.154.188-.107.406-.337.485-.61.158-.546-.091-.864-.266-1.095-.139-.182-.33-.35-.53-.526 4.13 2.521 7.96 5.314 10.934 8.619l.466.27c8.79 1.932 15.28 8.501 21.534 16 6.225 7.466 12.17 15.802 20.036 21.04 4.056 4.626 8.855 7.218 13.412 9.93 4.585 2.73 8.923 5.572 12.318 10.73l.053.07c1.361 1.672 3.469 3.003 4.936 4.253.734.625 1.29 1.226 1.522 1.69.232.465.257.692-.05 1.166l.326 1.258c6.861 3.65 11.541 10.466 18.305 15.422l1.37-.472c.462-1.64.126-3.144-.627-4.365-.752-1.221-1.868-2.212-3.035-3.172-2.153-1.772-4.387-3.471-5.308-5.599.945.677 1.857 1.411 2.875 1.951 2.616 3.698 6.523 6.414 9.94 9.368 3.464 2.996 6.388 6.175 7.232 10.758l.293.509c7.594 6.52 16.961 11.966 26.2 13.726l.678-.15c1.236-.884 2.14-.838 3.273-.326 1.132.513 2.389 1.624 3.693 2.886 1.305 1.262 2.663 2.662 4.178 3.707 1.516 1.046 3.265 1.754 5.179 1.405l-.12.013c2.037-.089 2.863.487 3.897 1.621.983 1.08 2.098 2.762 3.91 4.49.46 2.885 2.12 4.418 3.726 5.536 1.67 1.162 3.204 2.017 4.064 4.097l1.055.51c1.62-.458 4.317-1.072 6.155-1.023.8.02 1.254.218 1.51.388-.08.549-.097 1.13.019 1.975l1.678.24c.245-.549.324-1.043.355-1.534.225.21.449.413.705.714.725.85 1.489 1.961 2.006 2.82.26.43.46.805.552 1.015.047.106.06.191.046.1-.01-.045-.065-.148.072-.435.05-.107.187-.212.317-.306.017.062.247.36.239.386l-.525.826c.945 1.338 1.213 3.834.938 6.606-.275 2.772-1.035 5.79-1.809 8.19-.097.3-.18.478-.275.757l-.6-.357c-.702.734-1.415 1.929-2.128 3.397-.712 1.469-1.387 3.186-1.831 4.857-.445 1.672-.685 3.284-.403 4.66.141.689.433 1.343.962 1.824.15.137.407.108.587.206-2.534 2.788-3.451 5.865-3.223 8.924.252 3.385 1.691 6.733 3.225 9.973.949 3.664.95 7.742 1.031 11.742.08 4.012.237 7.954 1.698 11.35l1.664-.135c4.061-16.244 7.683-35.684 9.479-53.01l-.022-.307c-1.682-6.66-6.025-21.107-6.886-28.06.873-.953 1.372-2.353.996-4.323l-.466-.62c-.473-.24-1.155-.316-1.645.027s-.644.832-.738 1.307c-.15.753-.054 1.78.045 2.842-1.072.5-2.957.416-4.427-.042-.732-.228-1.264-.512-1.474-.647l-.3-.66c-.2-.01-.373-.008-.571.03-.198.038-.487.09-.733.452-.08.118.012.219-.01.353-.873.845-1.633 1.157-2.363.98-.895-.216-1.956-1.108-2.904-2.468-1.897-2.72-3.296-7.14-3.415-9.844v.111c.242-2.896-.29-5.079-1.388-6.657-1.099-1.578-2.717-2.488-4.426-2.997-3.122-.93-6.546-.672-8.75-.718-.452-5.746-.951-12.245-3.652-17.46l-.508-.434c-1.322-.433-2.4-.614-3.33-.557-.93.057-1.724.386-2.288.921-1.126 1.07-1.312 2.636-1.463 4.118-.15 1.482-.243 2.967-.643 3.924-.4.957-.86 1.461-2.458 1.456-3.655-.034-7.508-3.366-10.687-8.002-3.178-4.636-5.658-10.458-6.803-14.932l-.323-.484c-2.558-1.939-2.981-4.837-2.188-6.978.396-1.07 1.095-1.921 1.955-2.374.842-.443 1.855-.535 3.107-.05 1.701 1.796 4.058 2.163 5.66 1.426.84-.388 1.547-1.281 1.404-2.301-.073-.52-.317-.997-.705-1.452 1.262.018 2.594.503 3.96 1.06.987.403 1.958.819 2.958.97.75.112 1.536-.083 2.241-.491 2.59 1.433 5.262 5.13 7.952 8.459 1.4 1.733 2.824 3.35 4.395 4.458 1.572 1.107 3.394 1.7 5.28 1.14l.61-1.049c-.304-1.272-.837-2.423-1.437-3.532.156.148.248.36.429.491.452.33.982.62 1.537.866 1.111.493 2.229.866 3.273.718.261-.038.543-.114.813-.33.269-.216.466-.609.48-.96.03-.703-.315-1.182-.821-1.791l.199.474c-.053-.52-.363-.955-.686-1.22-.322-.264-.662-.419-.99-.557-.653-.276-1.279-.513-1.502-.7l-.673-.196c-.945.115-1.608.28-2.14.66-.267.189-.507.464-.617.81-.067.213 0 .407.032.61-2.162-3.382-5.338-6.145-8.014-8.868-1.904-1.938-3.533-3.865-4.406-5.929-.872-2.063-1.05-4.253 0-7.01l-.051.11c.97-1.763 1.078-3.406.58-4.781-.5-1.376-1.5-2.451-2.554-3.455-2.106-2.006-4.387-3.744-4.644-6.169l-.335-.603c-3.534-2.742-7.228-5.392-10.871-8.07.016-.03.05-.022.064-.055.154-.374.041-.776-.107-1.013l-.139-.17c-2.728-2.603-5.604-5.023-8.444-7.444l-.01-.004c-16.347-13.736-34.137-25.703-52.755-36.114l-.098-.047s-.322-.374-1.057-.388l-.543.175c-.02.015-.017.069-.038.087l-.03-.02c-4.674-2.845-9.786-6.45-15.003-9.217-5.217-2.765-10.57-4.722-15.776-4.095l-.683 1.268c.649 1.3 1.644 2.177 2.757 2.747 1.113.57 2.338.865 3.58 1.124 2.485.518 5.03.898 7.07 2.48l.073.05c7.914 4.962 18.04 8.072 23.73 14.42-.118-.076-.184-.094-.303-.17l-.027-.019c-11.96-7.102-26.09-6.05-37.436-12.71l-.251-.1c-3.368-.761-7.443-2.855-10.894-5.374a31.253 31.253 0 0 1-4.871-4.412c.337.12.643.295.99.392 1.897.53 3.9.723 5.56.663.83-.03 1.572-.123 2.196-.288.193-.051.363-.125.54-.19.651 1.913 1.53 3.026 2.582 3.477 1.057.452 2.206.055 2.756-.736.55-.792.506-2.022-.313-2.83-.77-.76-2.078-1.114-3.938-1.071.063-.244.171-.484.099-.714-.012-.039-.049-.053-.064-.09.552.064 1.13.152 1.595.14a4.066 4.066 0 0 0 1.007-.125c.319-.088.726-.228.957-.73.232-.503.01-1.048-.235-1.349-.241-.3-.545-.536-.957-.805-.821-.537-2.086-1.17-3.994-1.97l-.01-.001-.58-.248-.227-.062-.215-.029-.3.01c-1.406.297-2.256.557-2.863 1.154-.237.233-.314.631-.343 1.002-2.425-.656-4.92-1.105-7.142-1.56-1.654-.338-3.112-.76-4.157-1.375-.763-.45-1.237-1.033-1.576-1.745.846.365 1.685.777 2.57.945.66.126 1.284.196 1.836.195.552 0 1.02.023 1.55-.384.266-.204.506-.667.46-1.062-.046-.395-.234-.648-.436-.87-.402-.442-.982-.824-1.884-1.313l-.058-.029c-1.761-.79-3.56-1.32-5.39-1.687l-.875.33c-.4.524-.493 1.213-.337 1.798-.749-.313-1.744-.681-2.742-1.057.057-.03.094-.026.162-.09.163-.15.3-.47.284-.713-.03-.485-.23-.559-.311-.632-.162-.148-.246-.182-.363-.245-.934-.503-3.347-1.426-6.186-2.523-2.838-1.097-5.995-2.304-7.975-3.128-.693-.288-.957-.426-1.256-.572l.097-.354c-8.929-2.919-18.57-5.336-26.745-4.217.16-.072.317-.137.48-.272.22-.181.51-.583.446-1.056-.064-.473-.355-.724-.605-.902-.25-.178-.532-.316-.896-.461-.729-.29-1.783-.6-3.333-.973l-.061-.013c-8.626-1.423-16.689-6.187-26.76-7.462-11.195-2.46-23.203-4.62-34.662-6.508zm-107.003 3.1-.406.009c-1.283.332-2.243.675-2.97 1.058-.727.383-1.257.81-1.538 1.412-.28.602-.17 1.313.115 1.807.284.494.69.866 1.14 1.212.9.69 2.019 1.262 2.852 1.727.417.232.766.444.924.566.078.062.102.11.053.031-.05-.078-.134-.46.012-.705l.791 1.334c.547-.021.659.14.68.18.021.04.067.144-.148.403-.43.517-2.073 1.296-5.335.393l-.311-.029c-3.243.285-5.614 1.75-7.799 3.005-2.185 1.254-4.155 2.3-6.847 2.178l-.757.367c-1.333 1.86-2.243 2.475-2.625 2.576a.5.5 0 0 1-.409-.031c-.142-.062-.335-.202-.559-.4-.224-.196-.473-.443-.809-.67-.336-.226-.808-.438-1.35-.395-.542.043-1.049.322-1.518.753-.102.093-.218.297-.32.408-.095-.171-.151-.372-.281-.516-.548-.606-1.35-.842-2.117-.825-1.534.034-3.162.87-4.681 2.026-1.52 1.156-2.9 2.658-3.667 4.274-.366.772-.565 1.583-.548 2.403-3.044-1.389-6.082-1.537-8.354-1.143-1.407.244-2.512.648-3.256 1.126-.264.17-.443.442-.625.72-4.044-.39-8.13.937-12.13 2.647-.023-.278.07-.576-.051-.81-.249-.48-.649-.838-1.108-1.09-.919-.504-2.132-.622-3.296-.15-1.082.44-2.026 1.48-2.58 3.012-.277.339-.443.393-.527.403-.085.01-.213-.01-.452-.188-.478-.354-1.151-1.305-1.736-2.368-.585-1.064-1.118-2.226-1.584-3.096-.233-.434-.426-.787-.714-1.1a1.222 1.222 0 0 0-.683-.414c-.776-1.325-1.849-2.21-3.1-2.441-1.46-.269-2.99.07-4.528.552-3.074.964-6.324 2.5-8.294 2.305l-.404.053c-14.271 5.483-27.783 13.345-41.716 19.069l-.078.036a15.316 15.316 0 0 0-4.905 4.185c-1.2 1.572-1.954 3.163-2.083 4.575-.064.706.03 1.412.458 1.986.185.249.45.423.73.568-3.097 1.207-5.262 3.83-7.285 6.142-1.192 1.363-2.364 2.602-3.638 3.41-1.274.808-2.617 1.219-4.373.98l-.556.108c-2.175 1.241-5.177 3.357-7.18 4.542.367-.507.7-.984 1.316-1.74l.197-.51c.188-3.702 2.676-7.495 4.982-10.188a42.8 42.8 0 0 1 2.953-3.095c.354-.34.593-.558.762-.736.042-.045.075-.073.15-.183.037-.055.12-.085.154-.42.01-.084-.027-.328-.027-.328l-.237-.4-.353-.209s-.188-.04-.253-.04c-.121-.002-.118.018-.168.031-1.086-.777-2.417-1.039-3.752-.727-1.573.368-3.18 1.267-4.717 2.418-2.96 2.215-5.572 5.312-6.682 7.917-.032-.328.018-.655-.115-.98l-.668-.537c-1.789-.304-3.82.597-5.926 1.829a31.316 31.316 0 0 0-5.823 4.445c-.798.782-1.462 1.538-1.934 2.243-.471.706-.861 1.348-.672 2.199.095.426.444.836.836 1.018.393.183.799.215 1.25.192.904-.047 2.044-.348 3.617-.94l.128-.06c1.223-.7 3.87-2.09 6.047-3.83 1.09-.87 2.075-1.83 2.72-2.917.24-.404.362-.858.48-1.31.355.735.335 1.775-.158 3.04-.54 1.38-1.548 2.882-2.65 4.071-1.102 1.189-2.34 2.054-3.063 2.263-.361.104-.506.057-.565.018-.058-.04-.198-.18-.258-.714l-1.303-.673c-1.524.843-2.505 1.509-3.129 2.145-.312.318-.553.631-.67 1.05-.117.42.003.976.284 1.3.563.648 1.26.709 2.059.79.296.03.68-.002 1.01.005-2.722.735-5.663 1.709-8.016 4.055l-.097 1.133c1.22 1.73 1.404 3.351.973 4.907-.43 1.555-1.54 3.049-3.032 4.239-2.983 2.38-7.394 3.4-10.15 1.94l-.236-.084c-2.174-.445-4.059.11-5.559 1.216-1.5 1.106-2.667 2.706-3.753 4.425-2.174 3.438-4.09 7.372-6.74 9.115l-.234.226c-1.464 2.06-1.97 3.544-1.694 4.806.276 1.261 1.302 1.916 2.073 2.357.771.442 1.268.803 1.312.922.022.06.055.14-.093.47-.148.33-.497.847-1.126 1.523l-.022.024c-2.318 2.688-5.679 4.59-8.748 6.95-2.974 2.287-5.65 5.13-6.55 9.545-6.95 4.93-14.476 9.526-19.511 17.424-5.635 5.227-7.94 11.587-8.353 19.454-1.187 3.765-2.871 6.62-4.185 9.629-1.32 3.02-2.23 6.228-1.685 10.448l.05.198c1.982 5.23 5.837 8.606 5.904 14.941l.26.618c1.981 1.963 4.217 5.938 6.837 8.69 1.31 1.377 2.757 2.494 4.472 2.793 1.588.277 3.298-.353 4.958-1.809 7.06 1.298 12.726-.906 19.223-4.205.645-.286 1.1-.333 1.44-.28.34.052.608.202.9.484.582.566 1.118 1.695 1.656 2.875.537 1.18 1.06 2.43 2.126 3.223a2.934 2.934 0 0 0 1.988.57c.75-.063 1.518-.385 2.358-.947l-.317.131c1.225-.246 1.67.04 2.119.785.449.745.702 2.107.712 3.706.022 3.199-.81 7.283-1.335 9.72l-.018.14c-.245 4.709 2.014 8.623 4.364 12.38 2.35 3.756 4.798 7.396 5.386 11.561l-.008-.173c-.197 3.548 1.273 6.784 2.175 9.853.903 3.068 1.313 5.847-.59 8.874l-.117.288c-1.695 8.136 1.03 14.593 4.494 20.561 3.464 5.969 7.64 11.54 9.243 18.124l.06.171c4.922 10.313 13.705 17.623 17.4 27.04l.118.212c1.106 1.453 2.453 2.152 3.786 2.233 1.334.082 2.58-.37 3.758-.887 1.176-.517 2.302-1.115 3.323-1.47 1.022-.356 1.878-.462 2.655-.17l.333.057c1.976-.055 3.58-.966 4.758-2.305 1.177-1.339 1.988-3.082 2.644-4.97 1.311-3.776 2.01-8.195 3.085-11.09l-.042-.706c-1.774-3.481-1.291-8.536-.274-11.935.428-1.43.929-2.288 1.272-2.802l1.454-.051c0-.01-.004-.014-.004-.022-.012-.583-.09-1.032-.319-1.452-.475-2.82-1.616-5.386-2.244-7.607-.37-1.306-.519-2.487-.265-3.6.255-1.112.902-2.217 2.347-3.408l-.156.104c3.843-1.986 6.04-5.483 6.845-9.443.805-3.96.276-8.402-1.228-12.542l.03.1c-.715-3.05-2.332-8.675-3.587-12.935a569.34 569.34 0 0 0-1.324-4.436c.735-9.485 5.64-16.274 11.12-23.154 5.504-6.91 11.562-13.889 14.043-23.662 1.11-2.653 2.666-7.048 2.914-10.297.062-.82.046-1.57-.126-2.249-.173-.677-.55-1.341-1.221-1.681-.67-.34-1.467-.287-2.289.006-.768.273-1.642.808-2.642 1.541-2.074.66-5.239 2.035-7.621 2.416-1.205.192-2.122.077-2.531-.219-.205-.148-.343-.326-.438-.697-.085-.334-.073-.884.024-1.55.672-1.173 2.176-1.833 4.134-2.52 1.915-.673 4.126-1.436 5.851-3.103 3.628-.933 6.484-3.186 9.16-5.413 2.713-2.258 5.264-4.478 8.181-5.498l.211-.11c1.193-.828 2.452-2.268 3.74-3.931 1.287-1.663 2.57-3.54 3.636-5.185a84.454 84.454 0 0 0 2.278-3.698c1.552-1.552 2.336-3.092 2.23-4.555-.119-1.646-1.065-3.003-2.064-4.276-.999-1.273-2.092-2.495-2.757-3.733-.514-.956-.664-1.913-.527-2.964 1.391.475 2.775 1.107 4.488 2.709l.097.08c1.522 1.061 3.297 1.26 5.003 1.164 1.706-.095 3.395-.472 4.893-.674 1.497-.201 2.761-.201 3.615.212.853.412 1.512 1.21 1.842 3.226l.025.115c1.51 4.958 4.45 7.011 6.613 8.8 1.08.894 1.955 1.718 2.523 2.83.568 1.113.871 2.558.656 4.816l.006.193c1.467 11.79 3.358 24.351 8.376 34.878l1.31.337c1.349-.966 2.434-2.182 3.382-3.52-.266 1.805-.237 3.784.088 5.52.337 1.802.878 3.39 2.143 4.187.632.398 1.502.467 2.252.13.75-.336 1.416-.975 2.102-1.927l.137-.286c1.188-4.42-.633-9.253-3.342-12.2l-.975-.105c1.649-4.606 2.054-10.15 1.766-15.757 3.392-4.05 7.97-7.807 11.22-13.423 2.525-1.617 4.087-3.892 5.547-5.491.755-.828 1.48-1.461 2.263-1.806.783-.345 1.644-.45 2.875-.131l1.096-.745c.071-.587.164-.91.251-1.206.12.173.226.298.372.575.95 1.803 2.164 5.43 3.212 8.924.885 2.95 1.538 5.355 2.044 7.109-.011.565-.134 1.303-.056 1.747.168.954.596 1.71 1.232 2.14 1.272.862 2.73.444 3.925.296.597-.074 1.142-.11 1.547-.046.404.064.645.178.878.472.465.588.863 2.343.26 6.16l.111.583c1.426 2.427 2.954 7.357 3.532 11.401.289 2.022.333 3.848.104 4.946-.115.55-.303.887-.421 1-.118.115-.128.145-.438.068l-.973 1.303c1.908 3.233 2.625 8.336 3.98 12.87.206.688.475 1.328.721 1.985-2.303-2.188-4.514-4.46-6.09-7.849l-.671-.5c-1.543-.227-3.186-.733-4.997-.775l-.902.91c.114 3.67 2.239 6.867 4.322 9.945 2.084 3.077 4.14 6.056 4.548 9.07l.104.314c1.768 3.14 3.508 7.496 5.598 11.348 2.009 3.704 4.368 6.982 7.66 8.213.548 1.863 1.825 3.402 3.453 4.584 1.776 1.29 3.893 2.238 5.834 2.906 1.941.668 3.685 1.05 4.798 1.168.278.03.515.044.74.034.112-.005.219-.012.35-.041.09-.021.232-.11.366-.194 1.998.493 3.674.733 4.887.596.74-.083 1.365-.273 1.865-.647.5-.373.83-.982.85-1.594.04-1.224-.768-2.286-2.018-3.361-1.249-1.075-3.041-2.148-5.357-3.099l-.224-.058c-2.215-.281-5.602-.174-8.234-.919-1.316-.372-2.398-.94-3.085-1.77-.686-.831-1.063-1.952-.85-3.75l-.017.097c.175-.75.029-1.5-.18-2.542-.21-1.042-.537-2.295-.933-3.654-.793-2.719-1.864-5.85-2.803-8.397a92.043 92.043 0 0 0-1.03-2.658l.93-.986c-.578-2.892-.662-7.002-1.436-10.807-.747-3.674-2.253-7.166-5.64-8.865-1.628-2.288-2.602-6.385-2.74-10.026-.07-1.835.063-3.556.36-4.843.227-.988.554-1.35.821-1.667a33.72 33.72 0 0 1 5.774 5.723c.731.926 1.294 1.711 1.719 2.272.201.265.364.47.543.656-.108.71-.216 1.406-.159 1.913.076.671.381 1.35 1.017 1.626.636.276 1.231.084 1.744-.164.512-.247 1.014-.609 1.538-1.043 2.095-1.74 4.547-4.725 5.633-5.943l.048-.059c3.499-4.665 2.964-9.82 1.111-14.538-1.801-4.59-4.772-8.91-6.647-12.567.858-2.638 1.907-4.331 2.83-5.154.967-.863 1.63-.864 2.083-.61.453.253.902.98.863 2.246-.038 1.266-.582 2.998-1.975 4.937l.328 1.304c1.953.96 3.738.72 4.882-.293 1.143-1.012 1.688-2.545 1.991-4.066.304-1.521.342-3.049.237-4.163-.024-.252-.1-.425-.138-.634 8.377-2.74 17.273-8.08 19.833-20.097 2.296-1.816 2.884-5.047 2.852-7.603-.017-1.34-.19-2.489-.483-3.301-.147-.406-.199-.8-.835-1.095-.034-.016-.08.025-.12.015-.788-3.628-3.099-7.012-4.207-9.736-.604-1.486-.801-2.678-.446-3.57.354-.89 1.322-1.76 3.687-2.457l.625-.955c-.23-1.851-1.584-2.966-3.004-3.512-1.42-.547-2.992-.705-4.173-.931-.59-.113-1.08-.25-1.345-.381-.265-.132-.242-.146-.25-.191-.006-.045.022-.355.393-.924.367-.563 1.036-1.35 2.046-2.343.523-.447.914-.676 1.111-.745.201-.07.146-.043.164-.033.036.02.378.56.798 1.301.42.74 1.115 1.682 2.347 1.964 1.01.231 2.301-.103 3.87-.833.025.157.046.133.044.367-.006.614-.082 1.387-.053 2.155.03.768.139 1.634.844 2.248.448.39 1.068.474 1.751.434-.154 1.491-.04 2.995.415 4.356.583 1.74 1.526 3.252 2.693 4.208.584.478 1.238.825 1.961.917a2.83 2.83 0 0 0 2.121-.622c1.239-1.004 1.954-2.913 2.27-6.037l.004-.035c.203-3.297-2.197-5.7-3.547-7.572-.675-.936-1.05-1.71-1.026-2.237.023-.528.335-1.126 1.753-1.953l.437-.741c.05-2.13.541-3.197 1.204-3.877.664-.68 1.625-1.039 2.81-1.403 1.186-.365 2.567-.729 3.85-1.61 1.284-.883 2.414-2.301 3.081-4.54 1.365-3.272 2.786-6.668 3.778-9.815.167-.53.231-.999.373-1.512.858 2.368 2.092 4.427 3.189 5.76.522.636.993 1.11 1.5 1.42.158.097.388.123.594.175l-1.531-.068c-.897 1.697-1.4 4.175-1.733 6.845-.334 2.67-.467 5.51-.474 7.801-.004 1.145.026 2.15.079 2.937.026.393.058.733.098 1.016.04.284.063.484.186.762.062.14.11.414.61.572.019.006.036-.011.055-.008-.268 2.273-1.094 4.06-2.378 5.438-1.992 2.141-5.038 3.44-8.303 4.192l-.219.082c-3.307 1.78-4.876 5.84-4.943 9.199-.034 1.68.29 3.236 1.232 4.314.942 1.078 2.592 1.408 4.296.656l.52-.698c.24-1.908.778-2.998 1.48-3.727.704-.73 1.642-1.146 2.836-1.496 2.35-.69 5.61-1.079 8.65-3.533 1.652-.808 2.696-2.079 3.207-3.525.515-1.46.562-3.062.475-4.691-.173-3.258-.848-6.695-.222-9.142l-.186-.795c-1.838-2.136-2.251-3.363-2.207-3.747.023-.192.076-.282.301-.457.225-.176.623-.371 1.11-.565.973-.388 2.291-.762 3.361-1.685 1.07-.924 1.733-2.497 1.342-4.635l-.011-.053c-.132-.53-.345-.983-.676-1.326a2.215 2.215 0 0 0-1.16-.613c-.785-.154-1.457-.005-2.091.011-.634.016-1.182-.047-1.76-.419-.575-.37-1.231-1.106-1.872-2.621.103.019.155.09.281.083.425-.024.906-.438 1.028-.805.243-.733.032-1.29-.283-2.186-.27-.77-.787-1.856-1.41-3.075.911-.949 1.411-2.154 1.337-3.456-.09-1.576-.707-3.25-1.554-4.992-1.693-3.484-4.361-7.242-6.108-10.235l-1.6.72c.09.275.077.169.009.232-.07.064-.388.222-.89.28-1.003.114-2.614-.097-4.06-.571-1.445-.474-2.73-1.247-3.208-1.899-.239-.325-.294-.553-.244-.818.05-.264.253-.652.842-1.135l.284-.426c1.307-4.335 3.578-5.85 6.4-6.586 2.707-.705 5.928-.536 8.95-.9.827.846 1.577 1.535 2.27 1.85.805.365 1.729.314 2.339-.141.61-.455.909-1.101 1.153-1.775.245-.673.42-1.41.596-2.117.177-.707.357-1.386.567-1.903.21-.518.451-.834.612-.937.161-.103.289-.16.8.058.511.22 1.304.778 2.327 1.808l1.376-.159c.68-1.104.87-1.217 1.282-1.727-.248 1.626-.791 3.994-1.629 6.508-.873.747-1.426 1.748-1.563 2.87-.157 1.277.069 2.67.505 4.122.871 2.906 2.61 6.082 4.338 8.816 1.728 2.734 3.438 5.003 4.297 6.049.214.261.36.433.503.573.035.036.064.066.14.123.038.028.078.065.213.12.068.027.34.065.34.065l.66-.302c0-.001.213-.415.22-.538.006-.122-.01-.192-.023-.245-.024-.106-.045-.148-.062-.186-.034-.076-.059-.115-.085-.159-.168-.278-.665-.924-1.232-1.66.668-1.096 1.128-2.44 1.436-3.997.364-1.842.563-3.892.69-5.811.128-1.92.183-3.71.248-4.994.022-.437.049-.705.075-1.002l.634-.38a6.242 6.242 0 0 0-.29-.88 1.573 1.573 0 0 0-.206-.362l-.01-.005c-.532-1.137-.237-2.742.027-4.092.05-.254.1-.488.144-.725a76.005 76.005 0 0 0 1.525-.162c1.365-.155 2.686-.22 3.504.11l1.157-1.123c-.532-1.426-.205-2.05.553-2.735.757-.685 2.08-1.232 3.321-1.7.621-.233 1.22-.451 1.744-.705.525-.253 1.024-.505 1.345-1.1a1.56 1.56 0 0 0 .14-1.055c-.084-.352-.272-.638-.503-.894-.462-.513-1.135-.965-2.145-1.514l-.061-.031c-1.445-.645-2.019-1.313-2.147-1.653-.128-.34-.062-.465.272-.716.666-.501 2.46-.677 3.686.807l.187.172c1.76 1.18 3.216 1.64 4.452 1.439 1.236-.2 2.086-1.216 2.267-2.314.36-2.196-1.21-4.893-4.32-5.815l-.156-.031c-4.743-.518-9.868-2.89-15.129-4.87-5.26-1.98-10.71-3.58-16.152-2.237l-.055.918c-.409-.043-.78-.077-1.281-.144-3.12-.416-7.618-1.212-10.138-1.57-2.36-1.805-5.225-1.895-7.795-2.055-2.668-.167-4.964-.41-6.64-2.305l-.674-.299c-2.713.042-4.08-.24-5.266-.77-.961-.43-2.076-1.218-3.411-2.056a2.2 2.2 0 0 0 .5-.493c.285.259.533.588.872.707 1.128.394 2.327.186 3.296-.197.485-.192.913-.427 1.263-.762.175-.167.336-.365.444-.636.109-.27.139-.643.011-.967-.254-.647-.824-.887-1.452-1.046-.628-.159-1.436-.23-2.534-.217l.142.011-1.773-.267-.202-.031-.593.453c-.097-.115-.154-.227-.266-.344l-.43-.248c-2.088-.507-4.296-1.38-6.796-1.131l-.47.195c-.762.623-1.255 1.295-1.356 2.068-.101.773.272 1.493.776 1.973 1.01.96 2.559 1.41 4.126 1.614.693.09 1.373.108 2.028.07-.278.553-.64 1.12-.767 1.611-.21.807-.344 1.473-.518 1.799-.174.325-.214.419-.86.448-.646.029-1.86-.196-3.763-.884l-1.076.414c-.243.455-.421.553-.485.574-.064.02-.171.028-.452-.12-.562-.299-1.475-1.211-2.46-2.189-.985-.977-2.078-2.03-3.41-2.59-1.334-.56-3.003-.459-4.434.778l.226-.143c.154-.066.148-.045.138-.043a1.59 1.59 0 0 1-.102.009 9.275 9.275 0 0 1-.48.014c-.414.005-.988-.003-1.648-.027a58.32 58.32 0 0 1-4.479-.326 14.348 14.348 0 0 1-2.625-.543l.162-.14c.46-.736.739-1.394.818-2.043.08-.648-.084-1.292-.432-1.769-.696-.953-1.82-1.28-2.964-1.56-1.146-.281-2.384-.467-3.393-.739-.737-.198-1.066-.471-1.405-.73.097-.144.275-.273.34-.432.196-.477.127-1.122-.16-1.518-.574-.791-1.367-.925-2.15-1.188-.782-.262-1.59-.537-2.086-.869-.497-.331-.674-.535-.618-1.118l-.344-.785-1.115-.85-.348-.16zm73.284 120.014c-.017.01-.015.027-.031.035l.184-.117c-.05.042-.103.041-.153.082zM348.827 242.97c-.01.023-.016.067-.026.09l.042-.126c-.004.014-.013.022-.016.036zm82.86-203.133c-.998-.273-2.023-.2-2.925.023-.901.223-1.678.582-2.248 1.057-.285.238-.546.499-.676.94-.13.442.092 1.098.47 1.381.757.567 1.621.53 3.103.385.541-.054 1.719-.157 2.673-.573a2.29 2.29 0 0 0 .696-.439c.223-.21.446-.569.445-.983 0-.415-.202-.762-.436-1.019-.233-.256-.522-.465-.889-.681zm-19.655.42-.26.013c-3.443.689-7.285.737-11.024 1.529-3.74.791-7.412 2.39-10.26 6.158l.755 1.412c2.154-.128 6.123-.822 9.177-1.367 1.453-.26 2.627-.472 3.31-.585l.113.092c.23-.06.4-.105.529-.144.064-.02.115-.036.18-.06.033-.013.066-.025.13-.059.031-.016.07-.035.134-.085a.853.853 0 0 0 .122-.115c.05-.057.17-.278.17-.279l.016-.565-.286-.43-.16-.092c.11-.25.267-.39.483-.487.399-.178 1.227-.198 2.235-.127 1.009.07 2.183.194 3.377.007s2.438-.75 3.32-1.962l.164-.43c.075-.762-.307-1.441-.767-1.82a2.679 2.679 0 0 0-1.458-.603zm25.014 6.74c-9.143 1.421-20.52 4.43-26.352 12.563l.057 1.097c1.503 1.7 2.9 2.465 4.256 2.237 1.357-.227 2.256-1.27 3.109-2.377 1.707-2.214 3.322-4.973 6.097-5.506l.546-.346c.43-.588 1.404-1.074 2.723-1.414 1.318-.34 2.92-.55 4.466-.807 1.545-.258 3.035-.548 4.227-1.202.596-.328 1.129-.763 1.483-1.361.354-.599.495-1.34.397-2.123zm153.791.586c.209.017.413.041.627.051-.167.128-.34.268-.434.494-.033-.166-.14-.37-.193-.545zm5.689.124c2.006.024 3.857.204 4.956.858-.916.006-1.97-.034-3.001-.213-.828-.143-1.377-.404-1.955-.645zm14.196 4.9c1.715.597 3.52.943 5.355 1.127-.477.014-1.013-.015-1.423.034-.6.073-1.01.221-1.441.367-.785-.458-1.622-1.033-2.491-1.529zm24.126 1.437-.246 1.076c-.512-.18-1.174-.387-1.465-.526.236-.079.435-.155.718-.235.338-.096.666-.206.993-.315zm-14.859.072c.106.009.203.02.306.028 0 .008-.01.016-.01.023-.1-.024-.198-.028-.299-.05zm-341.279 2.89c-16.212 5.17-30.246 11.893-46.203 17.41l-.263.144c-.736.589-1.195 1.51-1.61 2.574-.416 1.063-.716 2.232-.707 3.29.004.529.074 1.048.36 1.527.287.479.884.853 1.496.874 1.145.041 2.31-.694 3.929-2.091 2.305.356 4.934-.66 7.61-2.126 2.605-1.426 5.146-3.3 7.337-4.965.04.007.096.066.13.07.189.016.324-.004.462-.03.55-.102 1.156-.354 1.959-.705 1.605-.702 3.826-1.813 5.976-2.84 2.094-1.001 4.1-1.892 5.28-2.247l1.43.753c.103-.135.143-.254.225-.377.264-.62 1.007-1.247 2.24-1.83 1.306-.616 3.012-1.165 4.702-1.794s3.373-1.331 4.683-2.383c1.31-1.052 2.237-2.574 2.112-4.473zm58.5.802.265.643c-.052.006-.068.036-.26-.053-.073-.034-.258-.183-.258-.182l-.153-.272c-.05.03.514-.187.407-.136zm212.834.326-1.194 1.288c.03.033.085.064.117.098l-.006.006c.171.133.15.122.306.244.827.798 1.998 1.752 2.606 2.177.088.061.162.113.237.158.037.023.07.043.136.075.034.016.07.036.168.062.048.013.112.03.233.03.06 0 .236-.032.237-.032l.34-.182.26-.383.045-.344s-.022-.157-.038-.208a.856.856 0 0 0-.046-.118c-.058-.122-.092-.155-.118-.188-.054-.066-.084-.094-.119-.127a5.432 5.432 0 0 0-.253-.228c-.428-.368-1.308-1.078-2.912-2.328zM387.42 62.767l.439.045c-.033.047-.207.067-.332.126-.024-.01-.085-.17-.107-.171zm26.081 1.803c-.018-.005.066.001.186.152.08.099.07.249.08.39.03.074-.577.221-.452.267zm227.423 1.594c.03.05.113.133.124.153-.044.016-.211.002-.275.017.017-.023.07-.04.085-.062.036-.05.038-.063.066-.108zm-259.412 5.694c.578.223 1.224.454 1.516.637.437.274.508.466.5.43-.01-.035.05-.098-.088.044-.137.142-.455.36-.869.557-.647.31-1.522.537-2.33.744.592-.83 1.003-1.608 1.271-2.412zm-130.104.375c.019.02.03.003.048.027a.796.796 0 0 1 .124.66c-.029.092-.036.08-.008.04l-.585-.563c-.04.064.431-.208.42-.164zm327.495 3.697c-.417.6-.6 1.314-.41 1.945s.658 1.055 1.154 1.348c.99.588 2.255.807 3.407.864a7.788 7.788 0 0 0 1.594-.07c.477-.076.911-.096 1.341-.628.216-.266.308-.782.175-1.122-.133-.34-.343-.524-.565-.689-.442-.329-1.031-.584-1.92-.885l.452.346c-.393-.589-.967-.97-1.52-1.066-.552-.095-1.001.027-1.339.106-.338.079-.57.111-.652.1-.083-.01-.088.03-.254-.226zm-355.236 3.186c-6.517 2.431-12.7 5.755-18.775 9.364-.246-.242-.556-.451-.964-.346l-.159.057c-2.528 1.206-4.916 2.62-7.315 3.919l-.01.003c-23.226 12.936-45.27 28.208-64.74 46.397l-.008.008c-.113.093-.304.227-.501.547-.1.162-.26.427-.157.856.025.103.137.102.192.186-1.792 1.316-3.646 2.532-5.396 3.915l.911 1.496c5.235-2.373 7.15-3.454 8.446-4.145 1.285-.686 1.963-.993 4.894-1.925 1.747.053 3.18-.375 4.3-1.11 1.187-.78 2.065-1.815 2.908-2.802 1.687-1.974 3.101-3.731 6.44-3.844l.262-.05c3.7-1.296 4.463-.609 6.514-.325 2.05.283 4.889.009 11.54-3.209l.003-.002c5.154-2.403 7.465-4.861 8.029-7.089.281-1.113.064-2.178-.514-2.93a2.995 2.995 0 0 0-1.026-.83c.881-1.27 1.509-2.457 1.866-3.057.133.204.344.462.727 1.437l.521.507c1.43.516 2.513.529 3.303.042.791-.487 1.07-1.208 1.376-1.689.306-.48.536-.779 1.164-.962.551-.16 1.604-.125 3.162.24a213.854 213.854 0 0 1-5.862 3.386c-.6.332-.93.503-1.23.657l-.187-.002c-.269.17-.348.194-.57.4-.029.025-.06.05-.121.132-.03.041-.072.096-.117.208-.044.112-.018.599-.018.6l.534.555s.27.057.339.055c.139-.005.184-.023.226-.035.097-.027.12-.046.162-.066 1.275.914 1.956 1.568 2.591 2.147.745.678 1.724 1.27 4.277 2.166l.176.043c.632.083 1.166-.142 1.697-.444.53-.302 1.07-.722 1.64-1.23 1.139-1.016 2.385-2.394 3.615-3.897 2.388-2.919 4.608-6.191 5.69-8.185 2.565-1.59 5.3-3.347 7.363-5.548 1.973-2.105 3.27-4.717 3.06-7.797 2.075-1.345 4.945-3.08 7.58-5.03 2.77-2.053 5.257-4.209 6.003-6.647l-1.195-1.067c-.988.43-3.036 1.246-4.858 2.011.52-.338 1.034-.667 1.423-1.099 1.04-1.152 1.52-2.65 1.961-4.982zm127.657 2.272c-.329.459-.685.89-.94 1.42-.589.917-.993 1.675-1.212 2.335-.226.679-.297 1.329-.004 1.916.131.264.34.45.563.605-1.577.88-2.907 2.301-3.79 4.415-.284-.126-.504-.392-.807-.432-.727-.096-1.481.01-2.258.226-1.553.431-3.22 1.32-4.801 2.355a31.107 31.107 0 0 0-4.173 3.267c-.556.525-1.019 1.013-1.366 1.457-.102.13-.107.301-.195.42a15.36 15.36 0 0 0-1.826-.534c.484-.263.972-.548 1.469-.95l.098-.092c2.537-2.792 5.742-4.6 8.793-6.665 2.966-2.005 5.781-4.32 7.453-8.04.982-.59 2-1.126 2.995-1.703zm-41.537 9.838.629.084c-.036.018-.049.044-.236.042-.062-.001-.248-.039-.247-.039l-.146-.087zm17.42.716c-.164.231-.454.6-.59.8a3.078 3.078 0 0 0-.373-.549c.323-.09.605-.098.962-.251zm47.454 31.174c.474.316.946.65 1.024.772.106.164.09-.035.013.077-.154.222-1.32.91-2.624 1.592s-2.78 1.482-3.657 2.837c-.823 1.272-.764 3.06.403 4.984.166 1.834.665 3.015 1.286 3.768.485.586.882.749 1.185.914-.363.443-1.23 1.305-2.872 2.883l-.093 1.167c1.117 1.476 1.216 2.89.804 4.194-.412 1.304-1.41 2.47-2.506 3.128-1.096.66-2.19.782-2.93.365-.69-.39-1.286-1.464-1.337-3.6 1.437-1.008 2.417-2.07 2.886-3.225.526-1.296.49-2.619.294-3.913-.391-2.581-1.356-5.19-.771-8.445.585-2.306 1.905-3.646 3.628-4.753 1.576-1.012 3.482-1.786 5.267-2.745zm-25.874.575c-.926 1.419-2.326 1.427-2.693 1.24-.118-.06-.07-.065-.056.016.013.08-.05.068.136-.122.268-.274 1.244-.71 2.613-1.134zm-9.998.928c.075.316.17.453.204.91.069.9.072 1.928.394 2.88.161.475.424.957.877 1.307.452.351 1.064.513 1.707.476 1.155-.067 2.58-.734 4.491-1.944 3.098 2.317 3.842 5.36 3.11 7.3-.382 1.016-1.107 1.738-2.19 2.037-1.049.29-2.513.136-4.325-.784-.498-.886-1.118-1.581-1.866-1.98-.853-.455-1.797-.573-2.722-.506-1.85.134-3.714.957-5.405 1.668-1.69.711-3.245 1.254-3.957 1.176-.356-.04-.48-.1-.662-.418-.157-.275-.26-.96-.277-1.823 3.541-3.901 6.69-7.516 10.621-10.3zm-33.627 2.563c.03.14.047.13.072.3.093.66.181 1.518.382 2.471.37 1.753 1.264 3.831 3.136 5.666-1.979 4.9-1.839 10.303-2.374 16.054l.472.864a2.614 2.614 0 0 0 2.39.002c.7-.366 1.233-.968 1.711-1.673.957-1.41 1.696-3.31 2.313-5.095.484-1.4.81-2.45 1.111-3.342.34.21.669.48 1.031.5.559.03 1.077-.105 1.57-.288.898-.335 1.704-.845 2.355-1.212-.18.489-.422 1.086-.843 1.966l-.024.053c-.944 2.349-1.078 4.385-.603 6.083.475 1.698 1.546 3.01 2.828 3.966 1.867 1.394 4.04 1.955 5.994 2.232-.166.211-.37.413-.47.643-.17.396-.238.83-.138 1.255.1.425.388.817.765 1.04.754.448 1.685.321 2.639-.165.81-.414 1.69-1.2 2.603-2.281-.162.456-.295.89-.523 1.383a30.521 30.521 0 0 1-2.354 4.15c-.087.126-.142.196-.213.29l-.299-.112a4.97 4.97 0 0 0-.311.75c-.01.027-.003.102-.013.13-.46 1.385-.985 2.424-1.56 3.05-.683.743-1.405 1.083-2.276 1.237-1.741.309-4.088-.32-6.636-.661l-.54.102c-2.371 1.297-4.697.826-7.177-.3-2.48-1.127-4.955-2.924-7.348-4.023l-.73-.002c-2.929 1.32-5.343 4.485-7.326 5.915-.495.358-.95.6-1.317.707-.368.106-.626.099-.907-.02-.564-.238-1.401-1.191-2.19-3.553l-.267-.393c-2.071-1.759-4.91-2.755-6.151-3.813-.62-.53-.802-.847-.687-1.42.115-.572.747-1.588 2.345-2.962l.126-.133c1.26-1.647 1.972-2.935 2.208-4.086.236-1.152-.186-2.269-1.013-2.839-.318-.22-.69-.335-1.066-.448.005-.009.016-.021.02-.03.226-.389.337-.777.57-1.446.21-.603.48-1.395.777-2.24 1.765-.812 3.03-2.257 3.992-3.923 1.027-1.78 1.83-3.758 2.77-5.478.354-.165.682-.386.994-.647.545 2.038 1.84 3.765 2.735 5.232.647 1.06 1.05 1.981 1.023 2.75-.025.713-.431 1.47-1.606 2.406-2.525-.517-4.34-.307-5.391.656-1.135 1.04-1.127 2.655-.552 3.859.574 1.204 1.74 2.228 3.223 2.22 1.482-.007 2.947-1.129 4.005-3.44 1.983-2.827 3.706-6.454 5.04-8.728.544-.927.935-1.327 1.17-1.577.142.202.292.517.426.69l1.553-.747c-.168-.69-.347-1.209-.762-1.632-.07-.071-.193-.086-.28-.146-.844-1.384-1.707-3.083-2.036-4.844-.224-1.197-.197-2.326.164-3.245.259-.659.775-1.2 1.47-1.678zm-22.053 7.273c1.847.794 4.18 1.57 6.522 1.922a42.725 42.725 0 0 0-3.858 7.943c-.078.054-.221.121-.268.153-.116.08-.116.07-.112.07l-.771.726c-.24 1.395-.383 2.3-.447 2.859-.032.28-.07.4-.021.723 0 .01.013.03.014.039-.091-.005-.17-.027-.262-.03-1.157-.032-2.453.089-3.787.275-7.242 1.014-15.103 1.706-22.182 5.752-.846-.34-1.449-.715-1.64-1.022-.219-.353-.23-.672-.029-1.193.404-1.042 1.908-2.525 3.717-3.682 1.81-1.157 3.922-2.042 5.319-2.267.698-.112 1.184-.016 1.286.046.051.03.037.014.051.058.014.044.034.182-.025.441l1.644.6c1.688-3.291 4.285-5.09 7.13-6.92 2.667-1.716 5.523-3.49 7.72-6.493zm26.973 18.998a1.576 1.576 0 0 0-.847.292l-.334.417c-.346.904-.47 1.68-.337 2.381.134.7.585 1.283 1.126 1.592 1.084.62 2.343.448 3.411.112a5.068 5.068 0 0 0 1.433-.69c.41-.293.838-.66.885-1.345a1.41 1.41 0 0 0-.332-.968c-.215-.25-.477-.406-.767-.528-.579-.245-1.312-.37-2.348-.427l-.498.188c-.1-.194-.191-.45-.545-.732-.2-.16-.52-.299-.847-.292zm22.283.487.136.022s.005-.017.03.065c.008.025-.025.165-.02.206a3.566 3.566 0 0 0-.146-.293zM503.66 169.59l.725.097c.026-.062.05-.031-.085.075-.104.08-.357.08-.558.061-.036.021-.047-.28-.082-.233zm-148.768 3.983h.003c.119-.022.3-.006.543.111.98.467 2.516 2.663 2.287 5.739l.297.729c3.209 2.81 5.703 3.536 7.972 4.119-1.356 1.486-3.324 3.419-5.062 4.524-.528.335-1.019.583-1.396.706-.377.124-.61.105-.672.082-.062-.022-.096-.004-.179-.302-.082-.298-.117-.885.004-1.742l-.045-.424c-.768-2.1-1.701-2.767-2.38-3.68-.676-.91-1.38-2.33-2.06-6.444-.207-1.793.084-2.818.35-3.176.132-.178.222-.22.34-.242zM325.87 185.35c.66 1.872 1.328 3.84 1.827 5.603.545 1.921.869 3.416 1.019 4.381l-.638.077c-1.206 4.614.657 8.716 2.282 12.556 1.624 3.84 3.019 7.382 1.623 11.255l-.033.485c.452 2.088.499 2.943.552 3.753-.42-.517-.81-.973-1.383-1.795-.818-1.172-1.745-2.534-2.687-3.8-2.355-7.132-3.884-13.683-3.009-21.126l-.02-.315c-.146-.587-.133-2.078.004-3.806.136-1.729.358-3.749.489-5.688.039-.58-.043-1.024-.026-1.58zm177.696.412c-1.806.295-2.89 1.817-3.388 3.454-.498 1.638-.536 3.506-.319 5.098.11.796.281 1.522.525 2.131.244.61.511 1.154 1.148 1.478.319.162.766.205 1.128.073.362-.132.624-.376.842-.656.435-.56.75-1.333 1.06-2.463l.024-.344c-.089-.692.496-2.368.898-4.005.201-.818.35-1.659.21-2.507a3.015 3.015 0 0 0-1.578-2.171zm334.96.148-.687.431c-.73 1.244-.42 2.66.23 3.72.648 1.061 1.615 1.914 2.543 2.48.464.283.914.496 1.372.605.458.11 1.077.176 1.558-.35.24-.262.334-.618.331-.91 0-.293-.074-.554-.18-.826-.212-.543-.586-1.145-1.17-1.91l-.248-.22c-.268-.16-.703-.805-1.211-1.515-.254-.356-.543-.727-.951-1.032a2.372 2.372 0 0 0-1.587-.473zm-4.96 6.396-.16.026c-1.803.452-3.001 1.279-3.632 2.29-.631 1.01-.646 2.184-.153 3.064a2.605 2.605 0 0 0 2.658 1.277c.92-.14 1.804-.831 2.63-1.86 2.167 1.484 4.905 2.339 7.343 3.33 2.7 1.099 4.793 2.34 5.391 4.694l.788.66c1.496.115 2.655.1 3.57-.037.913-.139 1.624-.384 2.12-.931.496-.548.556-1.372.339-1.995-.218-.623-.624-1.17-1.135-1.726-2.045-2.221-5.974-4.585-8.592-5.744l-.133-.047c-3.292-.867-6.673-3.267-11.034-3zm-161.913 3.116-1.024.185c-.396.417-.668.795-.818 1.22-.15.424-.136.955.111 1.346.247.39.623.578.955.668.332.09.656.096.971.051.316-.044.624-.136.92-.331.297-.195.618-.556.662-1.046.044-.49-.198-.928-.509-1.244-.31-.317-.716-.58-1.268-.85zm3.205 1.776c-.551.303-.957.617-1.228 1.046-.27.429-.32 1.037-.12 1.47.4.865 1.175 1.106 1.879 1.24.315.06.635.065.963.017.165.364.36.714.635.951.7.603 1.567.894 2.348.998.201.027.393-.015.587-.02-.827 2.084-.01 4.088 1.341 4.947.768.488 1.811.681 2.637.098.825-.583 1.118-1.696.96-3.106l-.131-.374a6.71 6.71 0 0 0-3.311-2.709c0-.024.028-.041.027-.065-.018-.627-.361-.936-.745-1.267-.262-.225-.705-.477-1.12-.725-.025-.269-.18-.638-.454-.825-.565-.386-.902-.193-1.135-.147a9.278 9.278 0 0 1-.44.078c-.01 0 .046-.01.154.045.106.054.23.199.264.288l-.609-.024c-.057-.13.01-.299-.07-.411-.27-.397-.66-.776-1.228-1.22l.038.03-.235-.206zm-589.257 3.035-1.206.064c-1.529 1.601-2.209 2.723-2.019 3.884.095.58.539 1.075 1.011 1.272.473.197.954.196 1.414.105.77-.152 1.491-.653 1.948-1.411.152.741-.051 1.232-.592 1.765-.61.6-1.596 1.125-2.445 1.565-.425.22-.81.412-1.15.656-.17.122-.336.253-.492.483-.156.23-.278.657-.153 1.023.125.367.373.564.594.704.221.14.457.239.741.337.57.196 1.336.375 2.415.579l-.32-.13c1.063.7 2.445.714 3.958.602 1.514-.113 3.156-.434 4.587-.796 1.271-.322 2.23-.654 2.946-.955-.1.686.17 1.458.723 1.802.558.346 1.137.325 1.682.235a5.596 5.596 0 0 0 1.593-.54c.506-.254.973-.564 1.348-.95.376-.387.744-.906.636-1.607-.107-.701-.723-1.166-1.405-1.39-.681-.225-1.56-.321-2.788-.314l-.732.4c-.118.179-.106.287-.204.453-.151-.096-.307-.186-.396-.202-.087-.016-.153-.015-.224-.017-.595-2.287-1.938-3.696-3.587-4.327-1.842-.704-3.917-.674-5.858-.777l-.589.76c.237-1.022-.19-2.22-1.436-3.273zm396.086.24.106.134c-.038.002-.06.022-.095.023-.013-.007.004-.157-.01-.156zm368.86 6.762-.841.253c-.73.775-1.16 1.489-1.212 2.268-.05.78.42 1.483.98 1.847 1.121.729 2.594.764 3.882.585.644-.09 1.23-.24 1.738-.535.254-.148.502-.335.687-.644.185-.308.248-.771.122-1.14-.252-.738-.844-1.088-1.685-1.478-.841-.39-2.017-.77-3.67-1.156zm-347.24.078c-1.113 1.052-1.247 2.723-1.254 4.575-.008 1.85.229 3.94.454 5.808.22 1.833.415 3.457.397 4.26l-1.08.427c.115 1.703.262 2.957.44 3.884.18.928.344 1.526.74 2.023.198.248.52.486.906.53.385.044.714-.104.936-.259.445-.31.68-.695.933-1.104.282-.456.435-.715.664-1.111l.761.667c.308-.006.38.034.421.047-.009.152-.149.716-.388 1.396-.253.717-.564 1.547-.466 2.48.076.73.641 1.386 1.425 1.852.018.432.033.877-.044 1.1-.101.294-.131.367-.523.441l-.713.773c-.17 1.588-.225 2.732-.184 3.572.02.42.062.765.15 1.077.087.312.209.631.554.887.191.143.424.066.663.071-.848.435-1.657.944-2.16 1.815-.67 1.164-.586 2.736.376 4.64l1.489.137c.615-.808 1.094-1.314 1.397-1.552.304-.24.314-.148.173-.19-.14-.041-.076-.073.035.175.11.248.234.672.363 1.162.256.982.529 2.242 1.228 3.307s2.034 1.866 3.74 1.589l.733-.984c-.18-1.395-.033-2.026.127-2.332.16-.306.405-.444.873-.809a3.47 3.47 0 0 0 1.274-2.03c.216-1.013.16-2.367-.25-4.468-.104-1.088-.16-2.106-.534-3.067-.322-.828-1.013-1.523-1.947-2.031.12-.266.32-.477.402-.762.155-.54.197-1.092.108-1.65.039-.056.153-.064.175-.119.14-.348.134-.637.116-.947-.036-.62-.204-1.338-.446-2.166-.483-1.657-1.28-3.706-2.063-5.482a41.7 41.7 0 0 0-1.126-2.37c-.346-.666-.613-1.15-.935-1.522a1.352 1.352 0 0 0-.318-.286c-.159-.102-.528-.272-.942-.08a.947.947 0 0 0-.547.718c-.036.178-.03.304-.022.439.012.184.14.585.184.818-.973-.374-1.708-.796-2.072-1.28-.524-.7-.672-1.585-.61-2.774.125-2.376 1.21-5.685.696-9.311l-.025-.117c-.159-.56-.467-1.042-.908-1.297-.44-.255-.863-.251-1.155-.25-.291.003-.49.004-.61-.023-.121-.028-.181-.043-.326-.219zm-422.29 19.955c-1.676 2.348-4.194 2.627-6.542 3.638-1.173.505-2.322 1.269-2.966 2.629-.624 1.32-.74 3.102-.339 5.578-2.174 16.36-5.874 32.757-.364 49.125l.009.024c1.858 5.061 2.091 11.775 2.837 18.133.745 6.358 2.006 12.464 6.357 16.183l.226.14c8.086 3.457 12.798 11.27 16.875 20.117 4.077 8.849 7.462 18.653 13.16 25.796l-.014-.018c8.85 11.673 15.221 24.234 26.182 33.77l.062.05c4.186 3.032 5.896 4.656 7.658 6.52 1.763 1.863 3.589 3.989 7.834 7.85l.07.056c14.386 10.623 30.216 23.192 48.068 24.009l.565-.173c.749-.556 1.272-1.13 1.412-1.886.14-.755-.257-1.475-.765-1.936-1.018-.923-2.611-1.467-4.465-2.065-1.853-.597-3.948-1.18-5.772-1.832-1.824-.653-3.37-1.417-4.05-2.128l-.307-.208c-5.897-2.393-10.658-8.768-15.089-14.7l-.537-.34c-4.007-.783-5.9-2.282-7.28-4.428-1.378-2.147-2.17-5.051-3.549-8.428l-.59-.52c-2.563-.68-3.75-1.258-4.013-1.503-.131-.122-.075-.052-.074-.094 0-.042.051-.241.167-.543.233-.604.636-1.65.286-2.939-.253-.936-1.041-2.009-2.177-3.188.6-.068 1.351-.02 1.824-.195.977-.363 1.709-1.01 2.066-1.82.715-1.62.07-3.47-.922-5.245-.893-1.6-2.19-3.129-3.465-4.456.128-.024.287.057.411.018.717-.23 1.266-.76 1.607-1.378.342-.617.523-1.327.627-2.098.418-3.084-.354-7.382-.466-10.205v-.006c-.301-6.625-3.354-12.173-4.818-17.956 1.797-3.21 4.657-4.563 7.019-6.63 1.218-1.065 2.281-2.379 2.753-4.212.472-1.832.36-4.115-.517-7.165l.025.117c-.822-5.62-2.537-11.141-3.152-16.417-.615-5.276-.178-10.243 3.22-15.021l.116-.225c1.087-3.166 1.27-7.303.337-10.83-.466-1.764-1.218-3.383-2.347-4.62-1.008-1.106-2.384-1.806-3.972-2.034-2.032-4.828-6.97-8.874-11.25-11.099-2.204-1.146-4.177-1.839-5.745-1.774-.784.032-1.611.327-2.008 1.067-.093.176-.071.376-.109.563-2.876-1.7-6.373-3.395-9.047-4.498-.735-.303-1.062-.375-1.614-.577.418-1.5.445-3.169.05-4.958-.523-2.36-1.502-4.84-2.48-6.992-.974-2.14-1.944-3.946-2.462-4.93l.158-.162a21.032 21.032 0 0 0-.485-.645 2.447 2.447 0 0 0-.176-.204c-.035-.036-.064-.074-.175-.147-.056-.037-.129-.094-.32-.133-.094-.02-.39.008-.39.008l-.196.118c-2.283-1.016-4.645-1.1-6.448-1.545-1.106-.273-1.978-.66-2.662-1.417-.685-.758-1.233-1.953-1.473-4.003l-.656-.75c-1.545-.399-2.007-.98-2.234-1.706-.226-.725-.106-1.744.104-2.77.21-1.025.572-1.977.305-3.027-.134-.525-.602-1.078-1.192-1.263-.496-.155-1.065-.077-1.69.033-2.931-.563-5.834.491-8.248.798-1.212.154-2.268.133-3.156-.224-.888-.357-1.682-1.038-2.407-2.485l-1.097-.432c-2.274.847-3.254.46-3.82-.124-.567-.583-.769-1.685-.702-2.444zm420.061 3.461a1.592 1.592 0 0 0-.969.026l-.44.357c-1.404 2.24-2.388 4.17-2.998 5.69-.305.76-.518 1.417-.64 1.98s-.192 1.013-.035 1.53c.08.26.262.576.593.753.33.177.699.157.962.078.526-.157.878-.475 1.319-.924.866-.882 1.953-2.407 3.292-4.676.34-.448.442-.935.487-1.436a4.913 4.913 0 0 0-.106-1.528c-.115-.5-.293-.983-.674-1.392a1.708 1.708 0 0 0-.79-.458zm13.546 1.8-.04.062c.003-.009-.003-.028 0-.036.015-.003.026-.026.04-.026zm-46.69 3.897c.014.013.06.079.073.09l-.124-.07c.013-.012.037-.01.051-.02zm43.623.025c.124.335.235.68.45.928.235.27.643.347 1.019.391-.21.372-.516.684-.946.982-.663.462-1.633.839-2.576 1.243.295-.354.575-.736.853-1.206.446-.758.814-1.55 1.2-2.338zm-16.264 8.565c-2.603 1.884-4.442 5.037-6.39 7.901-1.948 2.865-3.966 5.391-6.525 6.28l-.222.115c-1.51 1.077-3.66 2.819-4.896 5.333-1.207 2.456-1.35 5.703.778 9.32.345 2.339 1.81 4.15 3.65 5.451 1.87 1.326 4.13 2.197 6.196 2.764 2.066.567 3.922.825 5.062.867.285.01.522.01.742-.012.11-.012.213-.027.344-.066.131-.04.336-.048.572-.408.119-.18.18-.486.128-.713a.916.916 0 0 0-.242-.446c-.126-.131-.209-.161-.296-.204a25.56 25.56 0 0 0 .837-2.707c.42-1.653.882-3.611 1.312-5.37.375-1.532.704-2.74.973-3.59l.074.056c1.062-.27 1.865-.593 2.482-1.027a2.858 2.858 0 0 0 1.092-1.527c-.164.512-.347.99-.441 1.62-2.67 7.357-1.56 13.612.096 19.572l1.485.373c1.621-1.689 2.113-3.507 2.34-5.083.344.736.457.977 1.062 2.236l.155.226c1.142 1.206 1.9 1.886 2.735 2.182.417.149.998.163 1.418-.158.42-.32.541-.76.595-1.146.109-.772-.032-1.632-.25-2.66-.216-1.028-.534-2.192-.876-3.376-.654-2.267-1.361-4.554-1.645-5.954l.827.124c.956-.567 1.581-1.06 1.82-1.845.12-.393.068-.853-.109-1.194-.177-.34-.432-.574-.701-.765-1.079-.762-2.637-1.07-3.947-1.403-.12-.03-.174-.052-.288-.082a40.359 40.359 0 0 1 2.95-.66c.838.583 1.8.836 2.684.647 1.06-.226 1.99-.855 2.713-1.64.723-.784 1.255-1.733 1.394-2.752.14-1.019-.236-2.177-1.224-2.842l-1.281.339c-.653 1.315-1.347 1.634-2.307 1.734-.96.1-2.197-.176-3.468-.41-1.27-.234-2.64-.456-3.897.192-.805.414-1.343 1.298-1.753 2.408.195-1.21-.358-2.298-.953-3.387-.625-1.143-1.341-2.332-1.7-3.518-.35-1.16-.378-2.264.266-3.507 1.389-1.172 2.247-2.124 2.61-3.119.382-1.05.05-2.107-.513-2.87-1.127-1.524-2.982-2.668-4.165-4.986zm5.23 23.637c.008-.021.003-.038.01-.058l-.05.205c.007-.06.032-.09.04-.147zm-22.485 5.312c-.007-.041-.039-.069-.044-.11l.124.349c-.052-.085-.03-.154-.08-.239zm41.278-13.29-.3.158c-1.323 1.064-1.691 2.796-1.674 4.48.018 1.685.425 3.413.932 4.763.253.675.529 1.25.832 1.705.152.228.307.427.518.605.21.178.528.387.985.33.458-.058.785-.424.92-.711.136-.287.185-.566.216-.896.04-.425-.04-1.135-.09-1.771.14-.022.286.078.42.018.536-.239.842-.745.974-1.211.266-.933.11-1.96-.164-3.028-.273-1.068-.7-2.14-1.213-2.981-.257-.42-.528-.787-.878-1.079-.35-.291-.892-.557-1.478-.382zm10.574 8.114-.63.38c-1.68 2.455-2.547 3.91-2.925 5.024-.19.557-.262 1.07-.14 1.558.12.488.435.854.719 1.095.567.482 1.057.696 1.485 1.262.428.566.846 1.505.913 3.424l.4.708c.834.54 2.095.93 3.629 1.503 1.533.574 3.277 1.271 4.763 2.137 1.485.866 2.681 1.898 3.227 3.041.545 1.143.577 2.43-.478 4.274l-.058.122a1.785 1.785 0 0 0-.044 1.166c.122.374.362.666.627.887.53.443 1.187.689 1.951.906 1.529.434 3.512.676 5.405.898 1.893.222 3.711.43 4.674.689.03.009.004-.004.03.008-.029.098-.065.126-.094.23l1.339.97c.295-.197.542-.391.732-.71.121-.202.045-.5.024-.782.22-.59.45-1.317.638-1.6.304-.458.436-.466.495-.468.06-.003.295.068.65.392.353.324.781.848 1.23 1.472.9 1.248 1.896 2.879 3.024 4.227 1.118 1.336 2.44 2.511 4.125 2.432 1.132.194 2.025.249 2.75.004.77-.26 1.325-1.049 1.342-1.778.018-.73-.256-1.39-.623-2.08-.366-.692-.854-1.405-1.388-2.118-1.068-1.425-2.332-2.844-3.152-3.824-.264-.314-.356-.453-.494-.641.707-1.334.557-2.944.016-4.533-.586-1.72-1.578-3.477-2.578-4.963-1-1.485-1.97-2.667-2.679-3.3-.177-.16-.323-.288-.56-.403-.12-.058-.267-.136-.553-.119-.195.012-.377.224-.557.397-2.832-1.424-6.43-4.202-10.099-5.924-2.078-.976-4.212-1.57-6.259-1.05-1.767.45-3.26 1.948-4.467 4.23a3.101 3.101 0 0 1-.773-1.413c-.24-.92-.294-2.085-.428-3.243s-.337-2.361-1.152-3.303c-.815-.942-2.196-1.386-4.058-1.182zm41.988 7.253-1.23 1.257c.7.787 1.463 3.326 1.298 5.083-.083.879-.372 1.503-.691 1.753-.32.25-.79.377-1.891-.108l-.401-.072c-2.05.106-3.447.777-4.115 1.874-.667 1.098-.44 2.431.25 3.394a4.223 4.223 0 0 0 3.233 1.733c1.38.067 2.929-.536 4.312-1.991l.126-.17c.84-1.474 2.125-2.08 3.174-3.166.525-.543.97-1.302.988-2.228.017-.915-.33-1.915-1.031-3.17-.966-2.085-2.759-3.117-4.022-4.189zm-48.643.703-.357.017c-1.43.368-2.364.723-3.017 1.179-.327.227-.604.492-.764.88-.047.114.035.233.022.36-.204-.345-.293-.657-.63-1.058l-.797-.306c-1.127.159-1.929.366-2.536.667-.607.3-1.133.803-1.164 1.488-.032.685.383 1.148.78 1.463.396.315.862.542 1.359.71.497.17 1.02.276 1.538.285.518.009 1.064-.055 1.547-.452.376-.31.509-.847.493-1.372.315.247.666.435 1.059.583.64.24 1.38.41 2.132.512.752.103 1.511.14 2.192.084.68-.056 1.297-.126 1.84-.645.272-.26.472-.727.425-1.148-.048-.421-.25-.745-.505-1.042-.509-.594-1.31-1.153-2.584-1.851l-.1-.047-.585-.23-.186-.051zm55.56 7.457-.778.514c-.787 1.713-.653 3.386-.086 4.675.567 1.29 1.505 2.223 2.46 2.713.478.244.972.408 1.54.304.052-.01.093-.068.146-.086.052.12.017.284.083.39.56.892 1.46 1.442 2.318 1.731.429.144.842.244 1.343.13.078-.018.154-.113.237-.148.099.402.17.825.4 1.133.684.912 1.701 1.442 2.64 1.682.47.12.922.178 1.404.062.108-.026.216-.128.328-.183-.006.339-.06.73-.035 1.032l-.734-.266-.975.262c-.492.588-.801 1.159-.909 1.745a2.207 2.207 0 0 0 .326 1.62c.596.873 1.581 1.166 2.476 1.21.422.02.836-.036 1.234-.174-.196 1.157-.155 2.106.404 2.722.354.39.866.578 1.32.58.453.003.863-.142 1.217-.363.707-.442 1.301-1.314 1.055-2.32-.176-.718-.837-1.232-1.707-1.648.254-.195.564-.329.688-.627.207-.497.222-1.066.082-1.67-.279-1.208-1.16-2.602-2.928-4.201l-1.048.373c-.13-.33-.196-.67-.477-.997-.447-.52-1.094-1.104-2.017-1.803l-.004-.004-.004-.003-.968-.778-1.25.15c-.102.132-.073.28-.154.418-.135-.253-.173-.509-.398-.792-.448-.567-1.097-1.233-2.02-2.052l-1.117-.043c-.024.018-.021.047-.044.065-.295-.823-.793-1.74-1.704-2.982l-.21-.206c-.11-.074-.202-.31-.382-.81-.09-.25-.201-.566-.494-.87-.291-.302-.79-.498-1.259-.486zm-44.633 1.7c-1.573 1.504-2.294 2.765-2.37 3.914-.076 1.148.773 2.121 1.74 2.23.966.108 1.976-.483 2.436-1.544.46-1.06.399-2.504-.388-4.314zm-25.414 7.969c-1.973-.029-3.597.348-4.805.915-1.209.566-2.08 1.256-2.307 2.297-.094.43.124.897.397 1.279l-.674-.078c-.923.396-1.559.81-1.964 1.38-.406.572-.437 1.381-.146 1.926.582 1.09 1.742 1.51 2.837 1.747.547.119 1.087.167 1.61.08.263-.043.527-.119.786-.287.26-.169.51-.462.605-.813.191-.702-.13-1.303-.601-1.894-.353-.443-1.014-.98-1.684-1.524.286.12.529.308.873.345 1.227.131 2.9-.148 5.24-.99l.583-.849c-.009-.379.15-.706.321-1.224.085-.259.176-.587.12-.99-.055-.401-.293-.807-.617-1.096zm-11.013.013-.818.13c-1.35 1.018-2.223 1.85-2.76 2.61-.538.76-.799 1.608-.427 2.337.372.73 1.106.97 1.782 1.06.676.092 1.41.036 2.143-.112a7.593 7.593 0 0 0 2.09-.733c.631-.342 1.208-.772 1.497-1.477.29-.705.043-1.629-.575-2.24-.619-.61-1.546-1.096-2.932-1.575zm19.826.805c-1.917.19-4.358 1.001-6.255 2.5-1.897 1.498-3.226 3.892-2.367 6.717l1.583.22c.242-.375 1.001-1.02 1.954-1.665.952-.645 2.092-1.332 3.14-2.044 1.05-.711 2.012-1.426 2.65-2.288.32-.431.569-.92.613-1.487.043-.566-.164-1.165-.55-1.636zm-34.314 2.01c-.012-.006.045.01.033.004l-.07.195c.019-.077.033-.13.037-.199zm68.55 6.23-1.381.104c-2.37 3.523-2.575 7.869-2.921 11.946-.317 3.737-.812 7.175-2.732 9.78-1.765-1.749-4.202-3.39-5.887-5.147-.966-1.007-1.606-2.009-1.75-2.968-.145-.958.113-1.974 1.302-3.292l.184-.319c.68-2.092.482-3.773-.417-4.91-.9-1.136-2.29-1.623-3.692-1.889-1.402-.265-2.874-.304-4.08-.357a19.858 19.858 0 0 1-1.54-.107c-.13-.017-.11-.025-.207-.048.007-.067.018-.117.016-.204a1.127 1.127 0 0 0-.244-.727l-1.383-.004c-.277.35-.496.744-.46 1.237.015.217.182.298.283.463.004.024-.009.02-.004.046.14.654-.072 2.04-.597 3.527-.526 1.486-1.32 3.103-2.136 4.436-.757 1.237-1.537 2.128-2.002 2.505-.003-.03.005.008.004-.027l-.122-.412c-1.058-1.774-2.328-2.83-3.71-3.194-1.382-.362-2.769 0-3.963.71-2.29 1.364-4.05 3.968-4.993 6.392-1.237.44-2.177 1.377-2.853 2.543-.774 1.335-1.362 2.916-2.014 4.417-.652 1.5-1.367 2.91-2.27 3.878-.903.969-1.924 1.532-3.498 1.5l-.48.13c-2.47 1.52-5.606 2.628-8.2 4.433-2.592 1.805-4.619 4.484-4.525 8.73l.008.094c.396 3.09.09 5.106.062 7.418-.028 2.275.28 4.804 1.805 8.497 1.168 5.696 2.339 12.275.389 16.563l.127.93c1.556 1.852 3.258 2.662 4.92 2.692 1.662.03 3.189-.635 4.659-1.374 1.47-.739 2.902-1.571 4.307-2.053 1.406-.482 2.734-.632 4.18-.093l1.05-.348c1.942-3.018 5.542-5.194 9.249-5.954 3.615-.74 7.223-.112 9.562 2.08.04 1.439.16 2.666.46 3.533.34.986.885 1.702 1.6 2.064.714.363 1.49.33 2.153.15.325-.088.58-.264.873-.403-.235.384-.326.55-.634 1.048l1.091 1.277c.597-.251 1.012-.313 1.263-.293.25.02.36.08.515.238.312.318.645 1.212.943 2.387.594 2.35 1.246 5.796 4.342 7.703l.351.124c5.156.656 5.809.28 10.352.77l.27-.013c3.652-.74 5.975-3.066 7.736-5.868 1.76-2.802 3.06-6.111 4.825-9.162l-.071.104c3.284-4.182 6.379-10.015 7.758-16.122 1.36-6.023 1.005-12.362-2.649-17.473-1.341-4.847-2.89-10.647-7.912-14.653-.56-2.178-.369-5.902-.597-9.09-.117-1.625-.336-3.124-.991-4.317-.518-.942-1.51-1.491-2.66-1.66-.229-1.852-.377-3.967-.72-6.029-.377-2.262-.962-4.43-2.344-5.939zm-204.21 4.51-1.402.096c-1.524 2.333-2.35 5.42-3.594 8.055-1.243 2.634-2.768 4.723-5.617 5.427l-.66.721c-.549 3.537.188 6.853.704 9.96.515 3.107.816 5.97-.312 8.764l-.05.488c.555 3.037 1.88 6.987 3.922 9.543 1.021 1.278 2.28 2.262 3.804 2.372 1.524.11 3.082-.725 4.525-2.485l.198-.503c.68-10.545.63-23.201 2.517-31.261l-.05-.55c-1.332-3.09-1.234-7.475-3.984-10.627zm256.27 8.065-.735.062c-1.122.633-1.475 1.908-1.409 3.035.067 1.127.466 2.257.95 3.206.241.475.504.902.78 1.26.275.357.533.65.943.863.206.106.489.206.839.135.35-.072.653-.354.787-.609.266-.51.227-.947.158-1.55l-.339-.598c-.293-.225-.37-.421-.411-.798-.043-.376.017-.899.082-1.472.064-.573.143-1.205-.046-1.885-.189-.681-.767-1.348-1.6-1.65zm23.433 8.408c-1.308.48-2.252.968-2.935 1.488-.683.52-1.136 1.099-1.263 1.778-.126.68.168 1.35.589 1.768.42.417.949.669 1.512.818 1.127.297 2.509.222 3.422-.771.457-.497.706-1.224.661-2.017-.045-.793-.342-1.664-.914-2.673zm-32.078 9.05-.721.423c-.753 1.242-.408 2.733.184 4.11.592 1.378 1.517 2.72 2.469 3.739.475.51.954.937 1.44 1.248.488.31 1.005.585 1.684.42.34-.081.672-.328.857-.622.185-.295.257-.61.284-.939.054-.657-.069-1.42-.353-2.446l-.245-.407c-.638-.6-1.28-1.897-2.046-3.104-.383-.604-.81-1.193-1.381-1.66-.571-.466-1.327-.793-2.172-.761zm8.475 45.227-1.449.22c-1.151 2.46-.582 5.618-.634 8.494-.026 1.437-.183 2.786-.645 3.902-.462 1.115-1.191 2.017-2.533 2.698l-.475.669c-.222 1.652-.224 2.962-.082 4.08-.361-.63-.708-1.254-1.358-1.883l-1.343.137c-2.358 3.475-5.741 5.79-9.172 8.196-3.431 2.406-6.916 4.913-9.216 8.869l.129 1.057c1.59 1.633 3.417 2.174 5.095 1.841 1.677-.332 3.158-1.395 4.535-2.652 1.377-1.258 2.653-2.741 3.814-4.034 1.16-1.292 2.237-2.391 2.995-2.84l.084-.057c2.548-1.943 4.26-3.444 4.93-5.201.161-.42.237-.861.246-1.303.246.325.507.635.91.78 1.001.36 2.03-.1 3.052-.92.997-.8 2.1-2.074 3.349-3.819 2.624-2.012 4.02-3.95 4.502-5.76.49-1.84 0-3.49-.838-4.662-.838-1.173-1.965-1.925-3.008-2.216-.113-.031-.236.04-.35.019.033-.823-.03-1.597-.283-2.3-.427-1.184-1.216-2.178-2.255-3.315zm-60.159 18.482-.754.31c-.76.9-1.019 2.172-1.12 3.564-.1 1.39.018 2.898.356 4.21.338 1.311.836 2.514 1.972 3.057.568.271 1.29.264 1.911-.02.622-.284 1.181-.789 1.755-1.514 1.501-1.842 2.477-3.258 3.003-4.456.526-1.201.592-2.37-.039-3.212-.63-.842-1.634-1.17-2.817-1.414-1.182-.243-2.614-.373-4.267-.525zm243.782 15.641c-2.053.448-3.238 1.004-3.905 1.822-.333.409-.517.953-.41 1.465.107.51.462.89.85 1.11 1.557.872 4.093-.2 4.525-3.419zm-5.53 4.31c-2.546.278-4.66 2.096-6.586 4.074-1.925 1.978-3.694 4.194-5.255 5.49l.01.005c-.02.02-.052.036-.072.057l1.193 1.294c.022-.018.043-.048.064-.066v.004c1.41-1.446 3.947-2.82 6.302-4.294 2.356-1.473 4.637-3.057 5.292-5.453zm-374.26 2.981-1.084.461c-.485 1.035-.704 1.93-.676 2.73.029.798.338 1.5.822 1.974.968.948 2.352 1.02 3.471.698.56-.16 1.082-.428 1.481-.873.4-.445.631-1.154.447-1.82-.37-1.33-1.75-2.242-4.46-3.17zM196.958 426.2c-.932.224-1.625.528-2.127.998-.502.47-.745 1.18-.645 1.793.2 1.224 1.202 1.99 2.269 2.543 1.067.555 2.292.914 3.445.501a2.216 2.216 0 0 0 1.332-1.359c.217-.657.169-1.403-.08-2.273l-.126-.266c-.61-.867-1.573-.99-2.172-1.106-.3-.058-.537-.117-.676-.18-.139-.064-.177-.095-.235-.205zm570.753.342a7.02 7.02 0 0 0-3.218 1.859c-.737.758-1.196 1.443-1.222 2.295-.01.213.018.468.186.733.167.264.511.47.805.506.588.074.932-.168 1.328-.457.793-.578 1.761-1.657 3.078-3.59zM250.043 458.09l-.74.535c-.745 1.77-.515 3.562.308 5.078.822 1.516 2.182 2.811 3.755 3.946 3.097 2.234 7.035 3.826 9.716 4.677 2.477 2.566 4.278 3.078 5.913 3.481 1.692.417 3.377.861 6.809 4.094l.115.091c2.725 1.82 5.962 1.609 8.585 1.474 1.312-.067 2.488-.115 3.342.03.854.143 1.307.387 1.618.97l.15.203c2.487 2.524 6.71 4.006 11.277 5.143 4.565 1.136 9.494 1.88 13.32 2.63l.89-.36c.322-.46.401-1.08.263-1.578-.139-.499-.426-.906-.775-1.29-.698-.767-1.7-1.463-2.84-2.144-2.282-1.362-5.118-2.604-6.839-3.325l-.023-.01c-14.812-5.72-30.437-8.33-44.502-15.242-1.221-1.983-3.77-2.698-5.384-3.285-.357-.13-.626-.243-.855-.35.16-.113.241-.195.572-.364l.22-1.412c-.49-.486-1.056-1.238-1.816-1.89-.76-.653-1.804-1.21-3.08-1.103zm257.234 5.267c-2.768 2.427-6.31 2.725-10.196 2.736-3.704.011-7.647-.224-11.22 1.166-1.278-1.251-2.65-1.984-4.024-2.188-1.542-.228-3.032.05-4.453.39-2.842.679-5.333 1.558-7.699.262l.264.22c-1.14-1.417-2.558-1.93-3.81-1.673-1.251.257-2.268 1.053-3.265 1.807-.997.754-1.97 1.488-2.866 1.81-.896.323-1.648.343-2.706-.385l-.353-.144c-3.463-.592-7.862-.466-10.747-.294-.615.037-.767.06-1.217.095v-.03c-.092-.015-.168.013-.259 0v-.005l-.055.008c-1.413-.172-2.68.103-3.722.688-1.123.632-2.028 1.532-2.868 2.43-1.68 1.798-3.093 3.497-4.933 3.74l-.761.968c.09.843.069 1.459-.004 1.846-.072.387-.187.508-.197.516-.01.009.036.018-.099-.011-.134-.03-.392-.146-.676-.361-.566-.43-1.23-1.22-1.687-2.062-.457-.843-.69-1.74-.623-2.305l-.22-.696c-3.11-3.433-6.856-3.403-10.164-3.37-3.309.032-6.185.082-8.874-2.981l-.21-.175c-1.557-.937-3.006-1.272-4.316-1.14-1.31.13-2.434.705-3.427 1.4-1.987 1.39-3.603 3.247-5.323 3.941l-.227.137c-3.094 2.53-6.098 3.393-8.187 3.481-1.045.045-1.864-.118-2.281-.302-.165-.072-.203-.116-.23-.138-.003-.046.03-.078.025-.124l-1.69-.266c-.06.141.061.279.056.435l-.122-.02c.07.823-.172 1.158-.771 1.518-.599.36-1.62.588-2.78.63-2.32.085-5.2-.545-6.382-1.066l-.21-.062c-3.367-.556-5.76.099-7.836.498-2.076.399-3.806.596-6.5-.669l-1.235.603c-.326 1.436-1.016 1.94-2.174 2.243-1.157.304-2.779.224-4.44.06-1.662-.164-3.352-.406-4.84-.257-.743.075-1.455.248-2.07.66-.614.411-1.08 1.086-1.259 1.9l.079.592c1.258 2.45 3.29 3.678 5.19 4.75 1.542.868 2.926 1.768 4.093 3.015-.187.093-.47.101-.628.231a1.968 1.968 0 0 0-.665 1.773c.15.883.753 1.566 1.47 2.217-.119-.036-.234-.076-.353-.111-3.271-.974-6.545-1.719-9.144-.334l-.118 1.48c.741.563 1.973 1.018 3.25 1.486-.331.096-.716.176-.989.274-.999.357-1.828.643-4.4.05l-.483 1.693c.026.01.06.013.085.022v.004c.007.003.01 0 .015.003 10.25 3.46 25.62 4.188 36.32 5.203l.024.004c31.828 2.191 63.726 7.407 95.69 8.297l.122-.006c42.89-4.855 87.47-7.586 129.391-13.757l.09-.018c14.807-3.761 30.762-5.656 44.707-11.939l-.166-1.663c-4.076-.936-6.757-1.357-10.39-1.432 0-.004.01-.003.01-.008.212-.364.172-.938-.031-1.27-.388-.637-.985-.91-1.91-1.288-.485-.272-.915-.275-1.235-.31-.32-.035-.537-.078-.69-.164l-.657-.08c-1.468.394-2.436.739-3.103 1.108-.333.184-.602.363-.825.672-.199.276-.228.767-.1 1.144-1.163-.569-2.657-1.15-4.945-.282l-.06.025c-.83.388-2.327.653-4.022.796-1.695.144-3.599.192-5.366.28-1.767.09-3.381.206-4.622.558-.106.03-.172.113-.274.146-.24.01-.487-.015-.749.03-.448.076-.946.187-1.44.296-.334.074-.63.131-.932.192l-.47-1.276c-2.082.082-3.867.568-5.598 1.048-.067-.346-.101-.682-.31-1.07l-.95-.446c-.812.164-1.418.355-1.895.601-.478.247-.878.566-1.05 1.084-.073.22.094.38.135.594-1.762.362-3.533.604-5.692.206l-.11-.013c-11.703-.685-22.627 3.176-33.967 5.775-2.54-.907-5.164-.086-7.63.8-2.584.929-5.07 1.881-7.215 1.516l-.44.038c-10.564 3.707-23.613 6.024-33.965 7.31a5.773 5.773 0 0 1 1.658-1.498c1.146-.677 2.58-1.113 4.045-1.481 1.465-.368 2.951-.664 4.245-1.16 1.295-.497 2.485-1.254 2.981-2.582l-.052.116c1.688-3.075 5.604-4.628 9.89-6.232 4.286-1.604 8.907-3.262 11.481-7.151l-.082-1.079c-1.794-1.976-4.166-2.115-6.036-2.331-.936-.109-1.766-.244-2.428-.545-.662-.301-1.185-.732-1.634-1.625l-.231-.29c-1.988-1.613-4.805-1.75-7.028-2.232-1.112-.24-2.063-.552-2.682-1.002-.62-.45-.975-.97-1.044-2.015l-.52-.747c-2.38-1.066-5.29-.1-7.429.055-1.07.078-1.862-.04-2.268-.344-.406-.305-.726-.89-.625-2.444zM385.6 472.96c-.003.022.004.04.004.056-.003-.003-.011-.003-.013-.006.004-.017.009-.033.01-.05zm-68.096 16.005-.603 1.587c1.977 1.465 3.635 2.278 4.912 2.654.639.188 1.178.271 1.664.244.486-.027 1.06-.142 1.363-.754.151-.306.14-.675.047-.94a1.708 1.708 0 0 0-.41-.636c-.338-.35-.787-.63-1.387-.904-1.2-.545-3.01-1.02-5.586-1.251z" stroke="none" fill="none" stroke-linecap="square" fill-rule="evenodd" stroke-linejoin="bevel"/></g><g style="display:inline"><ellipse style="opacity:1;fill:none;stroke:#b3b3b3;stroke-width:2.95276;stop-color:#000" cx="468.427" cy="268.466" rx="400.229" ry="240.319"/><ellipse style="opacity:1;fill:none;stroke:#b3b3b3;stroke-width:2.95276;stop-color:#000" cx="468.427" cy="268.466" rx="276.916" ry="240.464"/><ellipse style="opacity:1;fill:none;stroke:#b3b3b3;stroke-width:2.95276;stop-color:#000" cx="468.427" cy="268.466" rx="96.125" ry="240.859"/><path style="opacity:1;fill:none;stroke:#b3b3b3;stroke-width:2.95276;stroke-linecap:butt;stroke-linejoin:miter;stroke-opacity:1" d="M468.564 28.168v480.787M68.198 268.466h800.459"/><ellipse style="opacity:1;fill:none;stroke:#b3b3b3;stroke-width:2.95276;stop-color:#000" cx="468.427" cy="268.466" rx="190.193" ry="240.648"/><ellipse style="opacity:1;fill:none;stroke:#b3b3b3;stroke-width:2.95276;stop-color:#000" cx="468.427" cy="268.466" rx="358.536" ry="240.316"/></g><g style="display:inline"><g style="display:inline;stroke-width:.963293"><path style="color:#000;fill:#fff;stroke-width:.963293;stroke-linecap:square;stroke-linejoin:bevel;-inkscape-stroke:none" d="M304.905 68.661c-16.004.075-31.32 1.41-45.352 3.892-21.102 3.728-39.59 10.268-52.664 25.601-13.075 15.334-15.142 33.98-15.142 48.853v11.204h-.08c-36.924 0-73.233 26.4-82.85 66.55-8.328 34.57-8.739 63.52 0 99.78 3.906 16.27 10.783 32.194 23.425 45.14 12.643 12.946 31.844 21.394 51.61 21.394h7.895v11.204c0 20.446 10.218 39.065 22.924 50.595 12.705 11.531 27.264 17.9 41.485 22.084 30.745 9.04 64.408 10.724 101.267.032 13.302-3.851 27.767-9.633 40.796-21.037 13.03-11.405 23.743-30.59 23.743-51.674v-11.204h10.529c19.47 0 39.377-9.391 50.726-22.635 11.342-13.234 16.299-27.356 20.93-41.296v-.008c10.736-32.218 9.895-65.612.689-102.626l-.008-.017c-3.691-14.862-9.187-30.102-20.946-43.477-11.763-13.38-31.377-22.805-51.39-22.805h-10.53v-11.204c0-40.349-33.123-68.672-68.106-74.503-16.349-2.721-32.944-3.917-48.95-3.843z" transform="matrix(.81522 0 0 .81511 212.711 182.483)"/><path style="font-variation-settings:normal;opacity:1;vector-effect:none;fill:#2876ad;fill-opacity:.996078;stroke:none;stroke-width:2.95742;stroke-linecap:square;stroke-linejoin:bevel;stroke-miterlimit:4;stroke-dasharray:none;stroke-dashoffset:0;stroke-opacity:1;-inkscape-stroke:none;stop-color:#000;stop-opacity:1" d="M401.043 189.585v37.207c0 28.846-24.456 53.125-52.343 53.125h-83.692c-22.925 0-41.895 19.62-41.895 42.578v79.786c0 22.707 19.746 36.063 41.895 42.578 26.523 7.799 51.957 9.208 83.692 0 21.094-6.108 41.894-18.399 41.894-42.578v-31.934h-83.691v-10.644H432.489c24.351 0 33.426-16.986 41.894-42.481 8.748-26.247 8.376-51.487 0-85.156-6.018-24.242-17.512-42.481-41.894-42.481zm-47.07 202.051c8.686 0 15.723 7.117 15.723 15.918 0 8.833-7.037 16.016-15.723 16.016-8.655 0-15.723-7.183-15.723-16.016 0-8.8 7.068-15.918 15.723-15.918zm-48.926-291.602c-14.324.067-28.003 1.288-40.039 3.418-35.457 6.264-41.895 19.375-41.895 43.555v31.934h83.79v10.644H191.668c-24.351 0-45.674 14.637-52.344 42.48-7.693 31.916-8.034 51.832 0 85.157 5.956 24.806 20.18 42.48 44.532 42.48h28.808v-38.28c0-27.657 23.929-52.052 52.344-52.052H348.7c23.296 0 41.894-19.181 41.894-42.578v-79.785c0-22.707-19.156-39.765-41.894-43.555-14.394-2.396-29.329-3.484-43.653-3.418zm-45.312 25.684c8.654 0 15.722 7.183 15.722 16.015 0 8.801-7.068 15.918-15.722 15.918-8.686 0-15.723-7.117-15.723-15.918 0-8.832 7.037-16.015 15.723-16.015z" transform="matrix(.81522 0 0 .81511 212.711 182.483)"/></g></g><g style="display:inline"><g aria-label="AUTOMATING GIS PROCESSES" style="font-size:61.8552px;line-height:1.25;font-family:'Myriad Pro';-inkscape-font-specification:'Myriad Pro, Normal';stroke-width:.9729"><path d="m62.464 612.297 5.505 13.237h5.752L52.752 576.67l-21.525 48.865h5.69l5.63-13.237zm-2.042-4.824H44.65l7.98-18.68zM83.865 578.896H78.67v29.195c0 5.32.494 9.588 4.577 13.485 3.155 3.093 7.67 4.763 12.062 4.763 4.7 0 9.34-1.856 12.556-5.32 3.712-3.835 4.083-7.856 4.083-12.928v-29.195h-5.196v27.773c0 3.65.185 7.732-2.289 10.7-2.165 2.599-5.814 4.145-9.154 4.145-3.402 0-7.361-1.608-9.402-4.454-2.165-2.969-2.042-6.927-2.042-10.391zM133.535 583.72h11.382v-4.824h-27.835v4.824h11.257v41.814h5.196zM172.195 578.092c-13.3 0-24.31 10.824-24.31 24.185 0 13.423 11.01 24.062 24.31 24.062 13.298 0 24.309-10.64 24.309-24.062 0-13.36-11.01-24.185-24.31-24.185zm0 4.824c10.7 0 19.113 8.722 19.113 19.3 0 10.514-8.536 19.298-19.113 19.298-10.578 0-19.114-8.784-19.114-19.299 0-10.577 8.413-19.299 19.114-19.299zM200.153 625.534h5.32l6-31.546h.123l14.97 33.464 15.03-33.464h.124l6 31.546h5.32l-9.465-49.298-17.01 39.154-16.948-39.154zM285.884 612.297l5.506 13.237h5.752l-20.969-48.865-21.525 48.865h5.69l5.63-13.237zm-2.04-4.824H268.07l7.98-18.68zM309.637 583.72h11.381v-4.824h-27.835v4.824h11.258v41.814h5.196zM331.657 578.896h-5.196v46.638h5.196zM341.43 625.534h5.196v-35.937l36.371 38.04v-48.741h-5.196v36.123l-36.37-38.103zM416.646 602.091v4.825h13.856c0 8.66-8.536 14.598-16.64 14.598-4.886 0-9.834-2.536-13.236-5.938-3.464-3.526-5.444-8.227-5.444-13.175 0-10.516 8.413-19.485 19.052-19.485 6.866 0 12.124 3.279 16.02 8.784l3.774-3.526c-4.949-6.433-11.567-10.082-19.732-10.082-13.423 0-24.31 10.886-24.31 24.247 0 13.113 10.887 24 24 24 6.495 0 12.99-2.846 17.258-7.794 4.268-4.949 4.948-10.144 4.825-16.454zM486.419 602.091v4.825h13.855c0 8.66-8.536 14.598-16.639 14.598-4.886 0-9.835-2.536-13.237-5.938-3.463-3.526-5.443-8.227-5.443-13.175 0-10.516 8.412-19.485 19.052-19.485 6.866 0 12.123 3.279 16.02 8.784l3.773-3.526c-4.948-6.433-11.567-10.082-19.732-10.082-13.422 0-24.309 10.886-24.309 24.247 0 13.113 10.887 24 24 24 6.495 0 12.99-2.846 17.258-7.794 4.268-4.949 4.948-10.144 4.824-16.454zM518.522 578.896h-5.196v46.638h5.196zM553.284 585.329c-2.474-4.578-6.866-7.237-12.061-7.237-6.928 0-13.052 4.639-13.052 11.876 0 6.68 4.701 9.464 10.144 11.938l2.846 1.237c4.33 1.98 8.598 3.835 8.598 9.278 0 5.258-4.578 9.093-9.588 9.093-5.01 0-8.66-3.897-9.34-8.66l-5.072 1.423c1.484 7.237 7.051 12.062 14.536 12.062 8.103 0 14.66-6.248 14.66-14.413 0-7.422-5.134-10.453-11.196-13.113l-3.093-1.36c-3.155-1.423-7.299-3.28-7.299-7.3 0-4.268 3.588-7.237 7.732-7.237 3.959 0 6.185 1.856 8.041 5.072zM586.81 605.122h3.773c3.897 0 7.918-.495 11.072-3.092 2.907-2.413 4.454-6.248 4.454-10.021 0-4.144-1.794-8.227-5.258-10.64-3.402-2.35-7.546-2.473-11.567-2.473h-7.67v46.638h5.196zm0-21.402h1.917c6.062 0 12.186.557 12.186 8.165 0 6.68-4.887 8.413-10.64 8.413h-3.463zM617.923 583.72h1.547c6.247 0 11.876.743 11.876 8.413 0 7.237-5.938 8.35-11.815 8.35h-1.608zm0 21.34h1.3l14.102 20.474h6.371l-14.845-20.907c7.175-.618 11.69-5.69 11.69-12.865 0-10.516-8.226-12.866-17.071-12.866h-6.743v46.638h5.196zM668.211 578.092c-13.298 0-24.309 10.824-24.309 24.185 0 13.423 11.01 24.062 24.31 24.062 13.298 0 24.308-10.64 24.308-24.062 0-13.36-11.01-24.185-24.309-24.185zm0 4.824c10.701 0 19.114 8.722 19.114 19.3 0 10.514-8.536 19.298-19.114 19.298-10.577 0-19.113-8.784-19.113-19.299 0-10.577 8.412-19.299 19.113-19.299zM735.139 582.669c-4.145-3.093-8.722-4.577-13.918-4.577-13.36 0-24.309 10.948-24.309 24.309 0 13.237 11.134 23.938 24.31 23.938 4.948 0 9.896-1.67 13.917-4.578v-6.433c-3.712 3.712-8.846 6.186-14.103 6.186-10.454 0-18.928-9.031-18.928-19.299 0-10.268 8.412-19.299 18.804-19.299 5.381 0 10.515 2.35 14.227 6.186zM743.922 625.534h24.186v-4.824h-18.99V602.4h18.433v-4.824h-18.433V583.72h18.99v-4.824h-24.186zM802.252 585.329c-2.475-4.578-6.866-7.237-12.062-7.237-6.928 0-13.052 4.639-13.052 11.876 0 6.68 4.701 9.464 10.145 11.938l2.845 1.237c4.33 1.98 8.598 3.835 8.598 9.278 0 5.258-4.577 9.093-9.588 9.093-5.01 0-8.66-3.897-9.34-8.66l-5.072 1.423c1.485 7.237 7.052 12.062 14.536 12.062 8.103 0 14.66-6.248 14.66-14.413 0-7.422-5.134-10.453-11.196-13.113l-3.093-1.36c-3.154-1.423-7.299-3.28-7.299-7.3 0-4.268 3.588-7.237 7.732-7.237 3.959 0 6.186 1.856 8.041 5.072zM836.829 585.329c-2.474-4.578-6.866-7.237-12.062-7.237-6.928 0-13.051 4.639-13.051 11.876 0 6.68 4.7 9.464 10.144 11.938l2.845 1.237c4.33 1.98 8.598 3.835 8.598 9.278 0 5.258-4.577 9.093-9.588 9.093-5.01 0-8.66-3.897-9.34-8.66l-5.072 1.423c1.485 7.237 7.052 12.062 14.536 12.062 8.103 0 14.66-6.248 14.66-14.413 0-7.422-5.134-10.453-11.196-13.113l-3.093-1.36c-3.154-1.423-7.299-3.28-7.299-7.3 0-4.268 3.588-7.237 7.732-7.237 3.959 0 6.186 1.856 8.041 5.072zM846.107 625.534h24.185v-4.824h-18.99V602.4h18.434v-4.824h-18.433V583.72h18.99v-4.824h-24.186ZM904.436 585.329c-2.474-4.578-6.865-7.237-12.061-7.237-6.928 0-13.052 4.639-13.052 11.876 0 6.68 4.701 9.464 10.145 11.938l2.845 1.237c4.33 1.98 8.598 3.835 8.598 9.278 0 5.258-4.578 9.093-9.588 9.093-5.01 0-8.66-3.897-9.34-8.66l-5.072 1.423c1.484 7.237 7.051 12.062 14.536 12.062 8.103 0 14.66-6.248 14.66-14.413 0-7.422-5.134-10.453-11.196-13.113l-3.093-1.36c-3.155-1.423-7.299-3.28-7.299-7.3 0-4.268 3.588-7.237 7.732-7.237 3.959 0 6.186 1.856 8.041 5.072z" style="font-family:'Futura Std';-inkscape-font-specification:'Futura Std, Normal';text-align:center;text-anchor:middle"/></g></g></svg>