<svg width="700" height="200" viewBox="0 0 185.208 52.917" xml:space="preserve" xmlns="http://www.w3.org/2000/svg"><path style="fill:#59e759;stroke:none;stroke-width:.250001;stop-color:#000" d="M142.78 14.94v28.314h28.314V27.66a11.3 11.3 0 0 1-10.506-11.27 11.3 11.3 0 0 1 .1-1.45zM124.968 5.09a11.3 11.3 0 0 0-11.2 9.85h10.406v12.72a11.3 11.3 0 0 0 .794.03 11.3 11.3 0 0 0 11.3-11.3 11.3 11.3 0 0 0-11.3-11.3Zm-.794 22.57a11.3 11.3 0 0 1-10.506-11.27 11.3 11.3 0 0 1 .1-1.45H95.86v28.314h28.314zM78.048 5.09a11.3 11.3 0 0 0-11.2 9.85H48.94v28.314h28.315V27.66a11.3 11.3 0 0 0 .793.03 11.3 11.3 0 0 0 11.3-11.3 11.3 11.3 0 0 0-11.3-11.3ZM19.929 14.94a11.3 11.3 0 0 0-.1 1.45 11.3 11.3 0 0 0 10.507 11.27V14.94Z"/><path style="fill:none;stroke:#000;stroke-width:.250001;stop-color:#000" d="M2.021 14.94h28.315v28.315H2.021z"/><circle style="fill:none;stroke:#000;stroke-width:.250001;stop-color:#000" cx="31.129" cy="16.39" r="11.3"/><path style="fill:none;stroke:#000;stroke-width:.250001;stop-color:#000" d="M48.94 14.94h28.315v28.315H48.94z"/><circle style="fill:none;stroke:#000;stroke-width:.250001;stop-color:#000" cx="78.049" cy="16.39" r="11.3"/><path style="fill:none;stroke:#000;stroke-width:.250001;stop-color:#000" d="M95.86 14.94h28.315v28.315H95.86z"/><circle style="fill:none;stroke:#000;stroke-width:.250001;stop-color:#000" cx="124.968" cy="16.39" r="11.3"/><path style="fill:none;stroke:#000;stroke-width:.250001;stop-color:#000" d="M142.779 14.94h28.315v28.315h-28.315z"/><circle style="fill:none;stroke:#000;stroke-width:.250001;stop-color:#000" cx="171.887" cy="16.39" r="11.3"/><g aria-label="Intersection" style="font-size:3.175px;line-height:1.25;font-family:Arial;-inkscape-font-specification:'Arial, Normal';stroke-width:.264583"><path d="M8.229 47.283v-2.272h.3v2.272zM9.024 47.283v-1.646h.251v.234q.182-.271.524-.271.15 0 .273.054.126.053.188.14.062.086.087.206.015.077.015.271v1.012h-.279v-1.001q0-.17-.032-.254-.033-.086-.117-.135-.082-.051-.193-.051-.179 0-.309.113-.129.113-.129.43v.898zM11.4 47.034l.04.246q-.118.025-.211.025-.152 0-.236-.048-.083-.048-.118-.126-.034-.079-.034-.33v-.947h-.204v-.217h.204v-.408l.278-.167v.575h.28v.217h-.28v.963q0 .12.014.153.015.034.048.054.034.02.096.02.046 0 .122-.01zM12.8 46.753l.288.036q-.069.253-.253.392-.185.14-.471.14-.362 0-.574-.222-.21-.223-.21-.625 0-.415.213-.645.214-.23.555-.23.33 0 .54.226.209.224.209.632l-.002.074h-1.227q.015.272.153.416.138.144.344.144.154 0 .262-.08.109-.081.172-.258zm-.917-.451h.92q-.02-.208-.106-.312-.133-.16-.346-.16-.192 0-.324.128-.13.129-.144.344zM13.435 47.283v-1.646h.251v.25q.096-.176.177-.231.082-.056.18-.056.14 0 .286.09l-.096.259q-.102-.06-.204-.06-.092 0-.165.055-.073.054-.104.152-.046.149-.046.325v.862zM14.384 46.792l.276-.043q.023.165.128.254.107.088.298.088.192 0 .285-.077.093-.08.093-.185 0-.094-.082-.149-.057-.037-.285-.094-.307-.078-.426-.134-.118-.057-.18-.156-.06-.1-.06-.222 0-.11.049-.203.051-.095.138-.157.065-.048.177-.08.113-.034.241-.034.194 0 .34.056.147.055.217.152.07.094.096.254l-.273.037q-.018-.127-.108-.198-.089-.072-.251-.072-.193 0-.275.064-.082.063-.082.149 0 .054.034.097.034.045.107.075.042.015.247.071.296.08.412.13.118.05.184.146.067.096.067.239 0 .14-.082.263-.08.123-.234.19-.154.068-.347.068-.321 0-.49-.134-.168-.133-.214-.395zM17.21 46.753l.288.036q-.068.253-.252.392-.185.14-.472.14-.361 0-.573-.222-.211-.223-.211-.625 0-.415.214-.645.214-.23.555-.23.33 0 .54.226.209.224.209.632l-.002.074h-1.228q.016.272.154.416.138.144.344.144.153 0 .262-.08.108-.081.172-.258zm-.916-.451h.919q-.019-.208-.105-.312-.134-.16-.346-.16-.192 0-.324.128-.13.129-.144.344zM18.923 46.68l.274.036q-.045.284-.23.445-.185.16-.455.16-.338 0-.544-.22-.205-.222-.205-.635 0-.266.089-.466.088-.2.268-.3.181-.1.394-.1.268 0 .438.136.171.135.219.385l-.271.042q-.039-.166-.138-.25-.098-.084-.237-.084-.211 0-.343.152-.132.15-.132.478 0 .331.127.482.127.15.332.15.164 0 .274-.1.11-.101.14-.31zM20.045 47.034l.04.246q-.117.025-.21.025-.152 0-.236-.048-.084-.048-.118-.126-.034-.079-.034-.33v-.947h-.204v-.217h.204v-.408l.278-.167v.575h.28v.217h-.28v.963q0 .12.014.153.015.034.048.054.034.02.096.02.046 0 .122-.01zM20.32 45.332v-.321h.279v.32zm0 1.951v-1.646h.279v1.646zM20.92 46.46q0-.457.254-.677.212-.183.518-.183.34 0 .555.223.215.222.215.614 0 .318-.096.5-.094.182-.277.283-.182.1-.397.1-.346 0-.56-.221-.212-.222-.212-.639zm.287 0q0 .316.138.475.137.156.347.156.208 0 .346-.158.137-.158.137-.482 0-.306-.139-.462-.138-.158-.344-.158-.21 0-.347.156-.138.157-.138.473zM22.79 47.283v-1.646h.25v.234q.182-.271.525-.271.148 0 .272.054.126.053.188.14.062.086.087.206.015.077.015.271v1.012h-.279v-1.001q0-.17-.032-.254-.033-.086-.117-.135-.082-.051-.193-.051-.179 0-.309.113-.129.113-.129.43v.898z" style="text-align:center;text-anchor:middle"/></g><g aria-label="Union" style="font-size:3.175px;line-height:1.25;font-family:Arial;-inkscape-font-specification:'Arial, Normal';stroke-width:.264583"><path d="M60.647 45.01h.301v1.314q0 .342-.077.544-.078.201-.281.329-.202.125-.53.125-.32 0-.523-.11t-.29-.318q-.086-.209-.086-.57V45.01h.3v1.311q0 .296.055.437.055.14.189.216.135.076.328.076.332 0 .473-.15.141-.15.141-.579zM61.413 47.283v-1.646h.251v.234q.182-.271.524-.271.15 0 .273.054.126.053.188.14.062.086.087.206.015.077.015.271v1.012h-.279v-1.001q0-.17-.032-.254-.033-.086-.117-.135-.082-.051-.194-.051-.178 0-.308.113-.129.113-.129.43v.898zM63.18 45.332v-.321h.28v.32zm0 1.951v-1.646h.28v1.646zM63.78 46.46q0-.457.255-.677.212-.183.518-.183.34 0 .555.223.215.222.215.614 0 .318-.096.5-.095.182-.278.283-.18.1-.396.1-.346 0-.56-.221-.212-.222-.212-.639zm.287 0q0 .316.138.475.138.156.348.156.207 0 .345-.158.138-.158.138-.482 0-.306-.14-.462-.137-.158-.343-.158-.21 0-.348.156-.138.157-.138.473zM65.65 47.283v-1.646h.251v.234q.182-.271.524-.271.15 0 .273.054.126.053.188.14.062.086.087.206.015.077.015.271v1.012h-.279v-1.001q0-.17-.033-.254-.032-.086-.116-.135-.082-.051-.194-.051-.178 0-.308.113-.129.113-.129.43v.898z" style="text-align:center;text-anchor:middle"/></g><g aria-label="Symmetrical Difference" style="font-size:3.175px;line-height:1.25;font-family:Arial;-inkscape-font-specification:'Arial, Normal';stroke-width:.264583"><path d="m93.741 46.553.284-.025q.02.17.093.281.074.109.23.177.155.066.348.066.172 0 .304-.05.132-.052.196-.14.065-.09.065-.196 0-.107-.062-.186-.062-.08-.205-.135-.092-.035-.405-.11-.313-.076-.438-.142-.163-.086-.244-.211-.079-.127-.079-.284 0-.172.098-.32.097-.151.285-.229.188-.077.417-.077.253 0 .445.082.194.08.298.239.104.158.111.358l-.288.022q-.023-.216-.158-.326-.133-.11-.395-.11-.273 0-.399.1-.124.1-.124.241 0 .123.088.202.087.079.453.162.368.083.504.145.198.091.293.232.095.14.095.323 0 .18-.104.342-.104.16-.3.25-.193.088-.437.088-.308 0-.518-.09-.207-.09-.327-.27-.117-.18-.124-.409zM95.913 47.917l-.03-.262q.09.025.159.025.093 0 .149-.03.056-.032.091-.088.027-.041.086-.207.007-.024.024-.069l-.624-1.649h.3l.343.953q.067.182.12.382.047-.192.114-.375l.352-.96h.279l-.626 1.674q-.101.272-.157.374-.074.138-.17.201-.097.066-.23.066-.08 0-.18-.035zM97.513 47.283v-1.646h.25v.231q.077-.121.206-.194.129-.074.293-.074.183 0 .3.076.117.076.165.212.195-.288.509-.288.245 0 .376.136.132.135.132.417v1.13h-.277v-1.037q0-.167-.028-.24-.027-.074-.098-.12-.071-.044-.167-.044-.174 0-.289.116-.115.115-.115.369v.956h-.279v-1.07q0-.185-.068-.278-.068-.093-.223-.093-.118 0-.219.062-.099.062-.144.181-.045.12-.045.344v.854zM100.158 47.283v-1.646h.25v.231q.077-.121.206-.194.128-.074.293-.074.183 0 .299.076.118.076.166.212.195-.288.508-.288.245 0 .377.136.132.135.132.417v1.13h-.278v-1.037q0-.167-.028-.24-.026-.074-.097-.12-.072-.044-.168-.044-.173 0-.288.116-.115.115-.115.369v.956h-.279v-1.07q0-.185-.068-.278-.068-.093-.223-.093-.118 0-.219.062-.099.062-.144.181-.045.12-.045.344v.854zM103.93 46.753l.288.036q-.068.253-.252.392-.185.14-.472.14-.361 0-.573-.222-.211-.223-.211-.625 0-.415.214-.645.214-.23.555-.23.33 0 .54.226.209.224.209.632l-.002.074h-1.228q.015.272.153.416.138.144.344.144.154 0 .262-.08.109-.081.172-.258zm-.916-.451h.919q-.019-.208-.105-.312-.134-.16-.346-.16-.192 0-.324.128-.13.129-.144.344zM105.178 47.034l.04.246q-.118.025-.21.025-.153 0-.236-.048-.084-.048-.118-.126-.034-.079-.034-.33v-.947h-.205v-.217h.205v-.408l.277-.167v.575h.28v.217h-.28v.963q0 .12.014.153.016.034.048.054.034.02.096.02.047 0 .123-.01zM105.448 47.283v-1.646h.25v.25q.097-.176.177-.231.083-.056.18-.056.141 0 .287.09l-.096.259q-.102-.06-.205-.06-.091 0-.164.055-.073.054-.104.152-.046.149-.046.325v.862zM106.51 45.332v-.321h.279v.32zm0 1.951v-1.646h.279v1.646zM108.288 46.68l.274.036q-.045.284-.23.445-.185.16-.455.16-.338 0-.544-.22-.205-.222-.205-.635 0-.266.088-.466.089-.2.269-.3.181-.1.393-.1.269 0 .44.136.17.135.218.385l-.272.042q-.038-.166-.137-.25-.098-.084-.238-.084-.21 0-.342.152-.132.15-.132.478 0 .331.127.482.127.15.332.15.164 0 .274-.1.11-.101.14-.31zM109.875 47.08q-.155.132-.299.186-.143.055-.307.055-.271 0-.417-.132-.146-.134-.146-.34 0-.12.055-.22t.144-.161q.09-.06.201-.092.083-.021.248-.041.338-.04.498-.097l.002-.072q0-.17-.08-.24-.106-.095-.317-.095-.197 0-.291.07-.093.068-.138.243l-.273-.037q.037-.175.122-.282.086-.109.247-.166.161-.06.373-.06.211 0 .343.05.132.05.194.126.062.074.087.19.014.07.014.256v.372q0 .39.017.493.018.103.07.197h-.29q-.044-.086-.056-.203zm-.023-.623q-.152.062-.456.105-.172.025-.243.056-.072.031-.11.092-.04.059-.04.132 0 .111.085.186.085.074.248.074.16 0 .286-.07.126-.071.185-.194.045-.094.045-.279zM110.56 47.283v-2.272h.28v2.272zM112.19 47.283v-2.272h.783q.265 0 .404.032.196.045.334.163.18.152.268.39.09.235.09.539 0 .259-.06.459-.061.2-.156.331-.094.13-.208.206-.111.075-.27.114-.159.038-.365.038zm.3-.268h.486q.225 0 .352-.042.128-.042.204-.118.107-.106.166-.286.06-.182.06-.439 0-.357-.117-.547-.116-.193-.284-.258-.12-.046-.389-.046h-.477zM114.449 45.332v-.321h.279v.32zm0 1.951v-1.646h.279v1.646zM115.22 47.283v-1.429h-.247v-.217h.246v-.175q0-.166.03-.247.04-.108.14-.175.103-.068.286-.068.118 0 .26.028l-.042.243q-.086-.015-.164-.015-.127 0-.18.054-.052.054-.052.203v.152h.32v.217h-.32v1.43z" style="text-align:center;text-anchor:middle"/><path d="M116.044 47.283v-1.429h-.247v-.217h.247v-.175q0-.166.03-.247.04-.108.14-.175.103-.068.286-.068.117 0 .26.028l-.042.243q-.087-.015-.164-.015-.127 0-.18.054-.053.054-.053.203v.152h.321v.217h-.32v1.43zM117.986 46.753l.289.036q-.068.253-.253.392-.184.14-.471.14-.362 0-.574-.222-.21-.223-.21-.625 0-.415.213-.645.214-.23.555-.23.33 0 .54.226.209.224.209.632l-.002.074h-1.228q.016.272.154.416.138.144.344.144.153 0 .262-.08.108-.081.172-.258zm-.916-.451h.92q-.02-.208-.106-.312-.133-.16-.346-.16-.192 0-.324.128-.13.129-.144.344zM118.622 47.283v-1.646h.251v.25q.096-.176.177-.231.082-.056.18-.056.14 0 .286.09l-.096.259q-.102-.06-.204-.06-.092 0-.165.055-.072.054-.103.152-.047.149-.047.325v.862zM120.81 46.753l.288.036q-.068.253-.253.392-.184.14-.471.14-.361 0-.574-.222-.21-.223-.21-.625 0-.415.213-.645.214-.23.555-.23.33 0 .54.226.21.224.21.632 0 .025-.003.074h-1.228q.016.272.154.416.138.144.344.144.153 0 .262-.08.108-.081.172-.258zm-.917-.451h.92q-.02-.208-.106-.312-.133-.16-.346-.16-.192 0-.324.128-.13.129-.144.344zM121.448 47.283v-1.646h.251v.234q.182-.271.524-.271.15 0 .273.054.126.053.188.14.062.086.087.206.015.077.015.271v1.012h-.279v-1.001q0-.17-.033-.254-.032-.086-.116-.135-.082-.051-.194-.051-.178 0-.308.113-.129.113-.129.43v.898zM124.288 46.68l.275.036q-.045.284-.231.445-.185.16-.455.16-.337 0-.544-.22-.204-.222-.204-.635 0-.266.088-.466t.268-.3q.182-.1.394-.1.268 0 .439.136.17.135.218.385l-.27.042q-.04-.166-.139-.25-.098-.084-.237-.084-.21 0-.343.152-.131.15-.131.478 0 .331.127.482.127.15.331.15.165 0 .275-.1.11-.101.14-.31zM125.929 46.753l.288.036q-.068.253-.253.392-.184.14-.471.14-.361 0-.574-.222-.21-.223-.21-.625 0-.415.213-.645.214-.23.555-.23.33 0 .54.226.21.224.21.632 0 .025-.003.074h-1.228q.016.272.154.416.138.144.344.144.153 0 .262-.08.108-.081.172-.258zm-.917-.451h.92q-.019-.208-.106-.312-.133-.16-.346-.16-.192 0-.324.128-.13.129-.144.344z" style="text-align:center;text-anchor:middle"/></g><g aria-label="Difference" style="font-size:3.175px;line-height:1.25;font-family:Arial;-inkscape-font-specification:'Arial, Normal';stroke-width:.264583"><path d="M149.936 47.283v-2.272h.783q.265 0 .405.032.195.045.333.163.18.152.268.39.09.235.09.539 0 .259-.06.459t-.155.331q-.095.13-.208.206-.112.075-.271.114-.159.038-.365.038zm.301-.268h.485q.225 0 .352-.042.129-.042.205-.118.107-.106.166-.286.06-.182.06-.439 0-.357-.118-.547-.116-.193-.283-.258-.121-.046-.39-.046h-.477zM152.195 45.332v-.321h.279v.32zm0 1.951v-1.646h.279v1.646zM152.965 47.283v-1.429h-.246v-.217h.246v-.175q0-.166.03-.247.04-.108.141-.175.102-.068.285-.068.118 0 .26.028l-.041.243q-.087-.015-.164-.015-.128 0-.18.054-.053.054-.053.203v.152h.32v.217h-.32v1.43z" style="text-align:center;text-anchor:middle"/><path d="M153.79 47.283v-1.429h-.246v-.217h.246v-.175q0-.166.03-.247.04-.108.14-.175.103-.068.286-.068.118 0 .26.028l-.042.243q-.086-.015-.164-.015-.127 0-.18.054-.052.054-.052.203v.152h.32v.217h-.32v1.43zM155.733 46.753l.288.036q-.068.253-.253.392-.184.14-.47.14-.362 0-.575-.222-.21-.223-.21-.625 0-.415.214-.645.214-.23.555-.23.33 0 .54.226.208.224.208.632l-.002.074h-1.227q.015.272.153.416.138.144.344.144.154 0 .262-.08.109-.081.172-.258zm-.916-.451h.919q-.019-.208-.106-.312-.133-.16-.345-.16-.193 0-.324.128-.13.129-.144.344zM156.368 47.283v-1.646h.252v.25q.096-.176.176-.231.082-.056.18-.056.141 0 .287.09l-.096.259q-.103-.06-.205-.06-.091 0-.164.055-.073.054-.104.152-.047.149-.047.325v.862zM158.556 46.753l.288.036q-.068.253-.253.392-.184.14-.47.14-.362 0-.574-.222-.211-.223-.211-.625 0-.415.214-.645.214-.23.555-.23.33 0 .54.226.208.224.208.632l-.002.074h-1.227q.015.272.153.416.138.144.344.144.154 0 .262-.08.109-.081.172-.258zm-.916-.451h.919q-.019-.208-.105-.312-.134-.16-.346-.16-.192 0-.324.128-.13.129-.144.344zM159.195 47.283v-1.646h.25v.234q.182-.271.525-.271.149 0 .273.054.125.053.187.14.062.086.087.206.015.077.015.271v1.012h-.279v-1.001q0-.17-.032-.254-.033-.086-.117-.135-.082-.051-.193-.051-.179 0-.309.113-.128.113-.128.43v.898zM162.035 46.68l.274.036q-.045.284-.23.445-.185.16-.455.16-.338 0-.544-.22-.205-.222-.205-.635 0-.266.088-.466.089-.2.269-.3.181-.1.393-.1.269 0 .44.136.17.135.218.385l-.272.042q-.038-.166-.138-.25-.097-.084-.237-.084-.21 0-.342.152-.132.15-.132.478 0 .331.127.482.127.15.332.15.164 0 .274-.1.11-.101.14-.31zM163.675 46.753l.288.036q-.068.253-.252.392-.185.14-.472.14-.361 0-.573-.222-.211-.223-.211-.625 0-.415.214-.645.214-.23.555-.23.33 0 .54.226.209.224.209.632l-.002.074h-1.228q.015.272.153.416.138.144.344.144.154 0 .262-.08.109-.081.172-.258zm-.916-.451h.919q-.019-.208-.105-.312-.134-.16-.346-.16-.192 0-.324.128-.13.129-.144.344z" style="text-align:center;text-anchor:middle"/></g></svg>
