<svg xmlns="http://www.w3.org/2000/svg" xmlns:xlink="http://www.w3.org/1999/xlink" width="256" height="256"><defs><linearGradient id="L"><stop offset="0" style="stop-color:#000;stop-opacity:1"/><stop offset="1" style="stop-color:#000;stop-opacity:0"/></linearGradient><linearGradient id="s"><stop offset="0" style="stop-color:#fff;stop-opacity:1"/><stop offset=".5" style="stop-color:#fff;stop-opacity:.93050194"/><stop offset="1" style="stop-color:#fff;stop-opacity:0"/></linearGradient><linearGradient id="v"><stop offset="0" style="stop-color:#fff;stop-opacity:1"/><stop offset="1" style="stop-color:#fff;stop-opacity:0"/></linearGradient><linearGradient id="h"><stop offset="0" style="stop-color:#f9e295;stop-opacity:1"/><stop offset=".125" style="stop-color:#f7dd84;stop-opacity:1"/><stop offset=".206" style="stop-color:#fff;stop-opacity:1"/><stop offset=".301" style="stop-color:#f4ce51;stop-opacity:1"/><stop offset=".341" style="stop-color:#f9e7aa;stop-opacity:1"/><stop offset="1" style="stop-color:#efbb0e;stop-opacity:1"/></linearGradient><linearGradient id="e"><stop offset="0" style="stop-color:#2d3335;stop-opacity:1"/><stop offset=".5" style="stop-color:#4c464a;stop-opacity:1"/><stop offset="1" style="stop-color:#384042;stop-opacity:1"/></linearGradient><linearGradient id="d"><stop offset="0" style="stop-color:#d0e9f2;stop-opacity:0"/><stop offset=".839" style="stop-color:#d0e9f2;stop-opacity:0"/><stop offset=".943" style="stop-color:#d0e9f2;stop-opacity:.28185329"/><stop offset="1" style="stop-color:#d0e9f2;stop-opacity:1"/></linearGradient><linearGradient id="c"><stop offset="0" style="stop-color:#000;stop-opacity:1"/><stop offset="1" style="stop-color:#000;stop-opacity:0"/></linearGradient><linearGradient xlink:href="#a" id="ab" x1="94.25" x2="9" y1="-94.672" y2="-179.969" gradientUnits="userSpaceOnUse"/><linearGradient id="a"><stop offset="0" style="stop-color:#000;stop-opacity:1"/><stop offset="1" style="stop-color:#000;stop-opacity:0"/></linearGradient><linearGradient xlink:href="#a" id="ac" x1="50.75" x2="35.75" y1="-114.438" y2="-30.438" gradientUnits="userSpaceOnUse"/><linearGradient xlink:href="#a" id="ad" x1="77.625" x2="115.25" y1="-163.125" y2="-74.625" gradientUnits="userSpaceOnUse"/><linearGradient xlink:href="#a" id="ae" x1="56.5" x2="125.719" y1="-50.438" y2="7.063" gradientUnits="userSpaceOnUse"/><linearGradient xlink:href="#a" id="af" x1="35" x2="180.75" y1="-163.297" y2="-146.797" gradientUnits="userSpaceOnUse"/><linearGradient xlink:href="#a" id="ag" x1="57" x2="179" y1="-141.109" y2="-41.609" gradientUnits="userSpaceOnUse"/><linearGradient xlink:href="#a" id="ah" x1="156" x2="208.25" y1="-26.5" y2="39.75" gradientUnits="userSpaceOnUse"/><linearGradient xlink:href="#a" id="ai" x1="142.75" x2="235" y1="-169.297" y2="-77.297" gradientUnits="userSpaceOnUse"/><linearGradient xlink:href="#b" id="T" x1="214.25" x2="166.5" y1="-161.359" y2="-113.719" gradientUnits="userSpaceOnUse"/><linearGradient id="b"><stop offset="0" style="stop-color:#fff;stop-opacity:1"/><stop offset="1" style="stop-color:#fff;stop-opacity:0"/></linearGradient><linearGradient xlink:href="#b" id="U" x1="53.25" x2="57.656" y1="-126.5" y2="-62.469" gradientUnits="userSpaceOnUse"/><linearGradient xlink:href="#b" id="V" x1="39.5" x2="75.719" y1="6.625" y2="-17.125" gradientUnits="userSpaceOnUse"/><linearGradient xlink:href="#b" id="W" x1="102" x2="85.313" y1="-162.344" y2="-121.438" gradientUnits="userSpaceOnUse"/><linearGradient xlink:href="#b" id="X" x1="117.75" x2="63.5" y1="-78.094" y2="-14.75" gradientUnits="userSpaceOnUse"/><linearGradient xlink:href="#b" id="Y" x1="180.687" x2="133.937" y1="-125.125" y2="-60.75" gradientUnits="userSpaceOnUse"/><linearGradient xlink:href="#b" id="Z" x1="170.75" x2="130.219" y1="-23.5" y2="33.375" gradientUnits="userSpaceOnUse"/><linearGradient xlink:href="#b" id="aa" x1="213.5" x2="181.75" y1="-76" y2="-5.656" gradientUnits="userSpaceOnUse"/><linearGradient xlink:href="#c" id="S" x1="210.172" x2="9" y1="72.064" y2="-213.253" gradientTransform="translate(0 -10)" gradientUnits="userSpaceOnUse"/><linearGradient xlink:href="#e" id="aJ" x1="123" x2="133" y1="150.375" y2="150.375" gradientTransform="matrix(-1 0 0 1 46 0)" gradientUnits="userSpaceOnUse"/><linearGradient xlink:href="#e" id="aI" x1="128" x2="130.875" y1="134.359" y2="143.359" gradientTransform="translate(-210)" gradientUnits="userSpaceOnUse"/><linearGradient id="f"><stop offset="0" style="stop-color:#2d3335;stop-opacity:1"/><stop offset=".5" style="stop-color:#4c464a;stop-opacity:1"/><stop offset="1" style="stop-color:#384042;stop-opacity:1"/></linearGradient><linearGradient xlink:href="#f" id="aL" x1="123" x2="133" y1="150.375" y2="150.375" gradientTransform="matrix(-2 0 0 1.76991 174 -86.65)" gradientUnits="userSpaceOnUse"/><linearGradient id="g"><stop offset="0" style="stop-color:#2d3335;stop-opacity:1"/><stop offset=".5" style="stop-color:#4c464a;stop-opacity:1"/><stop offset="1" style="stop-color:#384042;stop-opacity:1"/></linearGradient><linearGradient xlink:href="#h" id="aK" x1="120" x2="136" y1="186.5" y2="186.5" gradientTransform="translate(-210)" gradientUnits="userSpaceOnUse"/><linearGradient id="i"><stop offset="0" style="stop-color:#f9e295;stop-opacity:1"/><stop offset=".125" style="stop-color:#f7dd84;stop-opacity:1"/><stop offset=".206" style="stop-color:#fff;stop-opacity:1"/><stop offset=".301" style="stop-color:#f4ce51;stop-opacity:1"/><stop offset=".341" style="stop-color:#f9e7aa;stop-opacity:1"/><stop offset="1" style="stop-color:#efbb0e;stop-opacity:1"/></linearGradient><linearGradient xlink:href="#i" id="aM" x1="120" x2="136" y1="186.5" y2="186.5" gradientTransform="translate(-210 67)" gradientUnits="userSpaceOnUse"/><linearGradient id="j"><stop offset="0" style="stop-color:#f9e295;stop-opacity:1"/><stop offset=".125" style="stop-color:#f7dd84;stop-opacity:1"/><stop offset=".206" style="stop-color:#fff;stop-opacity:1"/><stop offset=".301" style="stop-color:#f4ce51;stop-opacity:1"/><stop offset=".341" style="stop-color:#f9e7aa;stop-opacity:1"/><stop offset="1" style="stop-color:#efbb0e;stop-opacity:1"/></linearGradient><linearGradient id="k"><stop offset="0" style="stop-color:#f9e295;stop-opacity:1"/><stop offset=".125" style="stop-color:#f7dd84;stop-opacity:1"/><stop offset=".206" style="stop-color:#fff;stop-opacity:1"/><stop offset=".301" style="stop-color:#f4ce51;stop-opacity:1"/><stop offset=".341" style="stop-color:#f9e7aa;stop-opacity:1"/><stop offset="1" style="stop-color:#efbb0e;stop-opacity:1"/></linearGradient><linearGradient id="l"><stop offset="0" style="stop-color:#f9e295;stop-opacity:1"/><stop offset=".125" style="stop-color:#f7dd84;stop-opacity:1"/><stop offset=".206" style="stop-color:#fff;stop-opacity:1"/><stop offset=".301" style="stop-color:#f4ce51;stop-opacity:1"/><stop offset=".341" style="stop-color:#f9e7aa;stop-opacity:1"/><stop offset="1" style="stop-color:#efbb0e;stop-opacity:1"/></linearGradient><linearGradient id="q"><stop offset="0" style="stop-color:#d0e9f2;stop-opacity:0"/><stop offset=".839" style="stop-color:#d0e9f2;stop-opacity:0"/><stop offset=".943" style="stop-color:#d0e9f2;stop-opacity:.28185329"/><stop offset="1" style="stop-color:#d0e9f2;stop-opacity:1"/></linearGradient><linearGradient id="p"><stop offset="0" style="stop-color:#2d3335;stop-opacity:1"/><stop offset=".5" style="stop-color:#4c464a;stop-opacity:1"/><stop offset="1" style="stop-color:#384042;stop-opacity:1"/></linearGradient><linearGradient id="o"><stop offset="0" style="stop-color:#f9e295;stop-opacity:1"/><stop offset=".125" style="stop-color:#f7dd84;stop-opacity:1"/><stop offset=".206" style="stop-color:#fff;stop-opacity:1"/><stop offset=".301" style="stop-color:#f4ce51;stop-opacity:1"/><stop offset=".341" style="stop-color:#f9e7aa;stop-opacity:1"/><stop offset="1" style="stop-color:#efbb0e;stop-opacity:1"/></linearGradient><linearGradient id="n"><stop offset="0" style="stop-color:#2d3335;stop-opacity:1"/><stop offset=".5" style="stop-color:#4c464a;stop-opacity:1"/><stop offset="1" style="stop-color:#384042;stop-opacity:1"/></linearGradient><linearGradient id="m"><stop offset="0" style="stop-color:#f9e295;stop-opacity:1"/><stop offset=".125" style="stop-color:#f7dd84;stop-opacity:1"/><stop offset=".206" style="stop-color:#fff;stop-opacity:1"/><stop offset=".301" style="stop-color:#f4ce51;stop-opacity:1"/><stop offset=".341" style="stop-color:#f9e7aa;stop-opacity:1"/><stop offset="1" style="stop-color:#efbb0e;stop-opacity:1"/></linearGradient><linearGradient xlink:href="#m" id="aG" x1="120" x2="136" y1="186.5" y2="186.5" gradientTransform="rotate(45 104.976 51.259) scale(1.39197)" gradientUnits="userSpaceOnUse"/><linearGradient xlink:href="#n" id="aR" x1="123" x2="133" y1="150.375" y2="150.375" gradientTransform="rotate(-135 332.786 -39.719) scale(2.78394 -2.46367)" gradientUnits="userSpaceOnUse"/><linearGradient xlink:href="#o" id="aQ" x1="120" x2="136" y1="186.5" y2="186.5" gradientTransform="rotate(45 217.553 97.89) scale(1.39197)" gradientUnits="userSpaceOnUse"/><linearGradient xlink:href="#p" id="aP" x1="123" x2="133" y1="150.375" y2="150.375" gradientTransform="scale(-1.39197 1.39197) rotate(-45 -28.291 379.344)" gradientUnits="userSpaceOnUse"/><linearGradient xlink:href="#p" id="aO" x1="128" x2="130.875" y1="134.359" y2="143.359" gradientTransform="rotate(45 217.553 97.89) scale(1.39197)" gradientUnits="userSpaceOnUse"/><linearGradient id="r"><stop offset="0" style="stop-color:#2d3335;stop-opacity:1"/><stop offset=".5" style="stop-color:#4c464a;stop-opacity:1"/><stop offset="1" style="stop-color:#384042;stop-opacity:1"/></linearGradient><linearGradient xlink:href="#c" id="aS" x1="108.003" x2="133" y1="167.727" y2="150.375" gradientTransform="rotate(-135 332.786 -39.719) scale(2.78394 -2.46367)" gradientUnits="userSpaceOnUse"/><linearGradient id="t"><stop offset="0" style="stop-color:#fff;stop-opacity:1"/><stop offset="1" style="stop-color:#fff;stop-opacity:0"/></linearGradient><linearGradient id="u"><stop offset="0" style="stop-color:#d0e9f2;stop-opacity:0"/><stop offset=".839" style="stop-color:#d0e9f2;stop-opacity:0"/><stop offset=".943" style="stop-color:#d0e9f2;stop-opacity:.28185329"/><stop offset="1" style="stop-color:#d0e9f2;stop-opacity:1"/></linearGradient><linearGradient xlink:href="#v" id="aT" x1="126.643" x2="179.961" y1="29.815" y2="137.196" gradientTransform="translate(0 -10)" gradientUnits="userSpaceOnUse"/><linearGradient id="w"><stop offset="0" style="stop-color:#fff;stop-opacity:1"/><stop offset="1" style="stop-color:#fff;stop-opacity:0"/></linearGradient><linearGradient xlink:href="#w" id="aW" x1="126.643" x2="179.961" y1="29.815" y2="137.196" gradientTransform="matrix(-.50295 .1984 .1972 -.43254 276.156 123.417)" gradientUnits="userSpaceOnUse"/><linearGradient id="x"><stop offset="0" style="stop-color:#fff;stop-opacity:1"/><stop offset="1" style="stop-color:#fff;stop-opacity:0"/></linearGradient><linearGradient id="y"><stop offset="0" style="stop-color:#fff;stop-opacity:1"/><stop offset="1" style="stop-color:#fff;stop-opacity:0"/></linearGradient><linearGradient id="z"><stop offset="0" style="stop-color:#fff;stop-opacity:1"/><stop offset="1" style="stop-color:#fff;stop-opacity:0"/></linearGradient><linearGradient id="A"><stop offset="0" style="stop-color:#fff;stop-opacity:1"/><stop offset=".5" style="stop-color:#fff;stop-opacity:.93050194"/><stop offset="1" style="stop-color:#fff;stop-opacity:0"/></linearGradient><linearGradient id="B"><stop offset="0" style="stop-color:#fff;stop-opacity:1"/><stop offset="1" style="stop-color:#fff;stop-opacity:0"/></linearGradient><linearGradient id="C"><stop offset="0" style="stop-color:#000;stop-opacity:1"/><stop offset="1" style="stop-color:#000;stop-opacity:0"/></linearGradient><linearGradient id="D"><stop offset="0" style="stop-color:#000;stop-opacity:1"/><stop offset="1" style="stop-color:#000;stop-opacity:0"/></linearGradient><linearGradient id="E"><stop offset="0" style="stop-color:#000;stop-opacity:1"/><stop offset="1" style="stop-color:#000;stop-opacity:0"/></linearGradient><linearGradient xlink:href="#F" id="an" x1="210.172" x2="9" y1="72.064" y2="-213.253" gradientTransform="translate(0 192)" gradientUnits="userSpaceOnUse"/><linearGradient id="F"><stop offset="0" style="stop-color:#000;stop-opacity:1"/><stop offset="1" style="stop-color:#000;stop-opacity:0"/></linearGradient><linearGradient xlink:href="#G" id="ao" x1="214.25" x2="166.5" y1="-161.359" y2="-113.719" gradientUnits="userSpaceOnUse"/><linearGradient id="G"><stop offset="0" style="stop-color:#fff;stop-opacity:1"/><stop offset="1" style="stop-color:#fff;stop-opacity:0"/></linearGradient><linearGradient xlink:href="#G" id="ap" x1="53.25" x2="57.656" y1="-126.5" y2="-62.469" gradientUnits="userSpaceOnUse"/><linearGradient xlink:href="#G" id="aq" x1="39.5" x2="75.719" y1="6.625" y2="-17.125" gradientUnits="userSpaceOnUse"/><linearGradient xlink:href="#G" id="ar" x1="102" x2="85.313" y1="-162.344" y2="-121.438" gradientUnits="userSpaceOnUse"/><linearGradient xlink:href="#G" id="as" x1="117.75" x2="63.5" y1="-78.094" y2="-14.75" gradientUnits="userSpaceOnUse"/><linearGradient xlink:href="#G" id="at" x1="180.687" x2="133.937" y1="-125.125" y2="-60.75" gradientUnits="userSpaceOnUse"/><linearGradient xlink:href="#G" id="au" x1="170.75" x2="130.219" y1="-23.5" y2="33.375" gradientUnits="userSpaceOnUse"/><linearGradient xlink:href="#G" id="av" x1="213.5" x2="181.75" y1="-76" y2="-5.656" gradientUnits="userSpaceOnUse"/><linearGradient xlink:href="#H" id="aw" x1="94.25" x2="9" y1="-94.672" y2="-179.969" gradientUnits="userSpaceOnUse"/><linearGradient id="H"><stop offset="0" style="stop-color:#000;stop-opacity:1"/><stop offset="1" style="stop-color:#000;stop-opacity:0"/></linearGradient><linearGradient xlink:href="#H" id="ax" x1="50.75" x2="35.75" y1="-114.438" y2="-30.438" gradientUnits="userSpaceOnUse"/><linearGradient xlink:href="#H" id="ay" x1="77.625" x2="115.25" y1="-163.125" y2="-74.625" gradientUnits="userSpaceOnUse"/><linearGradient xlink:href="#H" id="az" x1="56.5" x2="125.719" y1="-50.438" y2="7.063" gradientUnits="userSpaceOnUse"/><linearGradient xlink:href="#H" id="aA" x1="35" x2="180.75" y1="-163.297" y2="-146.797" gradientUnits="userSpaceOnUse"/><linearGradient xlink:href="#H" id="aB" x1="57" x2="179" y1="-141.109" y2="-41.609" gradientUnits="userSpaceOnUse"/><linearGradient xlink:href="#H" id="aC" x1="156" x2="208.25" y1="-26.5" y2="39.75" gradientUnits="userSpaceOnUse"/><linearGradient xlink:href="#H" id="aD" x1="142.75" x2="235" y1="-169.297" y2="-77.297" gradientUnits="userSpaceOnUse"/><linearGradient id="I"><stop offset="0" style="stop-color:#d0e9f2;stop-opacity:0"/><stop offset=".839" style="stop-color:#d0e9f2;stop-opacity:0"/><stop offset=".943" style="stop-color:#d0e9f2;stop-opacity:.28185329"/><stop offset="1" style="stop-color:#d0e9f2;stop-opacity:1"/></linearGradient><linearGradient id="K"><stop offset="0" style="stop-color:#000;stop-opacity:1"/><stop offset="1" style="stop-color:#000;stop-opacity:0"/></linearGradient><linearGradient xlink:href="#L" id="O" x1="122" x2="122" y1="245.448" y2="4.302" gradientUnits="userSpaceOnUse"/><linearGradient xlink:href="#E" id="M" x1="210.172" x2="9" y1="72.064" y2="-213.253" gradientTransform="matrix(1 -.08088 0 1 0 203.056)" gradientUnits="userSpaceOnUse"/><clipPath id="Q" clipPathUnits="userSpaceOnUse"><path d="M9 12.25s7.5 13 11.75 27.75S27 65.5 27 65.5s-5.5 12.75-8.25 24.75-5.75 23-5.75 23 5.75 16 9.25 30S26 167.5 26 167.5s-4 10.25-7.5 24.25-5 30.75-5 30.75 9.25-2 28.5 1.25 32.25 6 32.25 6 12.75-2.75 24-6.25 16.25-6.5 16.25-6.5 5.5.5 22.5 6.25 29.25 8.5 29.25 8.5 13-2.75 26-5.75 26.5-8 26.5-8-.75-5 4.25-24.5 8.75-28 8.75-28-.5-4.5-3.75-19.75S218 116 218 116s1.75-10.5 6.75-23.75S235 65.5 235 65.5s-4.75-15.25-7.5-29.75S219.25 10 219.25 10 195 19 187.5 20.5s-21 5.25-21 5.25-9.75-4.25-22-8.5-29.75-5.5-29.75-5.5-3.25 3.5-22 8-27.5 5.75-27.5 5.75-18.5-9-31.5-11.5-24-2-24.75-1.75z" style="fill:#ceeeab;fill-opacity:1;stroke:none"/></clipPath><clipPath id="R" clipPathUnits="userSpaceOnUse"><path d="M9 12.25s7.5 13 11.75 27.75S27 65.5 27 65.5s-5.5 12.75-8.25 24.75-5.75 23-5.75 23 5.75 16 9.25 30S26 167.5 26 167.5s-4 10.25-7.5 24.25-5 30.75-5 30.75 9.25-2 28.5 1.25 32.25 6 32.25 6 12.75-2.75 24-6.25 16.25-6.5 16.25-6.5 5.5.5 22.5 6.25 29.25 8.5 29.25 8.5 13-2.75 26-5.75 26.5-8 26.5-8-.75-5 4.25-24.5 8.75-28 8.75-28-.5-4.5-3.75-19.75S218 116 218 116s1.75-10.5 6.75-23.75S235 65.5 235 65.5s-4.75-15.25-7.5-29.75S219.25 10 219.25 10 195 19 187.5 20.5s-21 5.25-21 5.25-9.75-4.25-22-8.5-29.75-5.5-29.75-5.5-3.25 3.5-22 8-27.5 5.75-27.5 5.75-18.5-9-31.5-11.5-24-2-24.75-1.75z" style="fill:#ceeeab;fill-opacity:1;stroke:none"/></clipPath><clipPath id="P" clipPathUnits="userSpaceOnUse"><path d="M9 12.25s7.5 13 11.75 27.75S27 65.5 27 65.5s-5.5 12.75-8.25 24.75-5.75 23-5.75 23 5.75 16 9.25 30S26 167.5 26 167.5s-4 10.25-7.5 24.25-5 30.75-5 30.75 9.25-2 28.5 1.25 32.25 6 32.25 6 12.75-2.75 24-6.25 16.25-6.5 16.25-6.5 5.5.5 22.5 6.25 29.25 8.5 29.25 8.5 13-2.75 26-5.75 26.5-8 26.5-8-.75-5 4.25-24.5 8.75-28 8.75-28-.5-4.5-3.75-19.75S218 116 218 116s1.75-10.5 6.75-23.75S235 65.5 235 65.5s-4.75-15.25-7.5-29.75S219.25 10 219.25 10 195 19 187.5 20.5s-21 5.25-21 5.25-9.75-4.25-22-8.5-29.75-5.5-29.75-5.5-3.25 3.5-22 8-27.5 5.75-27.5 5.75-18.5-9-31.5-11.5-24-2-24.75-1.75z" style="fill:#ceeeab;fill-opacity:1;stroke:none"/></clipPath><clipPath id="ak" clipPathUnits="userSpaceOnUse"><path d="M9 12.25s7.5 13 11.75 27.75S27 65.5 27 65.5s-5.5 12.75-8.25 24.75-5.75 23-5.75 23 5.75 16 9.25 30S26 167.5 26 167.5s-4 10.25-7.5 24.25-5 30.75-5 30.75 9.25-2 28.5 1.25 32.25 6 32.25 6 12.75-2.75 24-6.25 16.25-6.5 16.25-6.5 5.5.5 22.5 6.25 29.25 8.5 29.25 8.5 13-2.75 26-5.75 26.5-8 26.5-8-.75-5 4.25-24.5 8.75-28 8.75-28-.5-4.5-3.75-19.75S218 116 218 116s1.75-10.5 6.75-23.75S235 65.5 235 65.5s-4.75-15.25-7.5-29.75S219.25 10 219.25 10 195 19 187.5 20.5s-21 5.25-21 5.25-9.75-4.25-22-8.5-29.75-5.5-29.75-5.5-3.25 3.5-22 8-27.5 5.75-27.5 5.75-18.5-9-31.5-11.5-24-2-24.75-1.75z" style="fill:#ceeeab;fill-opacity:1;stroke:none"/></clipPath><clipPath id="al" clipPathUnits="userSpaceOnUse"><path d="M9 12.25s7.5 13 11.75 27.75S27 65.5 27 65.5s-5.5 12.75-8.25 24.75-5.75 23-5.75 23 5.75 16 9.25 30S26 167.5 26 167.5s-4 10.25-7.5 24.25-5 30.75-5 30.75 9.25-2 28.5 1.25 32.25 6 32.25 6 12.75-2.75 24-6.25 16.25-6.5 16.25-6.5 5.5.5 22.5 6.25 29.25 8.5 29.25 8.5 13-2.75 26-5.75 26.5-8 26.5-8-.75-5 4.25-24.5 8.75-28 8.75-28-.5-4.5-3.75-19.75S218 116 218 116s1.75-10.5 6.75-23.75S235 65.5 235 65.5s-4.75-15.25-7.5-29.75S219.25 10 219.25 10 195 19 187.5 20.5s-21 5.25-21 5.25-9.75-4.25-22-8.5-29.75-5.5-29.75-5.5-3.25 3.5-22 8-27.5 5.75-27.5 5.75-18.5-9-31.5-11.5-24-2-24.75-1.75z" style="fill:#ceeeab;fill-opacity:1;stroke:none"/></clipPath><clipPath id="am" clipPathUnits="userSpaceOnUse"><path d="M9 12.25s7.5 13 11.75 27.75S27 65.5 27 65.5s-5.5 12.75-8.25 24.75-5.75 23-5.75 23 5.75 16 9.25 30S26 167.5 26 167.5s-4 10.25-7.5 24.25-5 30.75-5 30.75 9.25-2 28.5 1.25 32.25 6 32.25 6 12.75-2.75 24-6.25 16.25-6.5 16.25-6.5 5.5.5 22.5 6.25 29.25 8.5 29.25 8.5 13-2.75 26-5.75 26.5-8 26.5-8-.75-5 4.25-24.5 8.75-28 8.75-28-.5-4.5-3.75-19.75S218 116 218 116s1.75-10.5 6.75-23.75S235 65.5 235 65.5s-4.75-15.25-7.5-29.75S219.25 10 219.25 10 195 19 187.5 20.5s-21 5.25-21 5.25-9.75-4.25-22-8.5-29.75-5.5-29.75-5.5-3.25 3.5-22 8-27.5 5.75-27.5 5.75-18.5-9-31.5-11.5-24-2-24.75-1.75z" style="fill:#ceeeab;fill-opacity:1;stroke:none"/></clipPath><clipPath id="aj" clipPathUnits="userSpaceOnUse"><path d="M123.623 141.062c20.832 20.243 54.607 19.289 75.439-2.132 20.832-21.42 20.832-55.196 0-75.44-20.832-20.242-54.607-19.288-75.44 2.133-20.831 21.42-20.831 55.196 0 75.439z" style="fill:url(#J);fill-opacity:1;stroke:none"/></clipPath><clipPath id="aF" clipPathUnits="userSpaceOnUse"><path d="M9 22.578s7.5 12.394 11.75 26.8S27 74.373 27 74.373s-5.5 13.194-8.25 25.417C16 112.012 13 123.255 13 123.255s5.75 15.535 9.25 29.252c3.5 13.717 3.75 23.946 3.75 23.946s-4 10.574-7.5 24.857-5 31.154-5 31.154 9.25-2.748 28.5-1.055c19.25 1.694 32.25 3.392 32.25 3.392s12.75-3.781 24-8.19c11.25-4.41 16.25-7.815 16.25-7.815s5.5.055 22.5 4.43 29.25 6.134 29.25 6.134 13-3.801 26-7.852c13-4.052 26.5-10.144 26.5-10.144s-.75-4.939 4.25-24.843c5-19.905 8.75-28.708 8.75-28.708s-.514-4.455-3.75-19.447c-1.75-8.108-2.25-4.068-2.25-4.068s16.264-26.155 16.5-40.334C242.5 78.944 235 57.55 235 57.55s-4.75-14.866-7.5-29.143c-2.75-14.278-8.25-25.083-8.25-25.083S195 14.285 187.5 16.392c-7.5 2.106-21 6.948-21 6.948s-9.75-3.461-22-6.72c-12.25-3.26-29.75-3.094-29.75-3.094s-3.25 3.762-22 9.779c-18.75 6.016-27.5 7.974-27.5 7.974s-18.5-7.504-31.5-8.952c-13-1.449-24-.06-24.75.251z" style="opacity:.03913042;fill:url(#M);fill-opacity:1;stroke:none"/></clipPath><radialGradient xlink:href="#d" id="aH" cx="128" cy="86" r="47" fx="128" fy="86" gradientTransform="matrix(1.02128 0 0 -1.02128 -212.723 173.83)" gradientUnits="userSpaceOnUse"/><radialGradient xlink:href="#q" id="aN" cx="128" cy="86" r="47" fx="128" fy="86" gradientTransform="scale(1.42159 -1.42159) rotate(-45 -51.091 19.464)" gradientUnits="userSpaceOnUse"/><radialGradient xlink:href="#s" id="aV" cx="159.613" cy="72.588" r="38.417" fx="159.613" fy="72.588" gradientTransform="matrix(1.21248 0 0 .83915 -46.348 24.528)" gradientUnits="userSpaceOnUse"/><radialGradient xlink:href="#t" id="aU" cx="159.613" cy="72.588" r="38.417" fx="159.613" fy="72.588" gradientTransform="matrix(1.21248 0 0 .83915 -45.92 25.814)" gradientUnits="userSpaceOnUse"/><radialGradient xlink:href="#I" id="J" cx="128" cy="86" r="47" fx="128" fy="86" gradientTransform="matrix(.80254 .77986 .80254 -.82522 -10.402 73.423)" gradientUnits="userSpaceOnUse"/><filter id="aE"><feGaussianBlur stdDeviation="4.287"/></filter><filter id="N"><feGaussianBlur stdDeviation="6.311"/></filter></defs><g style="display:inline"><path d="M174.281 35.875c-17.599 0-35.192 6.64-48.719 19.906-.167.164-.334.303-.5.469-22.055 22.056-26.208 55.251-12.468 81.5l-2.281 1.625a72.07 72.07 0 0 0 8.093 12.125l-13.312 13.344c-1.342-.586-2.789-1.034-4.563-1.375l-2.844 2.844c-1.109-.484-2.138-.816-3.062-.875L30.5 229.563c-.037 1.1.226 2.187.656 3.28l-.531.532-1.094 1.094c.716 3.738 2.01 6.823 5.469 10.281 3.458 3.458 6.42 4.63 10.281 5.469l1.094-1.094.719-.719c1.088.463 2.13.786 3.093.844l64.126-64.125c-.243-.975-.62-1.935-1.032-2.906l3-3c-.25-1.732-.676-3.198-1.312-4.594l13.281-13.281a72.07 72.07 0 0 0 12.125 8.094l1.625-2.282c26.249 13.74 59.444 9.587 81.5-12.469.166-.165.305-.332.469-.5 26.694-27.216 26.548-70.92-.469-97.937-13.59-13.59-31.407-20.375-49.219-20.375zm-.5 3.281c.105.002.208-.002.313 0a65.85 65.85 0 0 1 5.719.375l.28.032.282.03c.146.018.292.045.438.063.896.11 1.794.228 2.687.375.62.102 1.227.224 1.844.344.343.066.689.116 1.031.188.724.152 1.436.323 2.156.5.313.076.626.137.938.218.073.02.145.043.219.063.955.253 1.896.516 2.843.812.073.023.147.04.219.063.947.3 1.907.625 2.844.968.053.02.103.043.156.063.955.352 1.902.728 2.844 1.125.051.022.105.04.156.063.942.4 1.885.836 2.813 1.28.042.02.083.043.125.063.935.451 1.862.91 2.78 1.407.034.017.061.044.094.062a67.646 67.646 0 0 1 2.75 1.563c.033.019.062.043.094.062.908.55 1.8 1.122 2.688 1.719.549.369 1.084.77 1.625 1.156.364.26.733.512 1.093.781.019.014.044.018.063.032.878.655 1.74 1.36 2.594 2.062a70.63 70.63 0 0 1 5.062 4.594 70.62 70.62 0 0 1 4.563 5.031c.009.011.022.02.03.031a70.167 70.167 0 0 1 2.063 2.594c.283.379.539.773.813 1.156.37.517.74 1.038 1.094 1.563.016.024.046.038.062.062.598.89 1.167 1.778 1.719 2.688.02.032.043.061.062.094.546.902 1.063 1.829 1.563 2.75.018.032.045.06.062.093.498.921.954 1.844 1.407 2.781l.062.126c.446.93.88 1.868 1.281 2.812.022.051.041.105.063.156.395.936.774 1.895 1.125 2.844.02.053.043.104.062.156.348.949.666 1.885.97 2.844.022.072.04.147.062.219.294.94.56 1.894.812 2.844.02.073.043.145.063.218.08.31.142.627.218.938.177.72.348 1.432.5 2.156.072.342.121.688.188 1.031.12.617.242 1.225.344 1.844.146.893.265 1.791.375 2.688.018.145.045.291.062.437l.031.281.031.281a65.844 65.844 0 0 1 .376 5.72c.001.103-.002.208 0 .312a64.664 64.664 0 0 1-.187 5.938l-.032.374a64.675 64.675 0 0 1-.281 2.75 65.2 65.2 0 0 1-.438 2.875c-.014.083-.017.168-.031.25-.022.125-.04.25-.063.375a64.563 64.563 0 0 1-1.343 5.781c-.164.587-.35 1.168-.532 1.75-.175.565-.34 1.128-.53 1.688a63.25 63.25 0 0 1-.938 2.563c-.06.155-.126.313-.188.468-.045.113-.08.232-.125.344a62.899 62.899 0 0 1-2.312 5.031c-.08.158-.168.312-.25.469-.416.797-.83 1.59-1.282 2.375-.095.166-.184.335-.28.5-.2.339-.42.664-.626 1-.361.59-.742 1.168-1.125 1.75-.005.007.005.024 0 .031a65.436 65.436 0 0 1-1.531 2.219c-.457.636-.954 1.251-1.438 1.875-.197.254-.36.53-.562.781-.134.168-.27.333-.406.5-.164.2-.334.395-.5.594a66.517 66.517 0 0 1-1.719 1.969 68.223 68.223 0 0 1-1.875 2c-.161.164-.306.337-.469.5-21.13 21.13-52.258 24.495-77.187 11.156l.125-.188a65.476 65.476 0 0 1-10.625-6.78c-.54-.424-1.066-.87-1.594-1.313a64.713 64.713 0 0 1-1.531-1.313c-.093-.083-.189-.166-.282-.25a70.638 70.638 0 0 1-2.406-2.312 70.648 70.648 0 0 1-2.312-2.407c-.084-.092-.167-.188-.25-.28a64.713 64.713 0 0 1-1.313-1.532c-.442-.528-.89-1.055-1.312-1.594a65.476 65.476 0 0 1-6.782-10.625l-.187.125c-13.339-24.929-9.974-56.057 11.156-77.187.163-.163.336-.308.5-.47a68.23 68.23 0 0 1 2-1.874 66.517 66.517 0 0 1 1.969-1.719c.272-.227.538-.465.812-.687.344-.278.716-.512 1.063-.782.624-.483 1.239-.98 1.875-1.437a65.36 65.36 0 0 1 2.25-1.531c.582-.383 1.159-.764 1.75-1.125.447-.274.892-.551 1.344-.813.681-.395 1.37-.757 2.062-1.125.176-.093.355-.19.531-.281a63.588 63.588 0 0 1 2.844-1.406 62.892 62.892 0 0 1 2.594-1.125c.153-.062.316-.096.469-.157A63.441 63.441 0 0 1 152 42.594c.56-.192 1.123-.356 1.687-.532.583-.18 1.164-.367 1.75-.53.882-.247 1.768-.48 2.657-.688.07-.017.147-.015.218-.032.416-.095.833-.193 1.25-.28.673-.142 1.356-.288 2.032-.407.082-.015.167-.017.25-.031a65.195 65.195 0 0 1 2.875-.438 64.691 64.691 0 0 1 5.906-.469 65.092 65.092 0 0 1 3.156-.03z" style="opacity:.7;fill:#2d3335;fill-opacity:1;stroke:none;filter:url(#N)" transform="matrix(1 .06864 0 .8487 0 26.913)"/><path d="M9 17.25s7.5 11 11.75 25.75S27 68.5 27 68.5s-5.5 12.75-8.25 24.75-5.75 25-5.75 25 5.75 16 9.25 30S26 170.5 26 170.5s-4 10.25-7.5 24.25-5 30.75-5 30.75 9.25-2 28.5 1.25 32.25 6 32.25 6 12.75-2.75 24-6.25 16.25-6.5 16.25-6.5 5.5.5 22.5 6.25 29.25 8.5 29.25 8.5 13-2.75 26-5.75 26.5-8 26.5-8-.75-5 4.25-24.5 8.75-28 8.75-28-.5-2.5-3.75-17.75S218 121 218 121s1.75-12.5 6.75-25.75S235 68.5 235 68.5s-4.75-15.25-7.5-29.75S219.25 15 219.25 15 195 24 187.5 25.5s-21 5.25-21 5.25-9.75-4.25-22-8.5-29.75-5.5-29.75-5.5-3.25 3.5-22 8-27.5 5.75-27.5 5.75-18.5-9-31.5-11.5-24-2-24.75-1.75z" style="opacity:.5;fill:url(#O);fill-opacity:1;stroke:none;filter:url(#filter8725)" transform="matrix(1 0 0 .84657 0 27.66)"/></g><g style="display:inline"><path d="M9 2.25s7.5 13 11.75 27.75S27 55.5 27 55.5s-5.5 12.75-8.25 24.75-5.75 23-5.75 23 5.75 16 9.25 30S26 157.5 26 157.5s-4 10.25-7.5 24.25-5 30.75-5 30.75 9.25-2 28.5 1.25 32.25 6 32.25 6 12.75-2.75 24-6.25 16.25-6.5 16.25-6.5 5.5.5 22.5 6.25 29.25 8.5 29.25 8.5 13-2.75 26-5.75 26.5-8 26.5-8-.75-5 4.25-24.5 8.75-28 8.75-28-.5-4.5-3.75-19.75S218 106 218 106s1.75-10.5 6.75-23.75S235 55.5 235 55.5s-4.75-15.25-7.5-29.75S219.25 0 219.25 0 195 9 187.5 10.5s-21 5.25-21 5.25-9.75-4.25-22-8.5-29.75-5.5-29.75-5.5-3.25 3.5-22 8-27.5 5.75-27.5 5.75-18.5-9-31.5-11.5S9.75 2 9 2.25z" style="fill:#ceeeab;fill-opacity:1;stroke:none"/><g clip-path="url(#P)" transform="translate(0 -10)"><path d="m110.75 5.5-4.25 7c-.75 9-2.25 13.75-8.5 16.5s-12.25 3.5-11 7.5 13 9.25 14.25 13 8.25 1.75 11 7 2 15.25-3.75 17.25-17.5.5-20.25 9.5-4.75 10.5-9 12.75-7.25 10.5-3.5 16.5 12.25-1.25 15-6.5S98 97.25 98 97.25h23.75l59-1.75 3.25-3.75s3.25 4 2.75 8.75-3.75 14.75.25 17.25 19.5-2 24-7-4.75-28.25-10.5-29.5-18.5-1.75-17-7 11.75 4.5 17.25 3.25 16.75-21 12-25.25-24.25-5.25-25.75-8 21-8 22.25-11-2.5-7.25-6.25-8.5S189 41 182 40.5s-20 5.75-17.25 11.5-6 11-14.5 6.5-24.75-13-21.75-24S150 15.75 150 15.75L110.75 5.5zM97.187 112.719c-1.594.146-4.468 4.687-4.937 7.031-.5 2.5-3.25 6.75-3.5 12.25s4.75 6.75 8.75 6.5 2.75-6.75 2-15c-.25 0-.5-10.25-2-10.75a.79.79 0 0 0-.313-.031zm92.72 51.656c-6.336.295-6.626 7.469-7.407 8.875-1.25 2.25 2.25 13.75 2 18s-4.75 5.25-9.5 9.75.5 16 11.25 31l44.75 1.25-1-35s4.75-4.25-20.75-24.25c-9.563-7.5-15.542-9.802-19.344-9.625zm-149.97 16.531c-4.029-.102-8.28 5.719-9.687 7.594-1.5 2-6.25 5-17 9.5l-14.5 34.25 53 4.25s1.75-11-4.25-15.75S30.25 215 29.25 207.5s9.25-10 13.75-14.25S45 182 40.75 181a4.015 4.015 0 0 0-.813-.094z" style="fill:#a6dd8b;fill-opacity:1;stroke:none"/></g><path d="M158.531 75.344c-4.76-.015-9.031.969-11.531 3.156-8 7-35 .75-48.5 7s-13.25 38-14.75 44.5-17.5 20.75-20 23.5-13.25 7.25-19.5 8.5-12.75 7.25-15.5 11c-2.021 2.756-7.406 6.45-10.125 8.219-.046.181-.08.348-.125.531-.134.535-.247 1.083-.375 1.625 4.98-1.605 11.18-8.18 16.625-13.625 6.25-6.25 20-7.75 27.75-11.5S76.75 138.5 89 134.5s21.25 11.75 24.25 18.5 1.75 12.75 3.75 17 11 11.75 11.5 13.5-5 6.5-6.25 8.5-10.5 7-11.75 8.75c-.966 1.352-1.923 6.773-2.313 9.219.414-.17.755-.31 1.126-.469.483-2.53 1.515-7.078 2.937-8.5 2-2 11.25-4.5 12.5-8.5s7-6.5 7-6.5 2.75 4 16 14c8.833 6.667 12.758 15.534 14.406 20.719.674.17 1.533.41 2.031.531-1.22-4.319-4.836-16.239-8.937-20.75-5-5.5-18.5-10.75-22.75-22S108 144.25 115 138.25s16.5-4 28.5 7.5 46.25 5.75 57.75 3.75c9.955-1.731 20.834 14.883 23.906 26.031a303.703 303.703 0 0 1 1.656-5.75c-1.738-1.926-3.697-4.62-5.312-8.281-3.75-8.5-12-13.25-12-13.25s8.75-5 14.75-7.75a18.926 18.926 0 0 0 4.188-2.656c-.163-.774-.26-1.256-.438-2.094l-.094-.438c-4.765 5.563-19.232 9.616-21.656 10.938-2.75 1.5-18.25 3-35.75 4.5s-26.75-7.5-34.25-14.75-13-36-3-38 20 13.75 30 17 21.5-15.75 19.75-27c-1.203-7.734-13.997-12.625-24.469-12.656zm-53.344 13.281c1.276.001 5.86 1.594 6.563 2.375 2.25 2.5 2 7.25 0 8s-12.75 8-10.5 14.25 1.75 18-3.5 18-8 0-10-2.5-2-12 0-19.75 3.5-15 8-18.25c3.094-2.234 6.632-2.128 9.438-2.125zm13.594 73.094c.203.013 1.906 3.515 4.719 7.031 3 3.75 3.25 8.25 3.25 8.25s-4.25-4.75-6-8-2-7.25-2-7.25c0-.031.018-.032.031-.031z" style="fill:#aac3e7;fill-opacity:1;stroke:none"/><path d="M122.75 62.25c6.25.5 12.25-2.25 10.75-6.5s-12.5-7.25-13.25-3 2 10.5 2.5 9.5zM108.75 46.75c-8.5-5.5-8.5-7.25-7-8s10.25 5 12.75 8-2.25 2-5.75 0z" style="opacity:.38695655;fill:none;stroke:#6d7f42;stroke-width:1;stroke-linecap:round;stroke-linejoin:round;stroke-miterlimit:4;stroke-dasharray:none;stroke-opacity:1"/><g clip-path="url(#Q)" transform="translate(0 -10)"><path d="M15.75 151.25c33-2.5 38.25-3.5 36.25-10.25s-8.75-23.5-23-22.5-22.75-6.75-22.75-6.75" style="opacity:.38695655;fill:none;stroke:#6d7f42;stroke-width:1;stroke-linecap:round;stroke-linejoin:round;stroke-miterlimit:4;stroke-dasharray:none;stroke-opacity:1"/><path d="M17.5 177.25c18.25-10 28.75-8.5 35-11.5s13.25-5.75 15.75-9.5 5.75-11.5 5.75-18-3.5-36 3.25-43.5 17.25-26 26-23.25 12.25 9.75 22 9.5S147 77 149.5 68.75s-15.75-16-16-23 5.5-14.25 20.25-17 23.5-11.5 23.5-11.5" style="opacity:.38695655;fill:none;stroke:#6d7f42;stroke-opacity:1"/><path d="M14.5 161c15.25-1.5 22.25 3.5 31.5 1.75s13.25-3 17.75-5.75 6-3.75 6.25-6.5 1-12.5-3-22S54.5 97 58.75 89.75 64 68.25 74.5 65.25 95.5 59 102.25 64s12.75 14.25 20 14.5S134 77 136.75 74s4.5-10.25 1.75-13.75-15.5-5.5-17.25-9.5-10.75-17-.25-26.75 36.25-8.25 36.25-8.25" style="opacity:.38695655;fill:none;stroke:#6d7f42;stroke-width:1;stroke-linecap:round;stroke-linejoin:round;stroke-miterlimit:4;stroke-dasharray:none;stroke-opacity:1"/><path d="M21.25 159c13.75 1 21.5 4.25 33.5-.5s13.5-5.25 13.75-8.75-.25-15.75-3-20-13-13.75-15.75-24.25.25-41 8.5-48.25 32-7.25 37.5-10.5 5.25-16.75 13-24.5 27-12.25 27-12.25M190 18.5c11.75 5 39 9.75 47.25 40.25M9.75 214c19-12.5 36-1.25 49-4s38.25-37.25 46-37 5.5-11.75 8.5-13.25 5.5 6 11.75 8 24.5-2.75 23.5-5.75-7-7.75-5.5-8.5 8.5 5 12.75 3.5 43.75-1 48.5-13.5 21.5-13.5 21.5-13.5M77.5 233.5c13.5-11.5 23.25-25 28.5-27s12.75-3.75 15.75-8 2.5-10.75 5.25-12 3.75 5.75 8.75 6 36.75-5 42.75-11.75 32.25-12.5 32.5-14.5-1-4.75.25-5.5 24.75-6 24.75-6M168.75 236c9-13.75 20.5-41 29.5-42s10.25-2.5 12.5-4.25 17 2.25 17 2.25" style="opacity:.38695655;fill:none;stroke:#6d7f42;stroke-width:1;stroke-linecap:round;stroke-linejoin:round;stroke-miterlimit:4;stroke-dasharray:none;stroke-opacity:1"/></g><g clip-path="url(#R)" transform="translate(0 -10)"><path d="m57.75 20-8.5 28.25 18 6.25L75 90.75 54 113l9 10.5L51 135l.5 4.5L71.75 164l14-6.75 20.5 18.5L95.75 204l10.25 8.5-2.75 13" style="fill:none;stroke:#d38484;stroke-width:2;stroke-linecap:round;stroke-linejoin:miter;stroke-miterlimit:4;stroke-dasharray:none;stroke-opacity:1"/><path d="m105.75 212.25 12.5-27.75 11-7 27.5 15.75 20.5-3.75-.25-15.75-10.25-6 12.75-26.25 5.75-3.75 38.75-10" style="fill:none;stroke:#d38484;stroke-width:2;stroke-linecap:round;stroke-linejoin:miter;stroke-miterlimit:4;stroke-dasharray:none;stroke-opacity:1"/></g></g><g style="display:inline"><g style="opacity:.5043478"><path d="M219.25 10S195 19 187.5 20.5s-21 5.25-21 5.25-9.75-4.25-22-8.5-29.75-5.5-29.75-5.5-3.25 3.5-22 8-27.5 5.75-27.5 5.75-18.5-9-31.5-11.5-24-2-24.75-1.75c0 0 7.5 13 11.75 27.75S27 65.5 27 65.5l51.469 5.125 48.969-4 52.25 12.031c10.385-4.418 52.116-4.9 55.312-13.156 0 0-4.75-15.25-7.5-29.75S219.25 10 219.25 10z" style="fill:#b1e479;fill-opacity:1;stroke:none" transform="translate(0 320)"/><path d="M27 65.5s-5.5 12.75-8.25 24.75-5.75 23-5.75 23l50.969 16.375 53.718-15.75 52.25 17.531C186.303 127.15 202.334 122.288 218 116c0 0 1.75-10.5 6.75-23.75S235 65.5 235 65.5c-3.196 8.256-44.927 8.739-55.313 13.156l-52.25-12.031-47.968 4L27 65.5z" style="fill:#87d531;fill-opacity:1;stroke:none" transform="translate(0 320)"/><path d="M231.75 165.5c-17.9 7.671-35.943 14.904-54.313 21.406l-52.25-18.531-50.218 9L26 167.5s-4 10.25-7.5 24.25-5 30.75-5 30.75 9.25-2 28.5 1.25 32.25 6 32.25 6 12.75-2.75 24-6.25 16.25-6.5 16.25-6.5 5.5.5 22.5 6.25 29.25 8.5 29.25 8.5 13-2.75 26-5.75 26.5-8 26.5-8-.75-5 4.25-24.5 8.75-28 8.75-28z" style="fill:#ceeeab;fill-opacity:1;stroke:none" transform="translate(0 320)"/><path d="M13 113.25s5.75 16 9.25 30S26 167.5 26 167.5l48.969 9.875 50.219-9 52.25 18.531c18.369-6.502 36.413-13.735 54.312-21.406 0 0-.5-4.5-3.75-19.75S218 116 218 116c-15.666 6.288-31.698 11.15-48.063 15.406l-52.25-17.531-53.718 15.75L13 113.25z" style="fill:#b9e787;fill-opacity:1;stroke:none" transform="translate(0 320)"/></g><g style="opacity:.52173911"><path d="M13.719.031C10.989.024 9.28.156 9 .25c0 0 7.5 13 11.75 27.75S27 53.5 27 53.5s-5.5 12.75-8.25 24.75-5.75 23-5.75 23 5.75 16 9.25 30S26 155.5 26 155.5s-4 10.25-7.5 24.25-5 30.75-5 30.75 9.25-2 28.5 1.25 32.25 6 32.25 6l1.5-53.25L63.5 118l16-59.75c-2.22-15.48-9.068-30.046-14.25-44.75 0 0-18.5-9-31.5-11.5C25.625.437 18.267.043 13.719.031z" style="fill:#83d32b;fill-opacity:1;stroke:none" transform="translate(0 332)"/><path d="M114.75-.25s-3.25 3.5-22 8-27.5 5.75-27.5 5.75c5.182 14.704 12.03 29.27 14.25 44.75L63.5 118l12.25 46.5-1.5 53.25s12.75-2.75 24-6.25 16.25-6.5 16.25-6.5l11.25-48.5-8.25-54.25 11.75-45c-3.44-9.727-8.064-56.93-14.5-57.5z" style="fill:#b1e479;fill-opacity:1;stroke:none" transform="translate(0 332)"/><path d="M219.25-2S195 7 187.5 8.5s-21 5.25-21 5.25c4.924-1.358 11.437 45.392 14.25 52.25l-11.25 53.25 9.5 55-12.75 45.5s13-2.75 26-5.75 26.5-8 26.5-8-.75-5 4.25-24.5 8.75-28 8.75-28-.5-4.5-3.75-19.75S218 104 218 104s1.75-10.5 6.75-23.75S235 53.5 235 53.5s-4.75-15.25-7.5-29.75S219.25-2 219.25-2z" style="fill:#a4df62;fill-opacity:1;stroke:none" transform="translate(0 332)"/><path d="M114.75-.25c6.436.57 11.06 47.773 14.5 57.5l-11.75 45 8.25 53.25L114.5 205s5.5.5 22.5 6.25 29.25 8.5 29.25 8.5l12.75-45.5-9.5-55L180.75 66c-2.813-6.858-9.326-53.608-14.25-52.25 0 0-9.75-4.25-22-8.5s-29.75-5.5-29.75-5.5z" style="fill:#ceeeab;fill-opacity:1;stroke:none" transform="translate(0 332)"/></g><path d="M9-189.75s7.5 13 11.75 27.75S27-136.5 27-136.5s-5.5 12.75-8.25 24.75-5.75 23-5.75 23 5.75 16 9.25 30S26-34.5 26-34.5s-4 10.25-7.5 24.25-5 30.75-5 30.75 9.25-2 28.5 1.25 32.25 6 32.25 6S87 25 98.25 21.5 114.5 15 114.5 15s5.5.5 22.5 6.25 29.25 8.5 29.25 8.5 13-2.75 26-5.75 26.5-8 26.5-8S218 11 223-8.5s8.75-28 8.75-28-.5-4.5-3.75-19.75S218-86 218-86s1.75-10.5 6.75-23.75S235-136.5 235-136.5s-4.75-15.25-7.5-29.75-8.25-25.75-8.25-25.75-24.25 9-31.75 10.5-21 5.25-21 5.25-9.75-4.25-22-8.5-29.75-5.5-29.75-5.5-3.25 3.5-22 8-27.5 5.75-27.5 5.75-18.5-9-31.5-11.5-24-2-24.75-1.75z" style="opacity:.03913042;fill:url(#S);fill-opacity:1;stroke:none" transform="translate(0 192)"/></g><g style="display:inline"><g style="opacity:.2695656"><path d="M219.25-182s-24.25 9-31.75 10.5-21 5.25-21 5.25c4.924-1.358 11.437 45.392 14.25 52.25l-.063.281c11.808-4.074 51.211-4.767 54.313-12.781 0 0-4.75-15.25-7.5-29.75S219.25-182 219.25-182z" style="fill:url(#T);fill-opacity:1;stroke:none" transform="translate(0 182)"/><path d="M27-126.5s-5.5 12.75-8.25 24.75-5.75 23-5.75 23l50.625 16.281 15.781-58.906L27-126.5z" style="fill:url(#U);fill-opacity:1;stroke:none" transform="translate(0 182)"/><path d="M26-24.5S22-14.25 18.5-.25s-5 30.75-5 30.75.147-.045.438-.094c2.033-.338 11.218-1.5 28.062 1.344 19.25 3.25 32.25 6 32.25 6l1.469-52.5-.75.125L26-24.5z" style="fill:url(#V);fill-opacity:1;stroke:none" transform="translate(0 182)"/><path d="M114.75-180.25s-3.25 3.5-22 8-27.5 5.75-27.5 5.75c5.182 14.704 12.03 29.27 14.25 44.75l-.094.313 48.031-3.938 1.126.25c-3.363-13.323-7.797-54.592-13.813-55.125z" style="fill:url(#W);fill-opacity:1;stroke:none" transform="translate(0 182)"/><path d="M117.594-78.094 63.969-62.375l-.344-.094L63.5-62l12.25 46.5-.031.75 49.469-8.875.53.188.032-.063-8.25-54.25.094-.344z" style="fill:url(#X);fill-opacity:1;stroke:none" transform="translate(0 182)"/><path d="M128.563-125.125c.234.928.463 1.742.687 2.375l-11.656 44.656.093-.031L169.5-60.75l11.187-52.969c-.356.123-.695.246-1 .375l-51.125-11.781z" style="fill:url(#Y);fill-opacity:1;stroke:none" transform="translate(0 182)"/><path d="M125.531-23.5 114.5 25s5.5.5 22.5 6.25c2.125.719 4.163 1.406 6.125 2.031 1.962.626 3.855 1.186 5.625 1.719 10.617 3.2 17.5 4.75 17.5 4.75l12.719-45.406c-.513.182-1.019.38-1.531.562L125.53-23.5z" style="fill:url(#Z);fill-opacity:1;stroke:none" transform="translate(0 182)"/><path d="M218-76c-15.666 6.288-31.698 11.15-48.063 15.406l-.437-.156 9.5 55-.031.094c17.839-6.36 35.381-13.387 52.781-20.844 0 0-.5-4.5-3.75-19.75S218-76 218-76z" style="fill:url(#aa);fill-opacity:1;stroke:none" transform="translate(0 182)"/></g><g style="opacity:.04347827"><path d="M13.719-179.969a58.605 58.605 0 0 0-2.719.063c-.445.018-.855.039-1.156.062-.03.002-.066-.002-.094 0-.398.033-.656.063-.75.094 0 0 7.5 13 11.75 27.75S27-126.5 27-126.5l51.469 5.125.937-.063.094-.312c-2.22-15.48-9.068-30.046-14.25-44.75 0 0-18.5-9-31.5-11.5-1.018-.196-2.01-.37-3-.531-.596-.097-1.167-.197-1.75-.281-.237-.035-.453-.062-.688-.094-1.306-.182-2.588-.34-3.812-.469-.735-.077-1.395-.128-2.094-.187a114.157 114.157 0 0 0-4.781-.313 96.716 96.716 0 0 0-3.906-.094z" style="fill:url(#ab);fill-opacity:1;stroke:none" transform="translate(0 182)"/><path d="M13-78.75s5.75 16 9.25 30S26-24.5 26-24.5l48.969 9.875.75-.125.031-.75L63.5-62l.125-.469L13-78.75z" style="fill:url(#ac);fill-opacity:1;stroke:none" transform="translate(0 182)"/><path d="m127.438-125.375-47.97 4h-.062L63.625-62.469l.344.094 53.625-15.719 11.656-44.656c-.224-.633-.453-1.447-.688-2.375l-1.125-.25z" style="fill:url(#ad);fill-opacity:1;stroke:none" transform="translate(0 182)"/><path d="m125.188-23.625-49.47 8.875-1.468 52.5S87 35 98.25 31.5 114.5 25 114.5 25l11.219-48.438-.531-.187z" style="fill:url(#ae);fill-opacity:1;stroke:none" transform="translate(0 182)"/><path d="M114.75-180.25c6.016.533 10.45 41.802 13.813 55.125l51.125 11.781c.304-.13.643-.252 1-.375l.062-.281c-2.813-6.858-9.326-53.608-14.25-52.25 0 0-.613-.254-1.719-.719a350.283 350.283 0 0 0-20.281-7.781c-12.25-4.25-29.75-5.5-29.75-5.5z" style="fill:url(#af);fill-opacity:1;stroke:none" transform="translate(0 182)"/><path d="m117.688-78.125-.094.031-.094.344 8.25 53.25-.219 1 51.907 18.406c.512-.181 1.019-.38 1.53-.562L179-5.75l-9.5-55-51.813-17.375z" style="fill:url(#ag);fill-opacity:1;stroke:none" transform="translate(0 182)"/><path d="M231.75-26.5c-17.4 7.457-34.942 14.484-52.781 20.844L166.25 39.75s13-2.75 26-5.75 26.5-8 26.5-8S218 21 223 1.5s8.75-28 8.75-28z" style="fill:url(#ah);fill-opacity:1;stroke:none" transform="translate(0 182)"/><path d="M235-126.5c-3.102 8.014-42.505 8.707-54.313 12.781L169.5-60.75l.438.156C186.302-64.85 202.334-69.712 218-76c0 0 1.75-10.5 6.75-23.75S235-126.5 235-126.5z" style="fill:url(#ai);fill-opacity:1;stroke:none" transform="translate(0 182)"/></g></g><g clip-path="url(#aj)" style="display:inline" transform="matrix(1.25254 .0354 0 1.25254 -27.81 -48.344)"><path d="M9 12.25s7.5 13 11.75 27.75S27 65.5 27 65.5s-5.5 12.75-8.25 24.75-5.75 23-5.75 23 5.75 16 9.25 30S26 167.5 26 167.5s-4 10.25-7.5 24.25-5 30.75-5 30.75 9.25-2 28.5 1.25 32.25 6 32.25 6 12.75-2.75 24-6.25 16.25-6.5 16.25-6.5 5.5.5 22.5 6.25 29.25 8.5 29.25 8.5 13-2.75 26-5.75 26.5-8 26.5-8-.75-5 4.25-24.5 8.75-28 8.75-28-.5-4.5-3.75-19.75S218 116 218 116s1.75-10.5 6.75-23.75S235 65.5 235 65.5s-4.75-15.25-7.5-29.75S219.25 10 219.25 10 195 19 187.5 20.5s-21 5.25-21 5.25-9.75-4.25-22-8.5-29.75-5.5-29.75-5.5-3.25 3.5-22 8-27.5 5.75-27.5 5.75-18.5-9-31.5-11.5-24-2-24.75-1.75z" style="fill:#ceeeab;fill-opacity:1;stroke:none"/><g clip-path="url(#ak)"><path d="m110.75 5.5-4.25 7c-.75 9-2.25 13.75-8.5 16.5s-12.25 3.5-11 7.5 13 9.25 14.25 13 8.25 1.75 11 7 2 15.25-3.75 17.25-17.5.5-20.25 9.5-4.75 10.5-9 12.75-7.25 10.5-3.5 16.5 12.25-1.25 15-6.5S98 97.25 98 97.25h23.75l59-1.75 3.25-3.75s3.25 4 2.75 8.75-3.75 14.75.25 17.25 19.5-2 24-7-4.75-28.25-10.5-29.5-18.5-1.75-17-7 11.75 4.5 17.25 3.25 16.75-21 12-25.25-24.25-5.25-25.75-8 21-8 22.25-11-2.5-7.25-6.25-8.5S189 41 182 40.5s-20 5.75-17.25 11.5-6 11-14.5 6.5-24.75-13-21.75-24S150 15.75 150 15.75L110.75 5.5zM97.187 112.719c-1.594.146-4.468 4.687-4.937 7.031-.5 2.5-3.25 6.75-3.5 12.25s4.75 6.75 8.75 6.5 2.75-6.75 2-15c-.25 0-.5-10.25-2-10.75a.79.79 0 0 0-.313-.031zm92.72 51.656c-6.336.295-6.626 7.469-7.407 8.875-1.25 2.25 2.25 13.75 2 18s-4.75 5.25-9.5 9.75.5 16 11.25 31l44.75 1.25-1-35s4.75-4.25-20.75-24.25c-9.563-7.5-15.542-9.802-19.344-9.625zm-149.97 16.531c-4.029-.102-8.28 5.719-9.687 7.594-1.5 2-6.25 5-17 9.5l-14.5 34.25 53 4.25s1.75-11-4.25-15.75S30.25 215 29.25 207.5s9.25-10 13.75-14.25S45 182 40.75 181a4.015 4.015 0 0 0-.813-.094z" style="fill:#a6dd8b;fill-opacity:1;stroke:none"/></g><path d="M158.531 85.344c-4.76-.015-9.031.969-11.531 3.156-8 7-35 .75-48.5 7s-13.25 38-14.75 44.5-17.5 20.75-20 23.5-13.25 7.25-19.5 8.5-12.75 7.25-15.5 11c-2.021 2.756-7.406 6.45-10.125 8.219-.046.181-.08.348-.125.531-.134.535-.247 1.083-.375 1.625 4.98-1.605 11.18-8.18 16.625-13.625 6.25-6.25 20-7.75 27.75-11.5S76.75 148.5 89 144.5s21.25 11.75 24.25 18.5 1.75 12.75 3.75 17 11 11.75 11.5 13.5-5 6.5-6.25 8.5-10.5 7-11.75 8.75c-.966 1.352-1.923 6.773-2.313 9.219.414-.17.755-.31 1.126-.469.483-2.53 1.515-7.078 2.937-8.5 2-2 11.25-4.5 12.5-8.5s7-6.5 7-6.5 2.75 4 16 14c8.833 6.667 12.758 15.534 14.406 20.719.674.17 1.533.41 2.031.531-1.22-4.319-4.836-16.239-8.937-20.75-5-5.5-18.5-10.75-22.75-22S108 154.25 115 148.25s16.5-4 28.5 7.5 46.25 5.75 57.75 3.75c9.955-1.731 20.834 14.883 23.906 26.031a303.703 303.703 0 0 1 1.656-5.75c-1.738-1.926-3.697-4.62-5.312-8.281-3.75-8.5-12-13.25-12-13.25s8.75-5 14.75-7.75a18.926 18.926 0 0 0 4.188-2.656c-.163-.774-.26-1.256-.438-2.094l-.094-.438c-4.765 5.563-19.232 9.616-21.656 10.938-2.75 1.5-18.25 3-35.75 4.5s-26.75-7.5-34.25-14.75-13-36-3-38 20 13.75 30 17 21.5-15.75 19.75-27c-1.203-7.734-13.997-12.625-24.469-12.656zm-53.344 13.281c1.276.001 5.86 1.594 6.563 2.375 2.25 2.5 2 7.25 0 8s-12.75 8-10.5 14.25 1.75 18-3.5 18-8 0-10-2.5-2-12 0-19.75 3.5-15 8-18.25c3.094-2.234 6.632-2.128 9.438-2.125zm13.594 73.094c.203.013 1.906 3.515 4.719 7.031 3 3.75 3.25 8.25 3.25 8.25s-4.25-4.75-6-8-2-7.25-2-7.25c0-.031.018-.032.031-.031z" style="fill:#aac3e7;fill-opacity:1;stroke:none"/><path d="M122.75 72.25c6.25.5 12.25-2.25 10.75-6.5s-12.5-7.25-13.25-3 2 10.5 2.5 9.5zM108.75 56.75c-8.5-5.5-8.5-7.25-7-8s10.25 5 12.75 8-2.25 2-5.75 0z" style="opacity:.38695655;fill:none;stroke:#6d7f42;stroke-width:1;stroke-linecap:round;stroke-linejoin:round;stroke-miterlimit:4;stroke-dasharray:none;stroke-opacity:1"/><g clip-path="url(#al)"><path d="M15.75 151.25c33-2.5 38.25-3.5 36.25-10.25s-8.75-23.5-23-22.5-22.75-6.75-22.75-6.75" style="opacity:.38695655;fill:none;stroke:#6d7f42;stroke-width:1;stroke-linecap:round;stroke-linejoin:round;stroke-miterlimit:4;stroke-dasharray:none;stroke-opacity:1"/><path d="M17.5 177.25c18.25-10 28.75-8.5 35-11.5s13.25-5.75 15.75-9.5 5.75-11.5 5.75-18-3.5-36 3.25-43.5 17.25-26 26-23.25 12.25 9.75 22 9.5S147 77 149.5 68.75s-15.75-16-16-23 5.5-14.25 20.25-17 23.5-11.5 23.5-11.5" style="opacity:.38695655;fill:none;stroke:#6d7f42;stroke-opacity:1"/><path d="M14.5 161c15.25-1.5 22.25 3.5 31.5 1.75s13.25-3 17.75-5.75 6-3.75 6.25-6.5 1-12.5-3-22S54.5 97 58.75 89.75 64 68.25 74.5 65.25 95.5 59 102.25 64s12.75 14.25 20 14.5S134 77 136.75 74s4.5-10.25 1.75-13.75-15.5-5.5-17.25-9.5-10.75-17-.25-26.75 36.25-8.25 36.25-8.25" style="opacity:.38695655;fill:none;stroke:#6d7f42;stroke-width:1;stroke-linecap:round;stroke-linejoin:round;stroke-miterlimit:4;stroke-dasharray:none;stroke-opacity:1"/><path d="M21.25 159c13.75 1 21.5 4.25 33.5-.5s13.5-5.25 13.75-8.75-.25-15.75-3-20-13-13.75-15.75-24.25.25-41 8.5-48.25 32-7.25 37.5-10.5 5.25-16.75 13-24.5 27-12.25 27-12.25M190 18.5c11.75 5 39 9.75 47.25 40.25M9.75 214c19-12.5 36-1.25 49-4s38.25-37.25 46-37 5.5-11.75 8.5-13.25 5.5 6 11.75 8 24.5-2.75 23.5-5.75-7-7.75-5.5-8.5 8.5 5 12.75 3.5 43.75-1 48.5-13.5 21.5-13.5 21.5-13.5M77.5 233.5c13.5-11.5 23.25-25 28.5-27s12.75-3.75 15.75-8 2.5-10.75 5.25-12 3.75 5.75 8.75 6 36.75-5 42.75-11.75 32.25-12.5 32.5-14.5-1-4.75.25-5.5 24.75-6 24.75-6M168.75 236c9-13.75 20.5-41 29.5-42s10.25-2.5 12.5-4.25 17 2.25 17 2.25" style="opacity:.38695655;fill:none;stroke:#6d7f42;stroke-width:1;stroke-linecap:round;stroke-linejoin:round;stroke-miterlimit:4;stroke-dasharray:none;stroke-opacity:1"/></g><g clip-path="url(#am)"><path d="m57.75 20-8.5 28.25 18 6.25L75 90.75 54 113l9 10.5L51 135l.5 4.5L71.75 164l14-6.75 20.5 18.5L95.75 204l10.25 8.5-2.75 13" style="fill:none;stroke:#d38484;stroke-width:2;stroke-linecap:round;stroke-linejoin:miter;stroke-miterlimit:4;stroke-dasharray:none;stroke-opacity:1"/><path d="m105.75 212.25 12.5-27.75 11-7 27.5 15.75 20.5-3.75-.25-15.75-10.25-6 12.75-26.25 5.75-3.75 38.75-10" style="fill:none;stroke:#d38484;stroke-width:2;stroke-linecap:round;stroke-linejoin:miter;stroke-miterlimit:4;stroke-dasharray:none;stroke-opacity:1"/></g><path d="M9 12.25s7.5 13 11.75 27.75S27 65.5 27 65.5s-5.5 12.75-8.25 24.75-5.75 23-5.75 23 5.75 16 9.25 30S26 167.5 26 167.5s-4 10.25-7.5 24.25-5 30.75-5 30.75 9.25-2 28.5 1.25 32.25 6 32.25 6 12.75-2.75 24-6.25 16.25-6.5 16.25-6.5 5.5.5 22.5 6.25 29.25 8.5 29.25 8.5 13-2.75 26-5.75 26.5-8 26.5-8-.75-5 4.25-24.5 8.75-28 8.75-28-.5-4.5-3.75-19.75S218 116 218 116s1.75-10.5 6.75-23.75S235 65.5 235 65.5s-4.75-15.25-7.5-29.75S219.25 10 219.25 10 195 19 187.5 20.5s-21 5.25-21 5.25-9.75-4.25-22-8.5-29.75-5.5-29.75-5.5-3.25 3.5-22 8-27.5 5.75-27.5 5.75-18.5-9-31.5-11.5-24-2-24.75-1.75z" style="opacity:.03913042;fill:url(#an);fill-opacity:1;stroke:none"/><g style="opacity:.2695656;display:inline"><path d="M219.25-182s-24.25 9-31.75 10.5-21 5.25-21 5.25c4.924-1.358 11.437 45.392 14.25 52.25l-.063.281c11.808-4.074 51.211-4.767 54.313-12.781 0 0-4.75-15.25-7.5-29.75S219.25-182 219.25-182z" style="fill:url(#ao);fill-opacity:1;stroke:none" transform="translate(0 192)"/><path d="M27-126.5s-5.5 12.75-8.25 24.75-5.75 23-5.75 23l50.625 16.281 15.781-58.906L27-126.5z" style="fill:url(#ap);fill-opacity:1;stroke:none" transform="translate(0 192)"/><path d="M26-24.5S22-14.25 18.5-.25s-5 30.75-5 30.75.147-.045.438-.094c2.033-.338 11.218-1.5 28.062 1.344 19.25 3.25 32.25 6 32.25 6l1.469-52.5-.75.125L26-24.5z" style="fill:url(#aq);fill-opacity:1;stroke:none" transform="translate(0 192)"/><path d="M114.75-180.25s-3.25 3.5-22 8-27.5 5.75-27.5 5.75c5.182 14.704 12.03 29.27 14.25 44.75l-.094.313 48.031-3.938 1.126.25c-3.363-13.323-7.797-54.592-13.813-55.125z" style="fill:url(#ar);fill-opacity:1;stroke:none" transform="translate(0 192)"/><path d="M117.594-78.094 63.969-62.375l-.344-.094L63.5-62l12.25 46.5-.031.75 49.469-8.875.53.188.032-.063-8.25-54.25.094-.344z" style="fill:url(#as);fill-opacity:1;stroke:none" transform="translate(0 192)"/><path d="M128.563-125.125c.234.928.463 1.742.687 2.375l-11.656 44.656.093-.031L169.5-60.75l11.187-52.969c-.356.123-.695.246-1 .375l-51.125-11.781z" style="fill:url(#at);fill-opacity:1;stroke:none" transform="translate(0 192)"/><path d="M125.531-23.5 114.5 25s5.5.5 22.5 6.25c2.125.719 4.163 1.406 6.125 2.031 1.962.626 3.855 1.186 5.625 1.719 10.617 3.2 17.5 4.75 17.5 4.75l12.719-45.406c-.513.182-1.019.38-1.531.562L125.53-23.5z" style="fill:url(#au);fill-opacity:1;stroke:none" transform="translate(0 192)"/><path d="M218-76c-15.666 6.288-31.698 11.15-48.063 15.406l-.437-.156 9.5 55-.031.094c17.839-6.36 35.381-13.387 52.781-20.844 0 0-.5-4.5-3.75-19.75S218-76 218-76z" style="fill:url(#av);fill-opacity:1;stroke:none" transform="translate(0 192)"/></g><g style="opacity:.04347827;display:inline"><path d="M13.719-179.969a58.605 58.605 0 0 0-2.719.063c-.445.018-.855.039-1.156.062-.03.002-.066-.002-.094 0-.398.033-.656.063-.75.094 0 0 7.5 13 11.75 27.75S27-126.5 27-126.5l51.469 5.125.937-.063.094-.312c-2.22-15.48-9.068-30.046-14.25-44.75 0 0-18.5-9-31.5-11.5-1.018-.196-2.01-.37-3-.531-.596-.097-1.167-.197-1.75-.281-.237-.035-.453-.062-.688-.094-1.306-.182-2.588-.34-3.812-.469-.735-.077-1.395-.128-2.094-.187a114.157 114.157 0 0 0-4.781-.313 96.716 96.716 0 0 0-3.906-.094z" style="fill:url(#aw);fill-opacity:1;stroke:none" transform="translate(0 192)"/><path d="M13-78.75s5.75 16 9.25 30S26-24.5 26-24.5l48.969 9.875.75-.125.031-.75L63.5-62l.125-.469L13-78.75z" style="fill:url(#ax);fill-opacity:1;stroke:none" transform="translate(0 192)"/><path d="m127.438-125.375-47.97 4h-.062L63.625-62.469l.344.094 53.625-15.719 11.656-44.656c-.224-.633-.453-1.447-.688-2.375l-1.125-.25z" style="fill:url(#ay);fill-opacity:1;stroke:none" transform="translate(0 192)"/><path d="m125.188-23.625-49.47 8.875-1.468 52.5S87 35 98.25 31.5 114.5 25 114.5 25l11.219-48.438-.531-.187z" style="fill:url(#az);fill-opacity:1;stroke:none" transform="translate(0 192)"/><path d="M114.75-180.25c6.016.533 10.45 41.802 13.813 55.125l51.125 11.781c.304-.13.643-.252 1-.375l.062-.281c-2.813-6.858-9.326-53.608-14.25-52.25 0 0-.613-.254-1.719-.719a350.283 350.283 0 0 0-20.281-7.781c-12.25-4.25-29.75-5.5-29.75-5.5z" style="fill:url(#aA);fill-opacity:1;stroke:none" transform="translate(0 192)"/><path d="m117.688-78.125-.094.031-.094.344 8.25 53.25-.219 1 51.907 18.406c.512-.181 1.019-.38 1.53-.562L179-5.75l-9.5-55-51.813-17.375z" style="fill:url(#aB);fill-opacity:1;stroke:none" transform="translate(0 192)"/><path d="M231.75-26.5c-17.4 7.457-34.942 14.484-52.781 20.844L166.25 39.75s13-2.75 26-5.75 26.5-8 26.5-8S218 21 223 1.5s8.75-28 8.75-28z" style="fill:url(#aC);fill-opacity:1;stroke:none" transform="translate(0 192)"/><path d="M235-126.5c-3.102 8.014-42.505 8.707-54.313 12.781L169.5-60.75l.438.156C186.302-64.85 202.334-69.712 218-76c0 0 1.75-10.5 6.75-23.75S235-126.5 235-126.5z" style="fill:url(#aD);fill-opacity:1;stroke:none" transform="translate(0 192)"/></g></g><g style="display:inline"><path d="M174.281 35.875c-17.599 0-35.192 6.64-48.719 19.906-.167.164-.334.303-.5.469-22.055 22.056-26.208 55.251-12.468 81.5l-2.281 1.625a72.07 72.07 0 0 0 8.093 12.125l-13.312 13.344c-1.342-.586-2.789-1.034-4.563-1.375l-2.844 2.844c-1.109-.484-2.138-.816-3.062-.875L30.5 229.563c-.037 1.1.226 2.187.656 3.28l-.531.532-1.094 1.094c.716 3.738 2.01 6.823 5.469 10.281 3.458 3.458 6.42 4.63 10.281 5.469l1.094-1.094.719-.719c1.088.463 2.13.786 3.093.844l64.126-64.125c-.243-.975-.62-1.935-1.032-2.906l3-3c-.25-1.732-.676-3.198-1.312-4.594l13.281-13.281a72.07 72.07 0 0 0 12.125 8.094l1.625-2.282c26.249 13.74 59.444 9.587 81.5-12.469.166-.165.305-.332.469-.5 26.694-27.216 26.548-70.92-.469-97.937-13.59-13.59-31.407-20.375-49.219-20.375zm-.5 3.281c.105.002.208-.002.313 0a65.85 65.85 0 0 1 5.719.375l.28.032.282.03c.146.018.292.045.438.063.896.11 1.794.228 2.687.375.62.102 1.227.224 1.844.344.343.066.689.116 1.031.188.724.152 1.436.323 2.156.5.313.076.626.137.938.218.073.02.145.043.219.063.955.253 1.896.516 2.843.812.073.023.147.04.219.063.947.3 1.907.625 2.844.968.053.02.103.043.156.063.955.352 1.902.728 2.844 1.125.051.022.105.04.156.063.942.4 1.885.836 2.813 1.28.042.02.083.043.125.063.935.451 1.862.91 2.78 1.407.034.017.061.044.094.062a67.646 67.646 0 0 1 2.75 1.563c.033.019.062.043.094.062.908.55 1.8 1.122 2.688 1.719.549.369 1.084.77 1.625 1.156.364.26.733.512 1.093.781.019.014.044.018.063.032.878.655 1.74 1.36 2.594 2.062a70.63 70.63 0 0 1 5.062 4.594 70.62 70.62 0 0 1 4.563 5.031c.009.011.022.02.03.031a70.167 70.167 0 0 1 2.063 2.594c.283.379.539.773.813 1.156.37.517.74 1.038 1.094 1.563.016.024.046.038.062.062.598.89 1.167 1.778 1.719 2.688.02.032.043.061.062.094.546.902 1.063 1.829 1.563 2.75.018.032.045.06.062.093.498.921.954 1.844 1.407 2.781l.062.126c.446.93.88 1.868 1.281 2.812.022.051.041.105.063.156.395.936.774 1.895 1.125 2.844.02.053.043.104.062.156.348.949.666 1.885.97 2.844.022.072.04.147.062.219.294.94.56 1.894.812 2.844.02.073.043.145.063.218.08.31.142.627.218.938.177.72.348 1.432.5 2.156.072.342.121.688.188 1.031.12.617.242 1.225.344 1.844.146.893.265 1.791.375 2.688.018.145.045.291.062.437l.031.281.031.281a65.844 65.844 0 0 1 .376 5.72c.001.103-.002.208 0 .312a64.664 64.664 0 0 1-.187 5.938l-.032.374a64.675 64.675 0 0 1-.281 2.75 65.2 65.2 0 0 1-.438 2.875c-.014.083-.017.168-.031.25-.022.125-.04.25-.063.375a64.563 64.563 0 0 1-1.343 5.781c-.164.587-.35 1.168-.532 1.75-.175.565-.34 1.128-.53 1.688a63.25 63.25 0 0 1-.938 2.563c-.06.155-.126.313-.188.468-.045.113-.08.232-.125.344a62.899 62.899 0 0 1-2.312 5.031c-.08.158-.168.312-.25.469-.416.797-.83 1.59-1.282 2.375-.095.166-.184.335-.28.5-.2.339-.42.664-.626 1-.361.59-.742 1.168-1.125 1.75-.005.007.005.024 0 .031a65.436 65.436 0 0 1-1.531 2.219c-.457.636-.954 1.251-1.438 1.875-.197.254-.36.53-.562.781-.134.168-.27.333-.406.5-.164.2-.334.395-.5.594a66.517 66.517 0 0 1-1.719 1.969 68.223 68.223 0 0 1-1.875 2c-.161.164-.306.337-.469.5-21.13 21.13-52.258 24.495-77.187 11.156l.125-.188a65.476 65.476 0 0 1-10.625-6.78c-.54-.424-1.066-.87-1.594-1.313a64.713 64.713 0 0 1-1.531-1.313c-.093-.083-.189-.166-.282-.25a70.638 70.638 0 0 1-2.406-2.312 70.648 70.648 0 0 1-2.312-2.407c-.084-.092-.167-.188-.25-.28a64.713 64.713 0 0 1-1.313-1.532c-.442-.528-.89-1.055-1.312-1.594a65.476 65.476 0 0 1-6.782-10.625l-.187.125c-13.339-24.929-9.974-56.057 11.156-77.187.163-.163.336-.308.5-.47a68.23 68.23 0 0 1 2-1.874 66.517 66.517 0 0 1 1.969-1.719c.272-.227.538-.465.812-.687.344-.278.716-.512 1.063-.782.624-.483 1.239-.98 1.875-1.437a65.36 65.36 0 0 1 2.25-1.531c.582-.383 1.159-.764 1.75-1.125.447-.274.892-.551 1.344-.813.681-.395 1.37-.757 2.062-1.125.176-.093.355-.19.531-.281a63.588 63.588 0 0 1 2.844-1.406 62.892 62.892 0 0 1 2.594-1.125c.153-.062.316-.096.469-.157A63.441 63.441 0 0 1 152 42.594c.56-.192 1.123-.356 1.687-.532.583-.18 1.164-.367 1.75-.53.882-.247 1.768-.48 2.657-.688.07-.017.147-.015.218-.032.416-.095.833-.193 1.25-.28.673-.142 1.356-.288 2.032-.407.082-.015.167-.017.25-.031a65.195 65.195 0 0 1 2.875-.438 64.691 64.691 0 0 1 5.906-.469 65.092 65.092 0 0 1 3.156-.03z" clip-path="url(#aF)" style="fill:#2d3335;fill-opacity:1;stroke:none;filter:url(#aE)" transform="matrix(1 .08088 0 1 0 -21.056)"/></g><g style="display:inline"><path d="m48.01 227.457-4.807 4.558c-5.007-5.315-10.24-10.707-15.08-16.133l4.49-4.073c6.83 6.534 8.873 8.53 15.397 15.648z" style="fill:url(#aG);fill-opacity:1;stroke:none"/><path d="M-95.5 225c28.719 0 52 23.281 52 52s-23.281 52-52 52-52-23.281-52-52 23.281-52 52-52z" style="fill:#d0e9f2;fill-opacity:.47593581;stroke:none"/><path d="M-82 136c-27.614 0-50-22.386-50-50s22.386-50 50-50 50 22.386 50 50-22.386 50-50 50zm0-3c26.51 0 48-20.49 48-47s-21.49-47-48-47-48 20.49-48 47 21.49 47 48 47z" style="fill:#2d3335;fill-opacity:1;stroke:none"/><path d="M-82 136c-27.614 0-50-22.386-50-50 0-.168-.002-.332 0-.5.27 27.382 22.554 49.5 50 49.5s49.73-22.118 50-49.5c.002.168 0 .332 0 .5 0 27.614-22.386 50-50 50zm-48-50.5c-.002-.167 0-.332 0-.5 0-26.51 21.49-47 48-47s48 20.49 48 47c0 .168.002.333 0 .5C-34.27 59.234-55.658 39-82 39s-47.73 20.234-48 46.5z" style="fill:#9eaaac;fill-opacity:1;stroke:none"/><path d="M-82 134c26.51 0 48-21.49 48-48s-21.49-48-48-48-48 21.49-48 48 21.49 48 48 48z" style="fill:#d0e9f2;fill-opacity:.47593581;stroke:none"/><path d="M-82 134c26.51 0 48-21.49 48-48s-21.49-48-48-48-48 21.49-48 48 21.49 48 48 48z" style="fill:url(#aH);fill-opacity:1;stroke:none"/><path d="m-96.438 130.719-.843 5A52.03 52.03 0 0 0-82 138c5.316 0 10.451-.8 15.281-2.281l-.844-5A46.902 46.902 0 0 1-82 133c-5.041 0-9.885-.812-14.438-2.281z" style="fill:url(#aI);fill-opacity:1;stroke:none"/><path d="M-82 136.25a16 16 0 0 1 5 .813v26.625a16 16 0 0 1-5 .812 16 16 0 0 1-5-.813v-26.625a16 16 0 0 1 5-.812z" style="fill:url(#aJ);fill-opacity:1;stroke:none"/><path d="M-82 150.5c3.514 0 5.613.653 8 2.438v67.124c-3.137.91-4.486 1.438-8 1.438-3.514 0-4.863-.528-8-1.438v-67.124c2.637-1.785 4.486-2.438 8-2.438z" style="fill:url(#aK);fill-opacity:1;stroke:none"/><path d="M-82 154.5c3.514 0 7.238.778 10 2.438v65.124c-2.012 1.785-6.486 2.438-10 2.438-3.514 0-7.863-.153-10-2.438v-65.124c1.887-1.66 6.486-2.438 10-2.438z" style="fill:url(#aL);fill-opacity:1;stroke:none"/><path d="M-82 217.5c3.514 0 5.863.778 8 2.438v5.124c-2.387 1.535-4.486 2.438-8 2.438-3.514 0-5.738-.903-8-2.438v-5.124c2.387-1.91 4.486-2.438 8-2.438z" style="fill:url(#aM);fill-opacity:1;stroke:none"/><path d="M-82 221.5c-3.514 0-5.613.277-8 2.438v1.125c2.262 1.535 4.486 2.437 8 2.437 3.514 0 5.613-.902 8-2.438v-1.125c-2.512-2.035-4.486-2.437-8-2.437z" style="fill:#e0bb41;fill-opacity:1;stroke:none"/><path d="M125.064 134.686c-27.18-27.18-27.18-71.247 0-98.427 27.18-27.18 71.247-27.18 98.427 0 27.18 27.18 27.18 71.247 0 98.427-27.18 27.18-71.247 27.18-98.427 0zm2.953-2.953c26.093 26.093 67.413 27.077 93.506.984 26.093-26.092 25.108-67.413-.984-93.506-26.093-26.092-67.414-27.076-93.506-.984-26.093 26.093-25.109 67.413.984 93.506z" style="fill:#2d3335;fill-opacity:1;stroke:none"/><path d="M125.064 134.686c-27.18-27.18-27.18-71.247 0-98.427.166-.166.325-.33.492-.493-26.685 27.218-26.522 70.921.492 97.936 27.015 27.014 70.718 27.177 97.935.492-.163.167-.326.326-.492.492-27.18 27.18-71.247 27.18-98.427 0zm2.46-96.951c.163-.167.328-.327.493-.492 26.093-26.093 67.413-25.109 93.506.984 26.092 26.093 27.077 67.413.984 93.506-.165.165-.326.33-.492.492 25.587-26.118 24.451-67.086-1.477-93.014-25.927-25.927-66.895-27.063-93.013-1.476z" style="fill:#9eaaac;fill-opacity:1;stroke:none"/><path d="M127.033 132.717c26.092 26.093 68.397 26.093 94.49 0 26.093-26.092 26.093-68.397 0-94.49-26.093-26.092-68.398-26.092-94.49 0-26.093 26.093-26.093 68.398 0 94.49z" style="fill:#d0e9f2;fill-opacity:.47593581;stroke:none"/><path d="M127.033 132.717c26.092 26.093 68.397 26.093 94.49 0 26.093-26.092 26.093-68.397 0-94.49-26.093-26.092-68.398-26.093-94.49 0-26.093 26.093-26.093 68.398 0 94.49z" style="fill:url(#aN);fill-opacity:1;stroke:none"/><path d="m116.052 115.277-5.752 4.091a72.425 72.425 0 0 0 12.796 17.286 72.425 72.425 0 0 0 17.286 12.796l4.09-5.752a65.286 65.286 0 0 1-16.455-11.965 65.287 65.287 0 0 1-11.965-16.456z" style="fill:url(#aO);fill-opacity:1;stroke:none"/><path d="M124.818 134.932a22.271 22.271 0 0 1 4.122 5.721l-26.206 26.206a22.271 22.271 0 0 1-5.722-4.121 22.271 22.271 0 0 1-4.121-5.721l26.206-26.207a22.27 22.27 0 0 1 5.721 4.122z" style="fill:url(#aP);fill-opacity:1;stroke:none"/><path d="M116.267 159.232 50.199 225.3c-3.984-2.192-5.832-3-9.29-6.459-3.458-3.458-4.267-5.306-6.459-9.29l66.068-66.068c5.064 3.748 12.117 10.398 15.749 15.749z" style="fill:url(#aQ);fill-opacity:1;stroke:none"/><path d="M105.779 154.118c3.458 3.458 7.435 6.666 8.52 11.02l-64.1 64.099c-6.517-5.155-14.555-12.79-19.686-19.686l64.1-64.1c3.491.224 7.659 5.16 11.117 8.618l.049.049z" style="fill:url(#aR);fill-opacity:1;stroke:none"/><path d="M105.534 154.363c3.459 3.458 7.68 6.421 8.764 10.774l-64.1 64.1c-7.876-6.908-11.797-10.624-19.685-19.686l64.1-64.1c3.491.224 7.414 5.453 10.872 8.912h.05z" style="opacity:.59565214;fill:url(#aS);fill-opacity:1;stroke:none"/><path d="M131.168 37.05c40.659-32.173 78.136-12.728 77.782 5.303-.353 18.031-56.568 70.357-76.367 66.115-19.8-4.243-25.456-53.387-1.415-71.418z" style="opacity:.6043478;fill:url(#aT);fill-opacity:1;stroke:none"/><text xml:space="preserve" x="99.839" y="69.184" style="font-size:19.79973221px;font-style:normal;font-variant:normal;font-weight:400;font-stretch:normal;opacity:.46086958;fill:url(#aU);fill-opacity:1;stroke:none;font-family:Sans;-inkscape-font-specification:Sans" transform="rotate(-8.9)"><tspan x="99.839" y="69.184" style="font-style:normal;font-variant:normal;font-weight:700;font-stretch:normal;fill:url(#aU);fill-opacity:1;font-family:Monospace;-inkscape-font-specification:Monospace Bold">01011001</tspan><tspan x="99.839" y="93.934" style="font-style:normal;font-variant:normal;font-weight:700;font-stretch:normal;fill:url(#aU);fill-opacity:1;font-family:Monospace;-inkscape-font-specification:Monospace Bold">00110101</tspan><tspan x="99.839" y="118.684" style="font-style:normal;font-variant:normal;font-weight:700;font-stretch:normal;fill:url(#aU);fill-opacity:1;font-family:Monospace;-inkscape-font-specification:Monospace Bold">10010011</tspan></text><text xml:space="preserve" x="99.41" y="67.898" style="font-size:19.79973221px;font-style:normal;font-variant:normal;font-weight:400;font-stretch:normal;fill:url(#aV);fill-opacity:1;stroke:none;font-family:Sans;-inkscape-font-specification:Sans" transform="rotate(-8.9)"><tspan x="99.41" y="67.898" style="font-style:normal;font-variant:normal;font-weight:700;font-stretch:normal;fill:url(#aV);fill-opacity:1;font-family:Monospace;-inkscape-font-specification:Monospace Bold">01011001</tspan><tspan x="99.41" y="92.648" style="font-style:normal;font-variant:normal;font-weight:700;font-stretch:normal;fill:url(#aV);fill-opacity:1;font-family:Monospace;-inkscape-font-specification:Monospace Bold">00110101</tspan><tspan x="99.41" y="117.398" style="font-style:normal;font-variant:normal;font-weight:700;font-stretch:normal;fill:url(#aV);fill-opacity:1;font-family:Monospace;-inkscape-font-specification:Monospace Bold">10010011</tspan></text><path d="M219.463 129.09c-26.794 21.983-41.808 21.007-38.075 13.138 3.734-7.87 42.326-41.655 51.448-43.748 9.12-2.093 2.275 18.041-13.373 30.61z" style="opacity:.76521738;fill:url(#aW);fill-opacity:1;stroke:none"/></g></svg>