<?xml version="1.0" encoding="UTF-8" standalone="no"?>
<svg
   xmlns:dc="http://purl.org/dc/elements/1.1/"
   xmlns:cc="http://creativecommons.org/ns#"
   xmlns:rdf="http://www.w3.org/1999/02/22-rdf-syntax-ns#"
   xmlns:svg="http://www.w3.org/2000/svg"
   xmlns="http://www.w3.org/2000/svg"
   xmlns:xlink="http://www.w3.org/1999/xlink"
   xml:space="preserve"
   enable-background="new 0 0 722.569 346.291"
   viewBox="0 0 917.89792 266.85704"
   height="284.64749"
   width="979.09106"
   y="0px"
   x="0px"
   id="Layer_1"
   version="1.1"><metadata
     id="metadata46"><rdf:RDF><cc:Work
         rdf:about=""><dc:format>image/svg+xml</dc:format><dc:type
           rdf:resource="http://purl.org/dc/dcmitype/StillImage" /><dc:title></dc:title></cc:Work></rdf:RDF></metadata><defs
     id="defs44"><linearGradient
       id="linearGradient2795"><stop
         style="stop-color:#b8b8b8;stop-opacity:0.49803922;"
         offset="0"
         id="stop2797" /><stop
         style="stop-color:#7f7f7f;stop-opacity:0;"
         offset="1"
         id="stop2799" /></linearGradient><linearGradient
       id="linearGradient2787"><stop
         style="stop-color:#7f7f7f;stop-opacity:0.5;"
         offset="0"
         id="stop2789" /><stop
         style="stop-color:#7f7f7f;stop-opacity:0;"
         offset="1"
         id="stop2791" /></linearGradient><linearGradient
       id="linearGradient3676"><stop
         style="stop-color:#b2b2b2;stop-opacity:0.5;"
         offset="0"
         id="stop3678" /><stop
         style="stop-color:#b3b3b3;stop-opacity:0;"
         offset="1"
         id="stop3680" /></linearGradient><linearGradient
       id="linearGradient3236"><stop
         style="stop-color:#f4f4f4;stop-opacity:1"
         offset="0"
         id="stop3244" /><stop
         style="stop-color:white;stop-opacity:1"
         offset="1"
         id="stop3240" /></linearGradient><linearGradient
       id="linearGradient4671"><stop
         style="stop-color:#ffd43b;stop-opacity:1;"
         offset="0"
         id="stop4673" /><stop
         style="stop-color:#ffe873;stop-opacity:1"
         offset="1"
         id="stop4675" /></linearGradient><linearGradient
       id="linearGradient4689"><stop
         style="stop-color:#5a9fd4;stop-opacity:1;"
         offset="0"
         id="stop4691" /><stop
         style="stop-color:#306998;stop-opacity:1;"
         offset="1"
         id="stop4693" /></linearGradient><linearGradient
       x1="224.23996"
       y1="144.75717"
       x2="-65.308502"
       y2="144.75717"
       id="linearGradient2987"
       xlink:href="#linearGradient4671"
       gradientUnits="userSpaceOnUse"
       gradientTransform="translate(100.2702,99.61116)" /><linearGradient
       x1="172.94208"
       y1="77.475983"
       x2="26.670298"
       y2="76.313133"
       id="linearGradient2990"
       xlink:href="#linearGradient4689"
       gradientUnits="userSpaceOnUse"
       gradientTransform="translate(100.2702,99.61116)" /><linearGradient
       xlink:href="#linearGradient4671"
       id="linearGradient2255"
       gradientUnits="userSpaceOnUse"
       gradientTransform="matrix(0.562541,0,0,0.567972,-11.5974,-7.60954)"
       x1="224.23996"
       y1="144.75717"
       x2="-65.308502"
       y2="144.75717" /><linearGradient
       xlink:href="#linearGradient4689"
       id="linearGradient2258"
       gradientUnits="userSpaceOnUse"
       gradientTransform="matrix(0.562541,0,0,0.567972,-11.5974,-7.60954)"
       x1="172.94208"
       y1="76.176224"
       x2="26.670298"
       y2="76.313133" /><radialGradient
       xlink:href="#linearGradient2795"
       id="radialGradient2801"
       cx="61.518883"
       cy="132.28575"
       fx="61.518883"
       fy="132.28575"
       r="29.036913"
       gradientTransform="matrix(1,0,0,0.177966,0,108.7434)"
       gradientUnits="userSpaceOnUse" /><linearGradient
       xlink:href="#linearGradient4671"
       id="linearGradient1475"
       gradientUnits="userSpaceOnUse"
       gradientTransform="matrix(0.33020238,0,0,0.33339029,162.97301,-421.08799)"
       x1="150.96111"
       y1="192.35176"
       x2="112.03144"
       y2="137.27299" /><linearGradient
       xlink:href="#linearGradient4689"
       id="linearGradient1478"
       gradientUnits="userSpaceOnUse"
       gradientTransform="matrix(0.33020238,0,0,0.33339029,162.97301,-421.08799)"
       x1="26.648937"
       y1="20.603781"
       x2="135.66525"
       y2="114.39767" /><radialGradient
       xlink:href="#linearGradient2795"
       id="radialGradient1480"
       gradientUnits="userSpaceOnUse"
       gradientTransform="matrix(1.0266676e-8,-0.14084494,0.61907294,2.2255754e-7,122.64156,-330.59601)"
       cx="61.518883"
       cy="132.28575"
       fx="61.518883"
       fy="132.28575"
       r="29.036913" /></defs><linearGradient
     gradientTransform="translate(-110.92801,-98.765006)"
     y2="100.4837"
     x2="347.78201"
     y1="247.7832"
     x1="350.02249"
     gradientUnits="userSpaceOnUse"
     id="SVGID_1_"><stop
       id="stop6"
       style="stop-color:#589632"
       offset="0" /><stop
       id="stop8"
       style="stop-color:#93B023"
       offset="1" /></linearGradient><linearGradient
     gradientTransform="translate(-110.92801,-98.765006)"
     y2="98.822403"
     x2="456.98129"
     y1="246.1226"
     x1="459.22171"
     gradientUnits="userSpaceOnUse"
     id="SVGID_2_"><stop
       id="stop13"
       style="stop-color:#589632"
       offset="0" /><stop
       id="stop15"
       style="stop-color:#93B023"
       offset="1" /></linearGradient><linearGradient
     gradientTransform="translate(-110.92801,-98.765006)"
     y2="97.388199"
     x2="551.26642"
     y1="244.6875"
     x1="553.50677"
     gradientUnits="userSpaceOnUse"
     id="SVGID_3_"><stop
       id="stop20"
       style="stop-color:#589632"
       offset="0" /><stop
       id="stop22"
       style="stop-color:#93B023"
       offset="1" /></linearGradient><linearGradient
     gradientTransform="translate(-454.69912,-22.772574)"
     y2="101.4977"
     x2="232.211"
     y1="250.03419"
     x1="234.4702"
     gradientUnits="userSpaceOnUse"
     id="SVGID_4_"><stop
       id="stop27"
       style="stop-color:#589632"
       offset="0" /><stop
       id="stop29"
       style="stop-color:#93B023"
       offset="1" /></linearGradient><linearGradient
     gradientTransform="translate(-565.62712,-121.53757)"
     y2="102.9362"
     x2="186.5125"
     y1="250.2354"
     x1="188.7529"
     gradientUnits="userSpaceOnUse"
     id="SVGID_5_"><stop
       id="stop36"
       style="stop-color:#589632"
       offset="0" /><stop
       id="stop38"
       style="stop-color:#93B023"
       offset="1" /></linearGradient><g
     transform="translate(2.8558014e-7,2.2530625e-6)"
     id="g439"><path
       d="m 735.3942,111.66783 v 45.08723 c -12.40294,9.05146 -31.3429,15.25252 -47.60085,15.25252 -35.53306,0 -62.51821,-25.81048 -62.51821,-59.83621 0,-33.857314 27.48787,-59.501045 64.02803,-59.501045 17.43179,0 35.19625,6.704602 47.09729,17.095821 L 721.4831,88.706935 c -8.71631,-8.045184 -20.78244,-13.074056 -32.17993,-13.074056 -20.78493,0 -36.87531,15.92281 -36.87531,36.538491 0,20.78328 16.25878,36.70773 37.04123,36.70773 7.03975,0 15.42091,-2.51442 22.96338,-6.36944 v -30.84101 h 22.96173 z"
       id="path10"
       style="fill:url(#SVGID_1_);stroke-width:1" /><path
       d="M 758.52515,172.00758 V 54.681214 h 26.48159 V 172.00758 Z"
       id="path17"
       style="fill:url(#SVGID_2_);stroke-width:1" /><path
       d="m 898.47561,65.408401 -10.22365,21.95628 C 875.84902,79.98979 861.09924,75.2969 851.71346,75.2969 c -8.88306,0 -14.91653,3.184728 -14.91653,9.554179 0,21.621961 62.5182,9.554186 62.35063,51.791011 0,22.96255 -19.94706,35.36549 -45.92511,35.36549 -19.27593,0 -38.55104,-7.37491 -51.79101,-18.60482 l 10.5588,-21.62114 c 12.06861,10.72804 29.1636,17.59937 41.56653,17.59937 10.8956,0 17.4318,-4.02259 17.4318,-11.22991 0,-22.12385 -62.51821,-9.2182 -62.51821,-50.785565 0,-21.285989 18.26966,-34.695192 45.42322,-34.695192 16.42552,-8.29e-4 32.85022,5.028036 44.58203,12.738078 z"
       id="path24"
       style="fill:url(#SVGID_3_);stroke-width:1" /><g
       id="g212"
       transform="translate(454.69912,22.772572)"><polygon
         transform="translate(-110.928,-98.765001)"
         style="fill:#ee7913"
         id="polygon3"
         points="195,202.37 195,180 216.513,180 198.306,162 176,162 176,183.433 " /><polygon
         transform="translate(-110.928,-98.765001)"
         style="fill:url(#SVGID_4_)"
         id="polygon31"
         points="264,248 264,226.946 225.617,189 204,189 204,211.34 240.782,248 " /><polygon
         transform="translate(-110.928,-98.765001)"
         style="fill:#f0e64a"
         id="polygon33"
         points="204,211.34 204,189 225.617,189 216.513,180 195,180 195,202.37 " /><path
         style="fill:url(#SVGID_5_)"
         id="path40"
         d="m 87.123998,118.099 c -3.259,0.75 -6.648,1.157 -10.144,1.157 -25.004999,0 -46.270999,-20.562002 -46.270999,-47.222002 0,-26.659999 21.032,-46.768999 46.270999,-46.768999 25.239002,0 45.336002,20.108 45.336002,46.768999 0,4.336 -0.54,8.508 -1.539,12.46 L 143.921,107.634 c 5.967,-10.455002 9.305,-22.611002 9.305,-35.778002 C 153.226,30.765999 120.435,0 76.511998,0 32.789999,0 0,30.563999 0,71.855998 0,113.35 32.790999,144.522 76.511998,144.522 c 11.287,0 21.835,-2.076 31.284002,-5.854 z" /><path
         style="fill:#ffffff;fill-opacity:0.17254902"
         id="polygon4174"
         d="M 65.071998,63.234998 153.072,149.235 v -21.05469 l -38.38281,-37.945312 -9.10352,-9 -18.207032,-18 z" /></g><g
       id="g399"
       transform="matrix(1.5971484,0,0,1.5971484,23.872994,276.11684)"
       style="stroke-width:0.62611592"><path
         d="m 187.6936,-101.92428 c 0,-15.52843 -4.42779,-23.50052 -13.28336,-23.93707 -3.52353,-0.1663 -6.96389,0.39497 -10.31072,1.69421 -2.67122,0.95623 -4.46935,1.90208 -5.4152,2.85831 v 37.064516 c 5.66465,3.554707 10.69529,5.207323 15.0815,4.947484 9.28172,-0.613239 13.92778,-8.148791 13.92778,-22.62745 z m 10.92395,0.64442 c 0,7.888944 -1.85011,14.437082 -5.57111,19.644406 -4.14716,5.893321 -9.89496,8.928329 -17.24342,9.094638 -5.53993,0.176695 -11.24616,-1.559087 -17.1187,-5.196938 v 33.686512 l -9.49999,-3.388399 V -122.2131 c 1.55908,-1.91247 3.56509,-3.5547 5.99726,-4.94747 5.65426,-3.29486 12.5246,-4.98907 20.61103,-5.07221 l 0.13512,0.13512 c 7.39004,-0.0936 13.08588,2.94147 17.08752,9.09463 3.73139,5.64386 5.60229,12.878 5.60229,21.72317 z"
         style="fill:#646464;fill-opacity:1;stroke-width:0.58698368"
         id="path46" /><path
         d="m 256.67767,-79.172109 c 0,10.580956 -1.06017,17.908629 -3.18051,21.983024 -2.13075,4.074396 -6.18436,7.327676 -12.17123,9.749444 -4.85393,1.912467 -10.10283,2.951854 -15.7363,3.128549 l -1.56948,-5.986861 c 5.72702,-0.779538 9.75984,-1.559087 12.09846,-2.338625 4.60448,-1.559076 7.76422,-3.949664 9.49999,-7.150981 1.39278,-2.608857 2.07878,-7.587511 2.07878,-14.956764 v -2.473732 c -6.49617,2.951854 -13.30416,4.417389 -20.42395,4.417389 -4.67723,0 -8.8036,-1.465535 -12.3583,-4.417389 -3.99125,-3.211713 -5.98687,-7.286109 -5.98687,-12.223186 V -128.9795 l 9.49999,-3.25328 v 39.798097 c 0,4.251091 1.37199,7.525165 4.11597,9.822213 2.74398,2.297036 6.29869,3.398784 10.65372,3.31564 4.35502,-0.09355 9.02186,-1.777358 13.97974,-5.072205 v -46.429385 h 9.49999 z"
         style="fill:#646464;fill-opacity:1;stroke-width:0.58698368"
         id="path48" /><path
         id="path1948"
         d="m 55.355367,-161.14049 c -4.887804,0.0227 -9.555548,0.43957 -13.662681,1.16633 -12.099101,2.13751 -14.295829,6.61151 -14.29583,14.86233 v 10.89682 h 28.59166 v 3.63228 H 27.396856 16.666653 c -8.3095325,0 -15.5855969,4.9945 -17.8614567,14.49577 -2.6251756,10.89065 -2.7416164,17.686597 0,29.058189 2.0323973,8.464572 6.8860373,14.495769 15.1955677,14.495771 h 9.830465 v -13.062856 c 0,-9.437143 8.165239,-17.761484 17.861457,-17.761484 h 28.558336 c 7.949628,0 14.295833,-6.54547 14.295829,-14.5291 v -27.22539 c 0,-7.7485 -6.536738,-13.56914 -14.295829,-14.86233 -4.91162,-0.8176 -10.007851,-1.18904 -14.895655,-1.16633 z m -15.462156,8.76411 c 2.953322,0 5.365101,2.45118 5.365101,5.46508 -2e-6,3.00321 -2.411779,5.43175 -5.365101,5.43175 -2.96391,-1e-5 -5.365102,-2.42854 -5.365102,-5.43175 -10e-7,-3.0139 2.401192,-5.46508 5.365102,-5.46508 z"
         style="fill:url(#linearGradient1478);fill-opacity:1;stroke-width:0.58698368" /><path
         id="path1950"
         d="m 88.112478,-130.58273 v 12.69629 c 0,9.84327 -8.345187,18.128047 -17.861456,18.128049 H 41.692686 c -7.822607,0 -14.295829,6.695095 -14.29583,14.529095 v 27.225388 c 0,7.748502 6.737862,12.306085 14.29583,14.529095 9.050513,2.661208 17.729481,3.142155 28.558336,0 7.198065,-2.084075 14.295833,-6.278286 14.295829,-14.529095 V -68.900726 H 55.988516 V -72.533 h 28.558335 14.295834 c 8.309535,0 11.406005,-5.796078 14.295815,-14.495771 2.98509,-8.9562 2.85807,-17.569039 0,-29.058189 -2.05356,-8.27219 -5.97571,-14.49577 -14.295815,-14.49577 z m -16.061981,68.946551 c 2.963912,3e-6 5.365101,2.428537 5.365101,5.431746 -2e-6,3.013894 -2.401192,5.465072 -5.365101,5.465072 -2.953325,0 -5.365102,-2.451178 -5.365102,-5.465072 2e-6,-3.003209 2.411773,-5.431746 5.365102,-5.431746 z"
         style="fill:url(#linearGradient1475);fill-opacity:1;stroke-width:0.58698368" /><ellipse
         id="path1894"
         style="opacity:0.44382025;fill:url(#radialGradient1480);fill-opacity:1;fill-rule:nonzero;stroke:none;stroke-width:9.04975224;stroke-miterlimit:4;stroke-dasharray:none;stroke-opacity:1"
         cx="56.312927"
         cy="-24.967018"
         rx="38.315201"
         ry="7.4296317" /></g></g></svg>