<?xml version="1.0" encoding="UTF-8"?>
<!DOCTYPE svg PUBLIC "-//W3C//DTD SVG 1.1//EN" "http://www.w3.org/Graphics/SVG/1.1/DTD/svg11.dtd">
<!-- Creator: CorelDRAW 2017 -->
<svg xmlns="http://www.w3.org/2000/svg" xml:space="preserve" width="162.56mm" height="91.4398mm" version="1.1" style="shape-rendering:geometricPrecision; text-rendering:geometricPrecision; image-rendering:optimizeQuality; fill-rule:evenodd; clip-rule:evenodd"
viewBox="0 0 16256 9144"
 xmlns:xlink="http://www.w3.org/1999/xlink">
 <defs>
  <style type="text/css">
   <![CDATA[
    .fil2 {fill:#2B2A29}
    .fil3 {fill:#727271;fill-rule:nonzero}
    .fil0 {fill:#2B2A29;fill-rule:nonzero}
    .fil1 {fill:#2B2A29;fill-rule:nonzero;fill-opacity:0.301961}
   ]]>
  </style>
   <clipPath id="id0">
    <rect y="2" width="16261" height="3002"/>
   </clipPath>
 </defs>
 <g id="Layer_x0020_1">
  <metadata id="CorelCorpID_0Corel-Layer"/>
  <g id="_993366656">
   <g>
    <polygon class="fil0" points="1119,4734 1068,4734 1229,4355 1283,4355 1445,4734 1391,4734 1342,4615 1216,4615 1230,4575 1325,4575 1254,4403 "/>
    <path id="1" class="fil0" d="M1731 4456l0 278 -34 0 -9 -36c-34,24 -68,36 -102,36 -64,0 -96,-35 -96,-104l0 -175 49 0 0 176c0,41 21,62 62,62 28,0 55,-12 80,-35l0 -202 49 0z"/>
    <path id="2" class="fil0" d="M1811 4411l31 0 11 45 75 0 0 40 -68 0 0 160c0,26 11,39 34,39l34 0 0 40 -47 0c-47,0 -70,-25 -70,-75l0 -248z"/>
    <path id="3" class="fil0" d="M2026 4594c0,67 28,100 84,100 56,0 84,-33 84,-100 0,-66 -28,-98 -84,-98 -56,0 -84,33 -84,98zm-49 1c0,-93 44,-139 133,-139 88,0 133,46 133,139 0,93 -44,139 -133,139 -88,0 -132,-46 -133,-139z"/>
    <path id="4" class="fil0" d="M2308 4734l0 -278 33 0 8 35c27,-23 56,-35 87,-35 40,0 68,13 83,38 30,-26 61,-38 92,-38 64,0 96,35 96,106l0 173 -49 0 0 -175c0,-42 -18,-62 -53,-62 -26,0 -51,12 -74,36l0 202 -49 0 0 -175c0,-42 -17,-63 -52,-63 -28,0 -52,12 -74,36l0 202 -49 0z"/>
    <path id="5" class="fil0" d="M2774 4650c0,-57 38,-86 113,-86 24,0 48,2 73,5l0 -26c0,-32 -25,-48 -75,-48 -29,0 -58,4 -88,13l0 -40c30,-9 59,-13 88,-13 83,0 124,29 124,86l0 192 -28 0 -17 -28c-28,18 -58,28 -91,28 -66,0 -99,-28 -99,-84zm113 -46c-43,0 -64,15 -64,45 0,30 17,45 50,45 34,0 63,-9 86,-27l0 -58c-24,-4 -48,-5 -73,-5z"/>
    <path id="6" class="fil0" d="M3088 4411l31 0 11 45 75 0 0 40 -68 0 0 160c0,26 11,39 34,39l34 0 0 40 -47 0c-47,0 -70,-25 -70,-75l0 -248z"/>
    <path id="7" class="fil0" d="M3321 4456l0 278 -49 0 0 -278 49 0zm0 -101l0 46 -49 0 0 -46 49 0z"/>
    <path id="8" class="fil0" d="M3406 4734l0 -278 33 0 9 35c29,-24 60,-35 94,-35 69,0 104,35 104,104l0 175 -49 0 0 -176c0,-41 -21,-62 -62,-62 -28,0 -55,12 -80,35l0 202 -49 0z"/>
    <path id="9" class="fil0" d="M3912 4503c-17,-4 -38,-6 -62,-6 -59,0 -89,32 -89,96 0,66 28,99 84,99 25,0 48,-5 67,-14l0 -175zm49 231c0,67 -43,101 -128,101 -34,0 -65,-4 -91,-13l0 -40c27,9 58,13 92,13 52,0 78,-20 78,-61l0 -13c-21,9 -43,13 -67,13 -88,0 -132,-47 -132,-141 0,-92 46,-138 139,-138 38,0 74,4 109,11l0 267z"/>
    <path id="10" class="fil0" d="M4465 4719c-31,12 -64,17 -99,17 -137,0 -206,-66 -206,-198 0,-125 66,-187 199,-187 38,0 73,5 106,16l0 42c-33,-12 -66,-19 -101,-19 -103,0 -155,49 -155,147 0,105 51,158 153,158 16,0 34,-2 54,-6l0 -129 49 0 0 158z"/>
    <polygon id="11" class="fil0" points="4603,4355 4603,4734 4554,4734 4554,4355 "/>
    <path id="12" class="fil0" d="M4696 4721l0 -45c40,14 83,21 129,21 65,0 98,-24 98,-72 0,-41 -24,-61 -72,-61l-49 0c-79,0 -119,-34 -119,-103 0,-72 51,-109 153,-109 44,0 85,5 123,16l0 45c-38,-14 -79,-21 -123,-21 -69,0 -103,23 -103,69 0,41 23,61 70,61l49 0c81,0 121,34 121,103 0,74 -49,111 -147,111 -46,0 -89,-5 -129,-16z"/>
    <path id="13" class="fil0" d="M5220 4677c19,10 41,14 64,14 58,0 87,-35 87,-104 0,-61 -29,-91 -86,-91 -25,0 -46,2 -65,6l0 175zm-49 -210c37,-8 75,-11 115,-11 89,0 134,44 134,132 0,97 -45,146 -135,146 -22,0 -44,-4 -65,-13l0 114 -49 0 0 -368z"/>
    <path id="14" class="fil0" d="M5485 4734l0 -278 33 0 9 35c24,-24 54,-35 88,-35l0 41c-33,0 -60,12 -81,35l0 202 -49 0z"/>
    <path id="15" class="fil0" d="M5700 4594c0,67 28,100 84,100 56,0 84,-33 84,-100 0,-66 -28,-98 -84,-98 -56,0 -84,33 -84,98zm-49 1c0,-93 44,-139 133,-139 88,0 133,46 133,139 0,93 -44,139 -133,139 -88,0 -132,-46 -133,-139z"/>
    <path id="16" class="fil0" d="M6192 4726c-23,5 -48,8 -74,8 -99,0 -149,-48 -149,-145 0,-89 50,-134 149,-134 27,0 51,3 74,8l0 40c-23,-5 -49,-8 -77,-8 -65,0 -97,31 -97,94 0,70 32,105 97,105 28,0 54,-3 77,-8l0 40z"/>
    <path id="17" class="fil0" d="M6369 4456c79,0 119,39 119,118 0,11 -1,23 -2,36l-195 0c0,57 33,85 100,85 32,0 60,-4 84,-11l0 40c-25,7 -54,11 -90,11 -96,0 -143,-47 -143,-142 0,-91 43,-136 128,-136zm-79 112l151 0c-1,-49 -25,-73 -72,-73 -50,0 -76,24 -79,73z"/>
    <path id="18" class="fil0" d="M6552 4721l0 -42c33,11 66,16 99,16 44,0 67,-13 67,-40 0,-25 -15,-37 -46,-37l-40 0c-60,0 -90,-27 -90,-82 0,-53 39,-80 116,-80 33,0 66,4 99,13l0 42c-33,-11 -66,-16 -99,-16 -46,0 -69,13 -69,40 0,25 15,37 44,37l40 0c64,0 95,27 95,82 0,53 -39,80 -116,80 -33,0 -67,-4 -99,-13z"/>
    <path id="19" class="fil0" d="M6830 4721l0 -42c33,11 66,16 99,16 44,0 67,-13 67,-40 0,-25 -15,-37 -46,-37l-40 0c-60,0 -90,-27 -90,-82 0,-53 39,-80 116,-80 33,0 66,4 99,13l0 42c-33,-11 -66,-16 -99,-16 -46,0 -69,13 -69,40 0,25 15,37 44,37l40 0c64,0 95,27 95,82 0,53 -39,80 -116,80 -33,0 -67,-4 -99,-13z"/>
    <path id="20" class="fil0" d="M7226 4456c79,0 119,39 119,118 0,11 -1,23 -2,36l-195 0c0,57 33,85 100,85 32,0 60,-4 84,-11l0 40c-25,7 -54,11 -90,11 -96,0 -143,-47 -143,-142 0,-91 43,-136 128,-136zm-79 112l151 0c-1,-49 -25,-73 -72,-73 -50,0 -76,24 -79,73z"/>
    <path id="21" class="fil0" d="M7408 4721l0 -42c33,11 66,16 99,16 44,0 67,-13 67,-40 0,-25 -15,-37 -46,-37l-40 0c-60,0 -90,-27 -90,-82 0,-53 39,-80 116,-80 33,0 66,4 99,13l0 42c-33,-11 -66,-16 -99,-16 -46,0 -69,13 -69,40 0,25 15,37 44,37l40 0c64,0 95,27 95,82 0,53 -39,80 -116,80 -33,0 -67,-4 -99,-13z"/>
    <path class="fil1" d="M1107 4987l-51 0 161 379 54 0 162 -379 -54 0 -49 119 -125 0 13 40 96 0 -71 172 -136 -331zm613 278l0 -278 -34 0 -9 36c-34,-24 -68,-36 -102,-36 -64,0 -96,35 -96,104l0 175 49 0 0 -176c0,-41 21,-62 62,-62 28,0 55,12 80,35l0 202 49 0zm80 45l31 0 11 -45 75 0 0 -40 -68 0 0 -160c0,-26 11,-39 34,-39l34 0 0 -40 -47 0c-47,0 -70,25 -70,75l0 248zm215 -183c0,-67 28,-100 84,-100 56,0 84,33 84,100 0,66 -28,98 -84,98 -56,0 -84,-33 -84,-98zm-49 -1c0,93 44,139 133,139 88,0 133,-46 133,-139 0,-93 -44,-139 -133,-139 -88,0 -132,46 -133,139zm332 -139l0 278 33 0 8 -35c27,23 56,35 87,35 40,0 68,-13 83,-38 30,26 61,38 92,38 64,0 96,-35 96,-106l0 -173 -49 0 0 175c0,42 -18,62 -53,62 -26,0 -51,-12 -74,-36l0 -202 -49 0 0 175c0,42 -17,63 -52,63 -28,0 -52,-12 -74,-36l0 -202 -49 0zm465 84c0,57 38,86 113,86 24,0 48,-2 73,-5l0 26c0,32 -25,48 -75,48 -29,0 -58,-4 -88,-13l0 40c30,9 59,13 88,13 83,0 124,-29 124,-86l0 -192 -28 0 -17 28c-28,-18 -58,-28 -91,-28 -66,0 -99,28 -99,84zm113 46c-43,0 -64,-15 -64,-45 0,-30 17,-45 50,-45 34,0 63,9 86,27l0 58c-24,4 -48,5 -73,5zm201 194l31 0 11 -45 75 0 0 -40 -68 0 0 -160c0,-26 11,-39 34,-39l34 0 0 -40 -47 0c-47,0 -70,25 -70,75l0 248zm233 -45l0 -278 -49 0 0 278 49 0zm0 101l0 -46 -49 0 0 46 49 0zm85 -379l0 278 33 0 9 -35c29,24 60,35 94,35 69,0 104,-35 104,-104l0 -175 -49 0 0 176c0,41 -21,62 -62,62 -28,0 -55,-12 -80,-35l0 -202 -49 0zm506 231c-17,4 -38,6 -62,6 -59,0 -89,-32 -89,-96 0,-66 28,-99 84,-99 25,0 48,5 67,14l0 175zm49 -231c0,-67 -43,-101 -128,-101 -34,0 -65,4 -91,13l0 40c27,-9 58,-13 92,-13 52,0 78,20 78,61l0 13c-21,-9 -43,-13 -67,-13 -88,0 -132,47 -132,141 0,92 46,138 139,138 38,0 74,-4 109,-11l0 -267zm504 15c-31,-12 -64,-17 -99,-17 -137,0 -206,66 -206,198 0,125 66,187 199,187 38,0 73,-5 106,-16l0 -42c-33,12 -66,19 -101,19 -103,0 -155,-49 -155,-147 0,-105 51,-158 153,-158 16,0 34,2 54,6l0 129 49 0 0 -158zm138 364l0 -379 -49 0 0 379 49 0zm93 -366l0 45c40,-14 83,-21 129,-21 65,0 98,24 98,72 0,41 -24,61 -72,61l-49 0c-79,0 -119,34 -119,103 0,72 51,109 153,109 44,0 85,-5 123,-16l0 -45c-38,14 -79,21 -123,21 -69,0 -103,-23 -103,-69 0,-41 23,-61 70,-61l49 0c81,0 121,-34 121,-103 0,-74 -49,-111 -147,-111 -46,0 -89,5 -129,16zm524 43c19,-10 41,-14 64,-14 58,0 87,35 87,104 0,61 -29,91 -86,91 -25,0 -46,-2 -65,-6l0 -175zm-49 210c37,8 75,11 115,11 89,0 134,-44 134,-132 0,-97 -45,-146 -135,-146 -22,0 -44,4 -65,13l0 -114 -49 0 0 368zm315 -267l0 278 33 0 9 -35c24,24 54,35 88,35l0 -41c-33,0 -60,-12 -81,-35l0 -202 -49 0zm215 140c0,-67 28,-100 84,-100 56,0 84,33 84,100 0,66 -28,98 -84,98 -56,0 -84,-33 -84,-98zm-49 -1c0,93 44,139 133,139 88,0 133,-46 133,-139 0,-93 -44,-139 -133,-139 -88,0 -132,46 -133,139zm541 -131c-23,-5 -48,-8 -74,-8 -99,0 -149,48 -149,145 0,89 50,134 149,134 27,0 51,-3 74,-8l0 -40c-23,5 -49,8 -77,8 -65,0 -97,-31 -97,-94 0,-70 32,-105 97,-105 28,0 54,3 77,8l0 -40zm177 270c79,0 119,-39 119,-118 0,-11 -1,-23 -2,-36l-195 0c0,-57 33,-85 100,-85 32,0 60,4 84,11l0 -40c-25,-7 -54,-11 -90,-11 -96,0 -143,47 -143,142 0,91 43,136 128,136zm-79 -112l151 0c-1,49 -25,73 -72,73 -50,0 -76,-24 -79,-73zm261 -153l0 42c33,-11 66,-16 99,-16 44,0 67,13 67,40 0,25 -15,37 -46,37l-40 0c-60,0 -90,27 -90,82 0,53 39,80 116,80 33,0 66,-4 99,-13l0 -42c-33,11 -66,16 -99,16 -46,0 -69,-13 -69,-40 0,-25 15,-37 44,-37l40 0c64,0 95,-27 95,-82 0,-53 -39,-80 -116,-80 -33,0 -67,4 -99,13zm278 0l0 42c33,-11 66,-16 99,-16 44,0 67,13 67,40 0,25 -15,37 -46,37l-40 0c-60,0 -90,27 -90,82 0,53 39,80 116,80 33,0 66,-4 99,-13l0 -42c-33,11 -66,16 -99,16 -46,0 -69,-13 -69,-40 0,-25 15,-37 44,-37l40 0c64,0 95,-27 95,-82 0,-53 -39,-80 -116,-80 -33,0 -67,4 -99,13zm396 265c79,0 119,-39 119,-118 0,-11 -1,-23 -2,-36l-195 0c0,-57 33,-85 100,-85 32,0 60,4 84,11l0 -40c-25,-7 -54,-11 -90,-11 -96,0 -143,47 -143,142 0,91 43,136 128,136zm-79 -112l151 0c-1,49 -25,73 -72,73 -50,0 -76,-24 -79,-73zm261 -153l0 42c33,-11 66,-16 99,-16 44,0 67,13 67,40 0,25 -15,37 -46,37l-40 0c-60,0 -90,27 -90,82 0,53 39,80 116,80 33,0 66,-4 99,-13l0 -42c-33,11 -66,16 -99,16 -46,0 -69,-13 -69,-40 0,-25 15,-37 44,-37l40 0c64,0 95,-27 95,-82 0,-53 -39,-80 -116,-80 -33,0 -67,4 -99,13z"/>
   </g>
   <g>
    <path class="fil2" d="M4519 3911l0 2 85 0c-1,2 0,24 0,28l-114 0c-15,0 -29,6 -39,16 -1,1 -2,2 -3,3 -3,4 -6,7 -8,13 -3,6 -5,14 -5,22l0 62c0,7 3,16 6,22 1,2 4,7 5,9l3 4c1,1 1,1 2,2 1,1 1,1 2,2 8,8 23,16 40,16l0 -27c0,-15 3,-27 8,-37 3,-7 8,-14 13,-20 1,-1 1,-1 1,-1l3 -3c4,-5 13,-11 18,-14 2,-1 5,-3 7,-4 5,-2 15,-5 20,-6 1,0 3,0 5,-1 3,0 7,-1 10,-1l113 0 0 -82c0,-18 -5,-31 -17,-43 -12,-12 -25,-17 -43,-17l-56 0c-5,0 -13,1 -17,3 -9,3 -15,7 -21,13 -1,1 -2,2 -3,4 -8,10 -14,22 -14,35z"/>
    <path class="fil2" d="M4718 3969c0,9 -2,19 -4,27 -4,11 -8,18 -15,27l-6 7c-2,2 -5,4 -7,6 -1,1 -2,2 -3,2 -3,2 -10,6 -14,8 -1,0 -2,1 -4,2 -1,1 -3,1 -4,1 -8,3 -18,5 -27,5l-114 0 0 87c0,12 5,23 11,32 8,11 22,20 35,22 4,1 8,1 13,1l53 0c5,0 9,0 13,-1 2,0 6,-2 9,-2 13,-5 23,-13 30,-25 4,-7 8,-17 8,-25 0,-2 0,-2 0,-3l-85 0 0 -28 110 0c10,0 17,-1 25,-5 7,-3 13,-7 18,-12 4,-4 7,-8 10,-13 1,-2 2,-3 3,-5 4,-8 5,-15 5,-25l0 -53c0,-10 -2,-21 -7,-29 0,-1 -1,-1 -1,-2l-4 -6c-1,-1 -1,-1 -2,-2 -1,-1 -1,-1 -2,-2 -5,-5 -9,-8 -16,-12 -7,-4 -15,-6 -25,-6l0 28z"/>
   </g>
  </g>
  <g style="clip-path:url(#id0)">
   <image id="Some_Global_text.png" x="0" y="2" width="16261" height="3002" xlink:href="AutoGIS_Youtube_template_Images\AutoGIS_Youtube_template_ImgID1.png"/>
  </g>
  <path class="fil3" d="M11468 8813l0 -303 37 0 0 109c17,-20 39,-30 65,-30 16,0 30,3 42,10 12,6 20,15 26,27 5,11 8,28 8,49l0 139 -37 0 0 -139c0,-19 -4,-32 -12,-41 -8,-8 -19,-13 -34,-13 -11,0 -21,3 -31,9 -10,6 -17,13 -21,23 -4,10 -6,23 -6,40l0 120 -37 0z"/>
  <path id="1" class="fil3" d="M11785 8780l5 33c-10,2 -20,3 -28,3 -13,0 -24,-2 -31,-6 -7,-4 -13,-10 -16,-17 -3,-7 -5,-22 -5,-44l0 -127 -28 0 0 -29 28 0 0 -54 37 -22 0 77 37 0 0 29 -37 0 0 129c0,11 1,18 2,21 1,3 3,5 6,7 3,2 7,3 13,3 4,0 10,0 16,-1z"/>
  <path id="2" class="fil3" d="M11902 8780l5 33c-10,2 -20,3 -28,3 -13,0 -24,-2 -31,-6 -7,-4 -13,-10 -16,-17 -3,-7 -5,-22 -5,-44l0 -127 -28 0 0 -29 28 0 0 -54 37 -22 0 77 37 0 0 29 -37 0 0 129c0,11 1,18 2,21 1,3 3,5 6,7 3,2 7,3 13,3 4,0 10,0 16,-1z"/>
  <path id="3" class="fil3" d="M11939 8897l0 -304 34 0 0 29c8,-11 17,-20 27,-25 10,-6 22,-8 37,-8 19,0 35,5 50,14 14,10 25,23 32,41 7,18 11,37 11,58 0,22 -4,43 -12,61 -8,18 -20,32 -35,41 -15,10 -31,14 -48,14 -12,0 -24,-3 -33,-8 -10,-5 -18,-12 -24,-20l0 107 -37 0zm34 -193c0,28 6,49 17,62 11,13 25,20 41,20 17,0 31,-7 42,-21 12,-14 18,-36 18,-65 0,-28 -6,-49 -17,-63 -12,-14 -25,-21 -41,-21 -16,0 -30,7 -42,22 -12,15 -18,36 -18,64z"/>
  <path id="4" class="fil3" d="M12160 8747l37 -6c2,15 8,26 17,34 9,8 23,12 40,12 17,0 30,-3 38,-10 8,-7 12,-15 12,-24 0,-8 -4,-15 -11,-20 -5,-3 -18,-7 -38,-13 -27,-7 -46,-13 -57,-18 -11,-5 -18,-12 -24,-21 -5,-9 -8,-19 -8,-29 0,-10 2,-19 7,-27 5,-8 11,-15 18,-21 6,-4 14,-8 24,-11 10,-3 21,-4 32,-4 17,0 32,2 45,7 13,5 23,12 29,20 6,9 10,20 13,34l-36 5c-2,-11 -6,-20 -14,-27 -8,-6 -19,-10 -34,-10 -17,0 -29,3 -36,8 -7,6 -11,12 -11,20 0,5 1,9 5,13 3,4 8,7 14,10 4,1 15,5 33,10 26,7 45,13 55,17 10,4 19,11 25,19 6,9 9,19 9,32 0,12 -4,24 -11,35 -7,11 -18,19 -31,25 -14,6 -29,9 -46,9 -29,0 -50,-6 -65,-18 -15,-12 -24,-29 -29,-53z"/>
  <path id="5" class="fil3" d="M12396 8636l0 -42 42 0 0 42 -42 0zm0 177l0 -42 42 0 0 42 -42 0z"/>
  <polygon id="6" class="fil3" points="12476,8818 12564,8505 12594,8505 12506,8818 "/>
  <polygon id="7" class="fil3" points="12593,8818 12682,8505 12712,8505 12623,8818 "/>
  <path id="8" class="fil3" d="M12883 8785c-14,12 -27,20 -40,25 -13,5 -26,7 -41,7 -24,0 -43,-6 -56,-18 -13,-12 -19,-27 -19,-45 0,-11 2,-21 7,-29 5,-9 11,-16 19,-21 8,-5 17,-9 27,-12 7,-2 18,-4 33,-6 30,-4 52,-8 66,-13 0,-5 0,-8 0,-10 0,-15 -4,-26 -11,-32 -10,-8 -24,-13 -42,-13 -18,0 -31,3 -39,9 -8,6 -15,17 -19,33l-36 -5c3,-16 9,-28 16,-38 8,-10 19,-17 33,-22 14,-5 31,-8 50,-8 19,0 34,2 46,7 12,4 20,10 26,17 6,7 9,15 12,25 1,6 2,18 2,34l0 49c0,35 1,56 2,66 1,9 5,18 9,27l-39 0c-4,-8 -6,-17 -7,-28zm-3 -83c-14,6 -34,10 -61,14 -15,2 -26,5 -33,7 -6,3 -11,7 -15,12 -3,5 -5,11 -5,18 0,10 4,18 11,25 8,7 19,10 33,10 14,0 27,-3 38,-9 11,-6 19,-15 25,-26 4,-8 6,-21 6,-37l0 -14z"/>
  <path id="9" class="fil3" d="M13118 8813l0 -33c-17,25 -40,37 -70,37 -13,0 -25,-2 -36,-7 -11,-5 -20,-11 -25,-19 -5,-8 -9,-17 -11,-28 -1,-7 -2,-19 -2,-35l0 -136 37 0 0 122c0,19 1,33 2,39 2,10 7,17 15,23 8,6 17,8 28,8 11,0 22,-3 31,-9 10,-6 17,-14 21,-23 4,-10 6,-24 6,-43l0 -117 37 0 0 220 -33 0z"/>
  <path id="10" class="fil3" d="M13291 8780l5 33c-10,2 -20,3 -28,3 -13,0 -24,-2 -31,-6 -7,-4 -13,-10 -16,-17 -3,-7 -5,-22 -5,-44l0 -127 -28 0 0 -29 28 0 0 -54 37 -22 0 77 37 0 0 29 -37 0 0 129c0,11 1,18 2,21 1,3 3,5 6,7 3,2 7,3 13,3 4,0 10,0 16,-1z"/>
  <path id="11" class="fil3" d="M13314 8703c0,-41 11,-71 34,-90 19,-16 42,-24 69,-24 30,0 55,10 74,30 19,20 29,47 29,82 0,28 -4,50 -13,67 -8,16 -21,29 -37,38 -16,9 -34,13 -53,13 -31,0 -56,-10 -75,-30 -19,-20 -28,-48 -28,-85zm38 0c0,28 6,49 18,63 12,14 28,21 47,21 18,0 34,-7 46,-21 12,-14 18,-35 18,-64 0,-27 -6,-48 -19,-62 -12,-14 -28,-21 -46,-21 -19,0 -34,7 -47,21 -12,14 -18,35 -18,63z"/>
  <path id="12" class="fil3" d="M13556 8831l36 5c1,11 6,19 13,24 9,7 22,10 38,10 17,0 31,-3 40,-10 9,-7 16,-17 19,-29 2,-8 3,-23 3,-48 -16,19 -37,29 -61,29 -30,0 -54,-11 -70,-33 -17,-22 -25,-48 -25,-78 0,-21 4,-40 11,-58 8,-18 19,-31 33,-41 14,-10 31,-14 51,-14 26,0 47,11 64,32l0 -27 34 0 0 190c0,34 -3,58 -10,73 -7,14 -18,26 -33,34 -15,8 -34,12 -56,12 -26,0 -47,-6 -63,-18 -16,-12 -24,-29 -23,-53zm30 -132c0,29 6,50 17,63 12,13 26,20 43,20 17,0 31,-7 43,-20 12,-13 17,-34 17,-62 0,-27 -6,-47 -18,-61 -12,-14 -26,-20 -43,-20 -17,0 -31,7 -42,20 -12,13 -17,33 -17,60z"/>
  <path id="13" class="fil3" d="M13798 8552l0 -42 37 0 0 42 -37 0zm0 261l0 -220 37 0 0 220 -37 0z"/>
  <path id="14" class="fil3" d="M13878 8747l37 -6c2,15 8,26 17,34 9,8 23,12 40,12 17,0 30,-3 38,-10 8,-7 12,-15 12,-24 0,-8 -4,-15 -11,-20 -5,-3 -18,-7 -38,-13 -27,-7 -46,-13 -57,-18 -11,-5 -18,-12 -24,-21 -5,-9 -8,-19 -8,-29 0,-10 2,-19 7,-27 5,-8 11,-15 18,-21 6,-4 14,-8 24,-11 10,-3 21,-4 32,-4 17,0 32,2 45,7 13,5 23,12 29,20 6,9 10,20 13,34l-36 5c-2,-11 -6,-20 -14,-27 -8,-6 -19,-10 -34,-10 -17,0 -29,3 -36,8 -7,6 -11,12 -11,20 0,5 1,9 5,13 3,4 8,7 14,10 4,1 15,5 33,10 26,7 45,13 55,17 10,4 19,11 25,19 6,9 9,19 9,32 0,12 -4,24 -11,35 -7,11 -18,19 -31,25 -14,6 -29,9 -46,9 -29,0 -50,-6 -65,-18 -15,-12 -24,-29 -29,-53z"/>
  <polygon id="15" class="fil3" points="14115,8813 14115,8771 14157,8771 14157,8813 "/>
  <path id="16" class="fil3" d="M14215 8831l36 5c1,11 6,19 13,24 9,7 22,10 38,10 17,0 31,-3 40,-10 9,-7 16,-17 19,-29 2,-8 3,-23 3,-48 -16,19 -37,29 -61,29 -30,0 -54,-11 -70,-33 -17,-22 -25,-48 -25,-78 0,-21 4,-40 11,-58 8,-18 19,-31 33,-41 14,-10 31,-14 51,-14 26,0 47,11 64,32l0 -27 34 0 0 190c0,34 -3,58 -10,73 -7,14 -18,26 -33,34 -15,8 -34,12 -56,12 -26,0 -47,-6 -63,-18 -16,-12 -24,-29 -23,-53zm30 -132c0,29 6,50 17,63 12,13 26,20 43,20 17,0 31,-7 43,-20 12,-13 17,-34 17,-62 0,-27 -6,-47 -18,-61 -12,-14 -26,-20 -43,-20 -17,0 -31,7 -42,20 -12,13 -17,33 -17,60z"/>
  <path id="17" class="fil3" d="M14457 8552l0 -42 37 0 0 42 -37 0zm0 261l0 -220 37 0 0 220 -37 0z"/>
  <path id="18" class="fil3" d="M14632 8780l5 33c-10,2 -20,3 -28,3 -13,0 -24,-2 -31,-6 -7,-4 -13,-10 -16,-17 -3,-7 -5,-22 -5,-44l0 -127 -28 0 0 -29 28 0 0 -54 37 -22 0 77 37 0 0 29 -37 0 0 129c0,11 1,18 2,21 1,3 3,5 6,7 3,2 7,3 13,3 4,0 10,0 16,-1z"/>
  <path id="19" class="fil3" d="M14669 8813l0 -303 37 0 0 109c17,-20 39,-30 65,-30 16,0 30,3 42,10 12,6 20,15 26,27 5,11 8,28 8,49l0 139 -37 0 0 -139c0,-19 -4,-32 -12,-41 -8,-8 -19,-13 -34,-13 -11,0 -21,3 -31,9 -10,6 -17,13 -21,23 -4,10 -6,23 -6,40l0 120 -37 0z"/>
  <path id="20" class="fil3" d="M15048 8813l0 -33c-17,25 -40,37 -70,37 -13,0 -25,-2 -36,-7 -11,-5 -20,-11 -25,-19 -5,-8 -9,-17 -11,-28 -1,-7 -2,-19 -2,-35l0 -136 37 0 0 122c0,19 1,33 2,39 2,10 7,17 15,23 8,6 17,8 28,8 11,0 22,-3 31,-9 10,-6 17,-14 21,-23 4,-10 6,-24 6,-43l0 -117 37 0 0 220 -33 0z"/>
  <path id="21" class="fil3" d="M15174 8813l-35 0 0 -303 37 0 0 108c16,-20 36,-29 60,-29 13,0 26,3 38,8 12,5 22,13 30,23 8,10 14,22 18,36 4,14 7,29 7,45 0,38 -9,67 -28,87 -19,21 -41,31 -67,31 -26,0 -46,-11 -61,-32l0 28zm0 -111c0,26 4,45 11,57 12,19 28,29 47,29 16,0 30,-7 42,-21 12,-14 18,-35 18,-63 0,-29 -6,-50 -17,-63 -11,-14 -25,-20 -41,-20 -16,0 -30,7 -42,21 -12,14 -18,35 -18,61z"/>
  <polygon id="22" class="fil3" points="15386,8813 15386,8771 15428,8771 15428,8813 "/>
  <path id="23" class="fil3" d="M15493 8552l0 -42 37 0 0 42 -37 0zm0 261l0 -220 37 0 0 220 -37 0z"/>
  <path id="24" class="fil3" d="M15573 8703c0,-41 11,-71 34,-90 19,-16 42,-24 69,-24 30,0 55,10 74,30 19,20 29,47 29,82 0,28 -4,50 -13,67 -8,16 -21,29 -37,38 -16,9 -34,13 -53,13 -31,0 -56,-10 -75,-30 -19,-20 -28,-48 -28,-85zm38 0c0,28 6,49 18,63 12,14 28,21 47,21 18,0 34,-7 46,-21 12,-14 18,-35 18,-64 0,-27 -6,-48 -19,-62 -12,-14 -28,-21 -46,-21 -19,0 -34,7 -47,21 -12,14 -18,35 -18,63z"/>
 </g>
</svg>
