<?xml version="1.0" encoding="UTF-8" standalone="no"?>
<svg
   width="595"
   height="300"
   viewbox="0 0 1000 516"
   version="1.1"
   id="svg265"
   sodipodi:docname="multipolygons.svg"
   inkscape:version="1.2.1 (9c6d41e410, 2022-07-14, custom)"
   xmlns:inkscape="http://www.inkscape.org/namespaces/inkscape"
   xmlns:sodipodi="http://sodipodi.sourceforge.net/DTD/sodipodi-0.dtd"
   xmlns="http://www.w3.org/2000/svg"
   xmlns:svg="http://www.w3.org/2000/svg"
   xmlns:qgis="https://austromorph.space/qgis">
  <sodipodi:namedview
     id="namedview267"
     pagecolor="#ffffff"
     bordercolor="#666666"
     borderopacity="1.0"
     inkscape:showpageshadow="2"
     inkscape:pageopacity="0.0"
     inkscape:pagecheckerboard="0"
     inkscape:deskcolor="#d1d1d1"
     showgrid="false"
     inkscape:zoom="1.7564642"
     inkscape:cx="314.26772"
     inkscape:cy="181.04554"
     inkscape:window-width="1920"
     inkscape:window-height="1011"
     inkscape:window-x="0"
     inkscape:window-y="0"
     inkscape:window-maximized="1"
     inkscape:current-layer="svg265" />
  <defs
     id="defs245">
    <style
       type="text/css"
       id="style243"><![CDATA[
                .SingleSymbol {
                    fill: #000000;
                    stroke: #000000;
                }
            ]]></style>
  </defs>
  <path
     d="m 476.5909,174.21734 v 0 0 l 3.55132,-0.92365 3.30808,-0.58335 4.91347,-3.93765 2.18916,-4.71544 -2.04322,-2.72232 0.14595,-1.84729 3.50267,-7.43776 -1.11891,-3.45152 -3.11348,-0.58335 -1.26486,-3.88902 0.63242,-5.29881 -2.28646,-0.87502 0.58378,-1.507 1.94592,0.24306 0.48649,2.13896 3.74591,-4.1807 0.53514,-1.75006 -2.52971,-2.04174 4.0378,-1.40977 0.77837,-3.64596 3.89186,-2.33342 1.84863,-0.14584 3.98915,5.15296 3.25943,-5.63909 4.08646,-2.13897 0.0486,-4.32653 7.83236,-1.89591 2.7243,-4.27792 2.7243,0.34028 0.24324,1.55561 3.21078,0.77781 0.68108,1.65283 2.18917,-4.90989 -3.16213,-1.94451 0.38918,-0.87504 2.82159,-0.14583 -1.07026,1.26393 2.18917,0.68058 1.75134,-3.30567 1.79999,2.47925 -1.31351,1.06948 1.02161,1.40978 -1.1189,0.97226 1.26485,0.87502 -1.2162,1.40977 1.50809,1.02087 1.2162,-1.11809 3.30808,2.13896 -4.0378,3.59735 1.45945,0.82643 -1.50809,2.57648 1.41079,0.63197 -1.50809,5.05573 -4.71888,1.75006 4.3297,4.521 -1.41081,1.40977 3.06484,7.9725 -13.76744,2.52787 -0.68108,-3.15983 -2.28646,3.79179 -5.05942,0.3403 -1.99457,-5.00713 -7.19994,-2.04174 -3.89186,1.02087 -0.24324,3.69458 -2.62701,0.82642 -1.50809,2.2848 -1.79998,-1.36116 -1.50809,3.014 9.77828,3.88903 5.05942,-0.53474 1.4108,1.65283 -0.38918,3.64596 3.30807,2.38204 -1.45945,2.81954 -2.33511,1.06948 0.77837,4.1807 -5.30266,4.86129 -3.79455,-0.24307 -1.21621,2.09036 -0.82702,-1.84729 -2.52971,0.29168 1.11891,2.18758 -1.65403,2.96538 2.04322,1.70145 1.79998,4.9585 -1.3135,2.67371 -2.28646,0.0486 0.77836,1.79868 -1.36214,3.69457 2.33511,0.63196 0.0973,4.27793 3.98915,-0.82641 0.92432,2.04174 -4.13511,3.20845 0.68108,1.99312 3.16213,1.507 -5.15671,2.72232 1.55674,-0.34029 3.25944,2.77093 -2.09188,0.82642 -1.84862,-0.92365 -1.16757,1.16672 -5.39995,-1.45839 -0.43783,1.36116 -2.52971,-0.0972 -0.87566,-1.45838 -0.72973,4.86128 -1.70268,0.19445 -1.70269,2.47925 -1.45945,-0.53474 -1.21621,3.35429 -7.58911,6.70857 -3.98916,0.43752 0.92431,-4.61822 3.55133,-4.95851 h 1.60539 l 1.50809,-5.34741 2.18917,-0.29168 -4.71887,-7.48638 1.70268,-6.65996 -4.23239,-15.99362 -3.01619,-4.81267 1.16755,-0.48613 3.11349,-3.59735 -0.0486,1.21532 1.50809,0.0486 -0.43782,-1.75007 0.97296,-0.0486 z"
     class="SingleSymbol"
     qgis:fid="Austria_PopulationByNUTS2.0"
     qgis:nuts2="AT11"
     qgis:pop20170101="291974"
     qgis:area_km2="3957.21"
     id="path247"
     style="fill:none;stroke-width:0.377953" />
  <path
     d="m 339.40293,219.76757 2.57836,-0.97226 0.24324,-2.91677 3.30808,-0.43752 3.79456,-3.25706 0.34054,-1.75006 2.04322,0.72919 0.0973,0.0486 h 0.0487 v 0 0 0 0 -0.0486 l 2.627,-2.33341 2.09187,4.81266 0.97297,-0.82641 7.44318,0.87503 1.36215,4.1807 2.82159,-1.99312 1.75134,0.43751 0.0486,-1.75006 0.87567,0.58336 2.14052,-1.75007 v 0 0 0 0.0486 l 0.72973,1.60422 4.0378,-0.43751 2.38376,1.31254 0.77838,-1.45838 6.51885,-0.34029 0.77838,-1.36116 5.78914,-1.94452 4.76752,4.56961 3.55131,1.02087 4.62159,7.53499 -1.21621,2.67371 0.82702,3.30567 -2.67565,5.6877 3.55132,1.36117 0.97297,5.15296 -1.31351,3.98625 1.84863,0.19445 0.97297,1.70145 -3.16213,1.11809 -2.33512,3.74319 -1.60539,-2.91677 -2.09188,1.16671 -0.19459,1.79868 -3.21078,-0.43752 -2.96754,5.83354 -0.19459,3.45152 -5.05942,0.48612 -0.77836,1.40977 -0.92432,-0.87502 -0.92432,3.4515 -6.71345,2.6251 -1.99458,6.12521 -2.8216,-5.15296 -2.77295,1.36116 -2.38376,-0.87503 -0.87567,-2.23619 -6.7621,1.60422 -2.8216,-1.1667 -7.78371,1.02087 -2.77295,-4.03487 -4.62157,-1.507 -2.87025,1.16671 -6.17832,-3.74319 -7.68643,1.55561 -11.18908,-3.40289 -3.35673,0.29167 -0.63243,-1.21532 -2.7243,0.48613 -1.02161,-1.84729 -5.05942,0.82642 -3.50267,-1.99312 -3.35672,2.62508 -3.35673,-0.97225 -1.94592,0.92365 -4.62158,-3.50013 -15.61608,-2.13897 -4.91347,0.53474 -1.36215,-2.52787 -4.47564,-1.60422 -2.04322,1.31255 -2.62701,-2.18758 -0.0486,-4.27793 2.09187,-0.0486 -0.0486,-3.59734 4.62158,-1.40977 3.25943,0.72918 3.74592,-2.57648 2.09187,1.21533 2.23782,-2.43064 -8.02696,-6.75719 -0.24324,-4.86129 -5.93508,-4.5696 -1.26485,-3.35428 3.11348,-4.13209 -3.74591,-0.48613 -3.64861,-5.20158 0.58377,-2.18758 4.08645,-0.72919 0.58378,2.91677 12.06476,1.99313 2.48105,3.88902 3.40538,-0.24306 3.55132,2.67371 0.48649,-1.26394 10.84854,-2.23619 v -3.30567 l 1.89728,-0.87504 2.09187,0.82643 3.40538,-1.16671 2.57836,2.77093 3.55132,-1.06948 7.68642,2.62509 3.89186,-0.29168 0.68106,1.507 2.9189,-0.0972 0.0486,3.20844 4.18374,1.60422 1.70269,4.27794 4.1351,3.20845 6.61615,-3.15984 1.07027,-1.99312 v 0.0486 h 0.0486 z"
     class="SingleSymbol"
     qgis:fid="Austria_PopulationByNUTS2.1"
     qgis:nuts2="AT21"
     qgis:pop20170101="561098"
     qgis:area_km2="9542.04"
     id="path249"
     style="fill:none;stroke-width:0.377953" />
  <path
     d="m 383.42957,66.248218 1.84863,-1.701449 -0.63243,-4.520995 1.26486,-4.375155 4.57293,-3.645963 -0.0487,-4.229317 4.52428,-0.194452 4.71888,1.993127 1.4108,-1.36116 -1.65404,-1.652836 2.23782,-10.792051 -1.16756,-6.319669 0.82702,-3.645963 1.84867,-1.069482 2.77295,0.534741 v 1.36116 l 5.69184,0.486128 0.38919,4.861284 3.9405,-1.847288 2.33512,0.534741 0.97296,-3.889027 1.70269,1.555611 3.79456,-0.486128 3.64862,2.770931 2.7243,-0.09722 2.87024,3.500124 6.22698,1.312547 4.91346,3.840414 3.98916,0.243065 1.55674,-2.187578 3.84321,-0.34029 0.14594,1.652836 3.45403,0.923645 -0.24324,1.312546 4.08644,0.972256 -0.48648,1.70145 2.87025,2.333416 6.90804,2.965384 14.20528,0.777805 0.77838,-1.36116 2.23781,1.506999 3.40538,-3.645963 1.41079,-4.132092 3.69727,0.875032 1.3135,-1.555611 3.40538,2.819544 h 4.37834 l 1.4108,4.95851 2.57835,-1.118095 4.86482,2.819544 4.86482,-1.847288 2.38377,1.895901 0.48648,7.486377 1.36215,0.437516 1.16756,6.951636 -6.08103,9.090601 0.97297,2.819545 -1.75135,3.791801 0.82703,2.770933 4.18374,2.138964 -0.82701,1.506998 1.75133,3.402899 2.38376,0.826418 -0.58378,2.625093 2.18917,5.930772 3.30808,2.77093 1.94593,-0.34029 0.68107,2.33342 -1.75133,3.30567 -2.18917,-0.68058 1.07026,-1.26393 -2.8216,0.14583 -0.38918,0.87504 3.16213,1.94451 -2.18917,4.90989 -0.68108,-1.65283 -3.21077,-0.77781 -0.24324,-1.55561 -2.72431,-0.34028 -2.72429,4.27792 -7.83237,1.89591 -0.0486,4.32653 -4.08646,2.13897 -3.25943,5.63909 -3.98915,-5.15296 -1.84863,0.14584 -3.89186,2.33342 -0.77837,3.64596 -4.0378,1.40977 2.52971,2.04174 -0.53513,1.75006 -3.74591,4.1807 -0.48649,-2.13896 -1.94593,-0.24306 -0.58377,1.507 2.28646,0.87502 -0.63243,5.29881 1.26486,3.88902 3.11348,0.58335 1.11891,3.45152 -3.50267,7.43776 -0.14594,1.84728 2.04322,2.72232 -2.18917,4.71544 -4.91347,3.93765 -3.30808,0.58335 -3.79456,-4.76406 -0.53513,-4.76406 -3.16213,3.93764 -2.77295,-2.96538 -6.56751,-1.06948 -0.72973,-3.014 -3.69726,-0.34028 0.48649,-5.05574 -4.96212,-1.89591 -2.23782,1.1181 -1.26485,-1.36115 -0.68108,-6.12523 -2.43241,1.26394 -2.77295,-1.45839 -1.94593,-3.4029 -5.88643,0.68058 -0.38919,-1.94451 -3.74591,-0.3889 -0.77837,-1.70145 -1.79999,0.63197 -0.34054,-2.6251 -1.99457,-1.16671 -4.86482,0.58336 -0.63243,2.86815 -4.47564,-0.43751 -1.02161,4.08347 -3.84321,-0.68057 -0.53512,1.36116 -3.84321,0.7778 -2.62701,-1.1667 -3.55132,0.92364 -2.82159,3.15984 -3.25943,-0.43752 -1.07026,-2.33342 -2.67565,-0.24306 -3.25944,1.75006 -1.84862,-2.09036 -1.75135,-3.8404 1.26486,-1.36117 -1.36215,-1.02087 0.82702,-2.47925 -0.97297,-0.87503 3.50268,-2.23619 -0.43784,-2.52787 -2.04322,-3.20845 -1.5081,0.92365 -4.96212,-1.55561 -8.51343,-5.05574 -2.38377,-4.18071 0.0973,-2.96538 -0.24324,-0.58335 0.92432,-0.48613 -0.68108,-0.53474 2.23781,-1.99313 -1.75133,-0.97225 0.63243,-1.1181 -0.68107,-1.36116 1.02161,-2.43063 -0.1946,-2.72232 0.63244,-1.94451 1.79997,-1.312549 3.94051,1.215319 3.30808,4.08348 3.55132,2.09035 0.92431,-0.53474 0.63243,-1.507 1.5081,0.58336 5.83778,-1.79868 1.45945,-1.8473 0.0973,-1.506999 1.5081,-0.72919 3.64862,0.14584 1.3135,2.382029 0.97297,0.43753 -1.45945,-1.79868 1.36215,-1.507009 -0.24324,-1.11808 1.3135,-0.87503 -0.43784,-5.784937 -0.43784,-0.583354 -2.33511,-0.04861 1.21621,-5.97938 -1.75133,-0.680579 -1.31351,0.583353 2.04323,-2.333416 -2.38377,-1.506997 -0.87566,-1.895902 -1.45945,-0.486128 -0.58378,-2.236191 1.4108,-0.68058 0.14595,-1.166707 h 1.65403 l 0.14595,-0.68058 -1.6054,-1.604224 -3.21077,-0.583354 -0.43784,-1.263934 -1.94593,-1.118096 -1.55674,-0.388902 -0.58378,0.486129 -0.97297,-0.777806 -1.31349,1.118095 -1.55674,-2.430642 z m 94.76672,36.459632 2.67565,1.60422 -0.0973,1.65284 1.11892,-0.19446 -1.21621,1.31256 3.30808,-1.06949 2.57835,1.26393 0.77838,-1.79867 5.64318,1.65284 1.5081,-0.24307 -0.34053,-1.65284 2.77294,-1.94451 2.43241,-0.19445 3.84322,1.99313 0.0486,-1.40978 -2.67565,-2.09035 0.29188,-8.458631 -2.14052,-0.340291 -1.16755,-2.284803 -1.45945,1.555611 -3.16213,-4.132092 h -2.09188 l -1.16755,3.889028 -1.4108,-0.777806 -3.50267,1.944514 -2.09187,3.062611 -3.21079,-2.138967 -1.21621,3.889027 1.55675,1.21532 z"
     class="SingleSymbol"
     qgis:fid="Austria_PopulationByNUTS2.2"
     qgis:nuts2="AT12"
     qgis:pop20170101="1665815"
     qgis:area_km2="19190.88"
     id="path251"
     style="fill:none;stroke-width:0.377953" />
  <path
     d="m 323.25173,170.71721 v 0.0486 l -0.0487,0.0972 -0.29189,2.04173 -8.36749,-1.26393 -4.47564,-2.04174 -2.57835,-3.4029 0.14594,-3.35429 2.87025,-4.71544 -2.52971,-2.18758 4.28104,-6.85441 -7.34588,-2.38203 1.84864,-4.42377 3.25943,1.31255 1.2162,-0.38891 -0.38919,-1.94451 -8.90262,0.29168 -6.56751,-3.4029 -0.34053,-11.7643 1.70268,-0.87504 3.21078,2.33342 0.87567,-3.54874 -4.47563,-1.75006 -0.2919,-1.40977 -6.22696,3.40289 -3.30809,0.38891 0.24324,-2.33342 -1.79997,0.53474 -2.9189,-1.40977 -2.09188,-3.54873 -4.08645,1.70144 -2.38375,-1.26393 -3.06485,4.27793 -1.99457,-0.53474 -6.22697,-7.24331 -0.63243,-2.52787 0.48648,-2.52787 1.75134,0.29168 5.39995,-7.34054 5.39995,-0.68058 3.84321,-4.375159 4.0378,-1.99312 11.23774,-1.604228 9.38911,-7.389151 3.11348,-13.076854 -1.3135,-4.229317 h 2.38376 l 2.09187,-3.257061 13.91339,7.097474 1.45945,-4.618219 0.97296,0.972257 1.94593,-1.895901 1.5081,-4.27793 -0.77837,-6.903023 1.45945,-0.826419 -2.62701,-1.361159 2.96754,-5.444638 13.57285,9.236439 -0.34053,1.944514 -2.67565,1.263934 2.33511,1.166708 1.2162,3.062609 12.84313,1.118095 3.89186,2.72232 1.5081,-2.138966 1.89727,0.243065 -0.14594,-1.993127 2.82159,0.291677 1.5081,-3.402899 -0.77837,-1.701449 1.60539,-0.534741 2.14052,2.91677 3.69727,1.263934 3.01619,-2.382029 3.35673,4.326543 1.75133,-0.291677 1.36215,0.583353 1.55674,2.430642 1.3135,-1.118095 0.97297,0.777806 0.58378,-0.486129 1.55674,0.388903 1.94593,1.118095 0.43783,1.263935 3.21078,0.583353 1.60539,1.604224 -0.14594,0.68058 h -1.65404 l -0.14595,1.166708 -1.41079,0.680579 0.58377,2.236191 1.45945,0.486129 0.87567,1.895901 2.38376,1.506998 -2.04322,2.333416 1.3135,-0.583354 1.75134,0.68058 -1.21621,5.979379 2.33511,0.04861 0.43784,0.583353 0.43783,5.784932 -1.3135,0.87503 0.24324,1.11809 -1.36215,1.506999 1.45945,1.79868 -0.97297,-0.43752 -1.3135,-2.382029 -3.64862,-0.14584 -1.50809,0.7292 -0.0973,1.506989 -1.45945,1.84729 -5.83778,1.79868 -1.5081,-0.58336 -0.63243,1.507 -0.92432,0.53474 -3.55131,-2.09035 -3.30808,-4.08348 -3.94051,-1.215319 -1.79998,1.312549 -0.63243,1.94451 0.1946,2.72232 -1.02162,2.43064 0.68108,1.36117 -0.63243,1.11809 1.75133,0.97226 -2.23781,1.99313 0.68107,0.53474 -0.92431,0.48613 0.24324,0.58335 -0.0973,2.96538 2.38376,4.18071 8.51344,5.05573 4.96212,1.55561 1.50809,-0.92364 2.04323,3.20844 0.43784,2.52787 -3.50268,2.23619 0.97297,0.87503 -0.82702,2.47926 1.36214,1.02087 -1.26485,1.36116 1.75134,3.84041 -2.67566,-1.55561 -3.06483,3.84041 -7.34588,1.26394 -0.87567,3.01399 -2.23782,0.19446 -2.87024,2.62509 -2.48106,0.0486 -0.38919,1.55561 -4.96211,2.86815 -3.69727,-0.58335 -2.09187,-2.72232 0.58378,-0.82642 -1.70269,-0.14583 -9.82694,3.45151 0.24324,-4.81268 -2.87024,-3.06261 -5.78914,-0.34028 -2.77295,-1.99313 -1.65404,1.11809 -4.67023,-0.34029 -2.52971,4.18071 -1.94592,0.92364 -0.68108,3.014 -0.0487,5.00712 2.62701,0.24306 1.3135,2.28481 0.29189,3.06261 -1.36215,2.23619 -0.0486,0.0486 -0.0973,0.0486 -0.38919,0.3889 -0.19459,0.24307 z"
     class="SingleSymbol"
     qgis:fid="Austria_PopulationByNUTS2.3"
     qgis:nuts2="AT31"
     qgis:pop20170101="1465205"
     qgis:area_km2="11974.26"
     id="path253"
     style="fill:none;stroke-width:0.377953" />
  <path
     d="m 335.31649,209.65609 v 0 l -2.62701,7.00026 -5.15671,5.00712 -1.70269,-4.27794 -4.18374,-1.60422 -0.0486,-3.20844 -2.9189,0.0972 -0.68107,-1.507 -3.89186,0.29168 -7.68642,-2.62509 -3.55132,1.06948 -2.57835,-2.77093 -3.40538,1.16671 -2.09188,-0.82643 -1.89728,0.87504 v 3.30567 l -10.84854,2.23619 -0.48649,1.26394 -3.55132,-2.67371 -3.40538,0.24306 -2.48105,-3.88902 -12.06476,-1.99313 -0.58378,-2.91677 -4.08644,0.72919 -0.58378,2.18758 -4.47564,-3.11122 -2.7243,0.29167 -2.96754,-2.62509 -5.20536,1.26394 -1.16756,-0.97226 -2.33511,1.02087 -1.16756,3.014 -6.81075,3.69457 -3.50267,-2.23619 -3.25943,1.06948 -3.30808,-10.54899 1.89728,-4.5696 -2.14052,-2.77093 2.52971,-3.45152 1.84863,1.75007 5.10806,-2.23619 2.77295,0.97225 1.99457,-2.77092 4.96212,2.09035 6.12968,-1.1181 1.65404,-1.26394 -1.02162,-3.15983 1.75134,-2.18758 4.67022,0.19445 3.79457,-4.13209 -0.38919,-2.62509 4.37835,-1.21532 -4.47564,-6.8058 2.48105,-2.72232 -5.88643,-2.52787 0.0486,-2.57648 2.14052,-3.88903 7.92966,-0.48613 1.60539,1.55561 1.5081,-0.97225 -1.45945,2.09035 4.18374,3.74319 -2.91889,3.06261 1.55674,2.77094 2.8216,0.3889 3.84321,4.66683 3.64861,2.09035 0.77838,-0.92364 1.50809,1.94451 2.96754,-2.62509 -1.07025,-3.84042 1.75133,-2.77093 -0.87567,-1.99312 1.70269,-0.3403 -0.48648,-1.36115 2.28646,-3.15984 -1.11891,-4.90989 -3.98915,-3.40291 -2.8216,1.45839 -4.37834,-1.55561 6.37292,-11.66708 -4.1351,-9.04199 -4.0378,-1.8959 -0.87567,-3.15984 1.99458,0.53474 3.06484,-4.27793 2.38376,1.26394 4.08644,-1.70145 2.09188,3.54873 2.9189,1.40978 1.79998,-0.53474 -0.24324,2.33341 3.30808,-0.3889 6.22696,-3.40289 0.2919,1.40977 4.47563,1.75005 -0.87567,3.54875 -3.21078,-2.33342 -1.70268,0.87503 0.34053,11.76431 6.56751,3.4029 8.90262,-0.29168 0.38919,1.94451 -1.2162,0.3889 -3.25943,-1.31254 -1.84864,4.42377 7.34588,2.38202 -4.28104,6.85441 2.52971,2.18759 -2.87025,4.71544 -0.14594,3.35428 2.57835,3.40291 4.47564,2.04174 -1.36215,5.44463 v 0 0.0486 l 2.82159,12.54212 6.71346,2.23619 0.82701,-1.79868 2.28647,1.1181 3.59997,-2.81955 0.43784,2.72232 2.82159,1.8473 -1.02161,1.84728 2.9189,3.7918 v 0.0486 h 0.0486 v 0 0 h -0.0486 v 0 l 4.23239,2.72232 h 0.0486 v 0 0 0.0486 0 0 l 1.99458,2.6251 -2.28647,0.53474 -1.21621,-1.16671 -3.8432,3.40289 v 0 0 0 0.0486 z"
     class="SingleSymbol"
     qgis:fid="Austria_PopulationByNUTS2.4"
     qgis:nuts2="AT32"
     qgis:pop20170101="549372"
     qgis:area_km2="7132.61"
     id="path255"
     style="fill:none;stroke-width:0.377953" />
  <path
     d="m 339.40293,219.76757 v 0 l -0.0486,-0.0486 -1.07026,1.99313 -6.61616,3.15983 -4.13509,-3.20844 5.1567,-5.00713 2.62701,-7.00025 v 0 0 l -1.79999,-2.77093 v -0.0486 0 l 3.84321,-3.40289 1.21621,1.1667 2.28647,-0.53474 -1.99459,-2.62509 v 0 -0.0486 h -0.0486 l -4.23239,-2.72231 h 0.0486 v 0 l -0.0486,-0.0486 -2.9189,-3.7918 1.02162,-1.84729 -2.8216,-1.84729 -0.43783,-2.72232 -3.59997,2.81955 -2.28647,-1.1181 -0.82702,1.79867 -6.71345,-2.23618 -2.8216,-12.54212 v -0.0486 l 1.36216,-5.44464 8.36749,1.26393 0.29188,-2.04173 0.0487,-0.14585 0.34053,-0.43751 0.0973,-0.14584 0.0973,-0.0972 0.38919,-0.38891 0.14594,-0.0972 1.36216,-2.23619 -0.2919,-3.06261 -1.3135,-2.28481 -2.627,-0.24306 0.0487,-5.00712 0.68108,-3.014 1.94592,-0.92364 2.52971,-4.18071 4.67023,0.34029 1.65404,-1.11809 2.77295,1.99313 5.78914,0.34028 2.87024,3.06261 -0.24324,4.81268 9.82694,-3.45151 1.70269,0.14583 -0.58378,0.82642 2.09187,2.72232 3.69727,0.58335 4.96211,-2.86815 0.38919,-1.55561 2.48106,-0.0486 2.87024,-2.62509 2.23782,-0.19446 0.87567,-3.01399 7.34588,-1.26394 3.06483,-3.84041 2.67566,1.55561 1.84862,2.09036 3.25944,-1.75007 2.67565,0.24307 1.07026,2.33341 3.25943,0.43752 2.8216,-3.15984 3.55132,-0.92364 2.627,1.16671 3.84321,-0.77781 0.53513,-1.36116 3.84321,0.68058 1.02161,-4.08347 4.47564,0.43751 0.63242,-2.86816 4.86482,-0.58336 1.99458,1.16671 0.34054,2.6251 1.79998,-0.63197 0.77838,1.70145 3.74591,0.3889 0.38918,1.94452 5.88644,-0.68058 1.94593,3.40289 2.77295,1.45839 2.43241,-1.26393 0.68107,6.12522 1.26486,1.36115 2.23781,-1.11809 4.96212,1.8959 -0.48649,5.05574 3.69727,0.34028 0.72973,3.014 6.5675,1.06948 2.77295,2.96539 3.16213,-3.93765 0.53514,4.76406 3.79456,4.76406 -3.55132,0.92365 v 0 0 l -0.97296,0.0486 0.43782,1.75007 -1.50809,-0.0486 0.0486,-1.21532 -3.11349,3.59735 -1.16755,0.48613 3.01619,4.81267 4.23239,15.99362 -1.70269,6.65996 4.71888,7.48637 -2.18917,0.29169 -1.50809,5.3474 h -1.60539 l -3.55133,4.95852 -0.92431,4.61822 -0.48648,7.87528 1.36215,3.25705 1.70268,0.48613 0.72973,5.20158 -8.41614,-4.81267 -4.67023,-1.02087 -4.57294,2.33341 -7.68641,-0.3889 -1.2162,2.47926 -2.33512,-0.87503 -3.25944,2.04174 0.48649,2.91676 -3.01619,2.38204 -2.627,-0.0486 -0.38919,-2.23619 -2.8216,-1.507 -11.57827,1.84729 -5.88643,-1.79867 -5.20536,0.87503 -0.97297,-1.70146 -1.84863,-0.19444 1.3135,-3.98626 -0.97297,-5.15296 -3.55131,-1.36116 2.67565,-5.6877 -0.82702,-3.30568 1.2162,-2.6737 -4.62158,-7.53499 -3.55131,-1.02087 -4.76753,-4.56961 -5.78913,1.94451 -0.77838,1.36117 -6.51886,0.34029 -0.77837,1.45838 -2.38377,-1.31254 -4.03779,0.43751 -0.72973,-1.60422 v -0.0486 0 l -2.14052,1.75006 -0.87567,-0.58336 -0.0486,1.75007 -1.75134,-0.43751 -2.82159,1.99312 -1.36215,-4.1807 -7.44318,-0.87503 -0.97297,0.82641 -2.09187,-4.81267 -2.627,2.33342 v 0.0486 0 0 0 0 l -0.14595,-0.0486 -2.04322,-0.7292 -0.34054,1.75007 -3.79456,3.25706 -3.30808,0.43752 -0.24324,2.91676 z"
     class="SingleSymbol"
     qgis:fid="Austria_PopulationByNUTS2.5"
     qgis:nuts2="AT22"
     qgis:pop20170101="1237372"
     qgis:area_km2="16409.74"
     id="path257"
     style="fill:none;stroke-width:0.377953" />
  <path
     d="m 114.50224,160.60574 -1.55674,-2.09035 3.40537,-0.53475 z m 113.44764,48.80729 6.81075,-3.69457 1.16755,-3.014 2.33512,-1.02087 1.16755,0.97226 5.20536,-1.26394 2.96755,2.62509 2.72429,-0.29167 4.47564,3.11122 3.64862,5.20158 3.74591,0.48613 -3.11348,4.13209 1.26484,3.35428 5.93509,4.5696 0.24324,4.86129 8.02696,6.75719 -2.23782,2.43064 -2.09187,-1.21533 -3.74592,2.57648 -3.25943,-0.72918 -4.62158,1.40977 0.0486,3.59734 -2.09187,0.0486 0.0486,4.27793 -8.12425,0.43752 -3.21079,-2.57648 -4.71887,-0.97226 -4.08645,-3.06261 -1.36215,-5.15296 -4.76752,-0.82641 1.55674,-5.49326 -0.92432,-2.23618 -3.16213,-2.47927 -1.75133,1.55561 -1.6054,-3.0626 -2.96754,-0.77781 1.60539,-2.18758 -2.33511,-2.38202 -0.63243,-4.13209 1.75134,-1.75007 3.69726,-0.14584 0.77837,-2.96538 z m -6.7621,-1.16671 -14.20529,4.22932 -5.254,3.69458 -3.55132,-0.0486 -2.28646,2.18758 -2.23783,-2.33342 -3.01619,0.0972 -2.38375,-2.09035 -5.78914,2.62509 -3.79457,-2.62509 -4.81616,4.22931 -2.96755,-2.52787 -2.48105,-0.24306 -7.39453,2.6251 -2.72431,-0.38891 -0.0973,2.47926 -3.21077,0.68057 -1.26486,1.79868 0.29189,2.13897 -2.04322,3.35428 0.68107,2.96538 -2.87024,1.50701 -1.21621,3.74318 -6.42156,-1.1667 -2.67566,1.11808 -2.627,-1.89589 -1.75133,0.58335 -1.75134,-2.04174 -3.64862,0.63197 2.28647,-3.25706 -6.08103,-5.10435 -7.9783,3.30567 0.48648,-1.1667 -5.35131,-0.68058 1.55675,-7.72944 -4.18375,-2.13897 0.24324,-1.60423 -2.28646,-2.43064 -2.8216,0.92365 -2.67565,3.88903 0.48648,2.13896 -4.864821,-0.7778 -0.729723,6.0766 -5.740489,1.21532 -2.772949,-7.04886 4.232395,-5.39603 -2.189169,-3.74319 2.237818,-2.43064 -1.410799,-3.11122 5.98373,-6.27106 -1.459446,-3.93763 1.216205,-2.09035 -0.972964,-2.18758 1.702688,-1.16672 -2.821597,-1.99312 3.454023,0.0972 6.421568,-3.014 4.37834,-6.51412 2.7243,-0.34029 0.0973,-2.86815 2.57836,-1.94452 -0.34054,-4.22932 -2.23782,-2.57648 1.65404,-4.86128 7.39453,2.38202 1.79998,-3.35428 5.93509,1.21532 0.14594,1.36116 4.08645,1.06949 1.11891,1.99312 7.29723,-1.99312 1.70269,2.33341 -2.96755,1.11809 -0.19458,1.60423 4.28104,0.34029 -0.53513,1.02086 3.35672,3.88904 -0.92431,2.81954 9.24316,0.68058 2.67565,-2.33341 6.08103,-0.87504 -1.5081,3.45152 3.40538,-0.43753 0.68107,-2.43063 3.11349,-2.09036 5.30265,0.63197 -0.72972,-2.09035 -1.60539,-0.58336 3.84321,-4.22931 3.98915,1.36116 4.32969,-0.82642 2.23782,-6.22245 1.79999,0.0972 0.19459,-1.31254 1.50809,1.02087 7.73507,-0.53474 3.98915,1.02087 0.72973,-1.99313 9.82693,-1.94452 0.82703,1.31255 11.57827,0.63197 -2.48106,-8.94477 2.67565,-0.58335 3.40537,-3.30568 -1.07026,4.56962 0.87568,1.40977 5.30265,-1.55561 1.60539,1.26393 4.91347,-1.02087 v 1.99313 l 3.69727,4.66683 4.81617,-0.63197 -0.0486,2.57648 5.88643,2.52787 -2.48105,2.72232 4.47564,6.80579 -4.37835,1.21533 0.38919,2.62509 -3.79457,4.13209 -4.67022,-0.19445 -1.75134,2.18758 1.02162,3.15983 -1.65404,1.26394 -6.12968,1.11809 -4.96212,-2.09035 -1.99457,2.77093 -2.77295,-0.97225 -5.10806,2.23619 -1.84863,-1.75007 -2.52971,3.45151 2.14052,2.77094 -1.89728,4.5696 z"
     class="SingleSymbol"
     qgis:fid="Austria_PopulationByNUTS2.6"
     qgis:nuts2="AT33"
     qgis:pop20170101="746179"
     qgis:area_km2="12614.21"
     id="path259"
     style="fill:none;stroke-width:0.377953" />
  <path
     d="m 93.486213,213.78818 -4.232395,5.39603 2.772949,7.04886 -2.627004,0.87503 -1.07026,-1.99312 -2.335115,-0.34029 -1.994577,-3.64596 -8.99992,-3.50013 -0.243241,-2.72232 1.508095,-2.47925 -0.924316,-2.96539 -2.627004,0.68058 -9.729643,-5.10435 -4.62158,0.19446 0.194593,-2.04174 1.410798,-0.29168 -0.681075,-2.6251 0.972965,-1.60422 -0.729724,-2.23619 -3.599968,-1.94451 1.459447,-3.25706 -2.043225,-1.79868 1.070261,-1.70144 -2.18917,-2.81955 3.891857,-4.22932 1.264854,-3.11122 3.745912,-1.70145 0.82702,-1.75006 -1.702688,-4.22932 1.021613,-1.65284 -3.113486,-1.8959 -0.875668,0.68059 -2.237818,-5.05574 2.091874,1.60422 3.551319,-2.62509 1.897281,2.38203 4.62158,-0.24307 -1.313502,-2.23618 1.556743,-3.50013 1.945929,-2.2848 1.654039,0.0486 1.508095,1.55561 -0.82702,3.06261 3.648616,1.94451 0.486482,-1.84728 2.529707,1.84728 3.162135,-1.36115 -0.437835,2.33341 2.140521,3.74319 2.821597,-0.3889 1.459447,3.06261 1.410798,-0.24307 0.778371,2.86816 -2.383762,1.65284 1.702688,5.29879 1.362149,-1.8959 2.967541,0.77781 1.070261,-2.18758 1.945929,1.21532 1.118909,-0.68057 0.437833,1.36115 -2.578355,4.37516 0.972965,1.45838 -2.481059,1.45839 -0.0973,2.33341 2.821597,1.99313 -1.702688,1.16671 0.972964,2.18758 -1.216205,2.09035 1.459446,3.93764 -5.98373,6.27105 1.410799,3.11122 -2.237818,2.43065 z"
     class="SingleSymbol"
     qgis:fid="Austria_PopulationByNUTS2.7"
     qgis:nuts2="AT34"
     qgis:pop20170101="388711"
     qgis:area_km2="2580.89"
     id="path261"
     style="fill:none;stroke-width:0.377953" />
  <path
     d="m 492.98534,107.13162 -5.64318,-1.65284 -0.77838,1.79867 -2.57835,-1.26393 -3.30808,1.06949 1.21621,-1.31256 -1.11892,0.19446 0.0973,-1.65284 -2.67565,-1.60422 1.60539,-3.694579 -1.55674,-1.21532 1.21621,-3.889027 3.21078,2.138967 2.09187,-3.062611 3.50267,-1.944514 1.4108,0.777806 1.16756,-3.889028 h 2.09187 l 3.16213,4.132092 1.45945,-1.555611 1.16756,2.284803 2.14052,0.340291 -0.29189,8.458631 2.67565,2.09035 -0.0486,1.40978 -3.84322,-1.99313 -2.43241,0.19445 -2.77294,1.94451 0.34053,1.65284 z"
     class="SingleSymbol"
     qgis:fid="Austria_PopulationByNUTS2.8"
     qgis:nuts2="AT13"
     qgis:pop20170101="1867960"
     qgis:area_km2="414.03"
     id="path263"
     style="fill:none;stroke-width:0.377953" />
  <path
     id="path459"
     style="fill:#708ce4;fill-opacity:1;stroke:none;stroke-width:0.377953"
     class="SingleSymbol"
     d="m 229.84766,145.875 -3.40625,3.30664 -2.67579,0.58398 2.48243,8.94336 -11.58008,-0.63086 -0.82617,-1.3125 -9.82618,1.94336 -0.73046,1.99414 -3.98828,-1.02148 -7.73633,0.53516 -1.50782,-1.02149 -0.19531,1.3125 -1.79883,-0.0957 -2.23828,6.2207 -4.33008,0.82813 -3.98828,-1.36133 -3.84375,4.22851 1.60547,0.58399 0.73047,2.08984 -5.30273,-0.63281 -3.11329,2.0918 -0.68164,2.42968 -3.40625,0.4375 1.50977,-3.45117 -6.08203,0.875 -2.67578,2.33399 L 147,176.4043 l 0.92383,-2.81836 -3.35742,-3.88867 0.53515,-1.02149 -4.28125,-0.33984 0.19531,-1.60547 2.9668,-1.11719 -1.70117,-2.33398 -7.29883,1.99414 -1.11914,-1.99414 -4.08594,-1.07032 -0.14453,-1.35937 -5.93554,-1.2168 -1.80079,3.35547 -7.39453,-2.38281 -1.65429,4.86133 2.23828,2.57617 0.33984,4.23047 -2.57812,1.94336 -0.0977,2.86914 -2.72266,0.33984 -4.3789,6.51367 -6.421878,3.01367 -3.453124,-0.0957 2.820312,1.99219 -1.703125,1.16601 0.974609,2.1875 -1.216796,2.0918 1.458984,3.9375 -5.982422,6.27149 1.410156,3.11132 -2.238281,2.42969 2.189453,3.74414 -4.232422,5.39453 2.773438,7.04883 5.740234,-1.21484 0.728516,-6.07617 4.865236,0.77734 -0.48633,-2.13867 2.67578,-3.88867 2.82227,-0.92383 2.28515,2.42969 -0.24218,1.60546 4.18359,2.13868 -1.55664,7.72851 5.35156,0.68164 -0.48633,1.16602 7.97852,-3.30469 6.08008,5.10352 -2.28711,3.25781 3.64843,-0.63281 1.75196,2.04101 1.75195,-0.58203 2.62695,1.89649 2.67579,-1.11915 6.42187,1.16602 1.21484,-3.74219 2.8711,-1.50781 -0.68164,-2.96484 2.04297,-3.35352 -0.29102,-2.14062 1.26563,-1.79688 3.20898,-0.68164 0.0977,-2.47852 2.72461,0.38868 7.39453,-2.625 2.48047,0.24218 2.96875,2.5293 4.8164,-4.23047 3.79297,2.625 5.79102,-2.625 2.38281,2.08985 3.01562,-0.0957 2.23828,2.33203 2.28711,-2.1875 3.55079,0.0488 5.2539,-3.69336 14.20508,-4.23047 -3.30859,-10.54882 1.89843,-4.57032 -2.14062,-2.76953 2.5293,-3.45312 1.8496,1.75195 5.10743,-2.23633 2.77343,0.9707 1.99414,-2.76953 4.9629,2.08985 6.1289,-1.11914 1.6543,-1.26368 -1.02149,-3.16015 1.75,-2.1875 4.67188,0.19531 3.79297,-4.13281 -0.38867,-2.625 4.3789,-1.21485 -4.47656,-6.80468 2.48242,-2.72266 -5.88672,-2.5293 0.0488,-2.57617 -4.8164,0.63281 -3.69727,-4.66796 v -1.99219 l -4.91406,1.02148 -1.60547,-1.26562 -5.30274,1.55664 -0.875,-1.41016 z m -115.34571,14.73047 1.84961,-2.625 -3.40625,0.53515 z m 118.96485,-5.11328 4.11132,0.96679 0.53711,-0.11132 3.13672,3.96093 4.57032,1.85157 1.03515,-0.13672 1.10938,1.71875 1.41992,0.60937 -0.2207,2.79297 1.62695,2.47461 -2.29688,3.5332 0.0391,0.26563 -0.61133,0.66601 -2.34961,-0.0976 -4.11133,1.87109 -1.75195,2.1875 -0.58008,3.16797 -1.71094,0.3125 -3.58789,-1.51367 -5.47851,1.54101 0.42382,0.14844 -3.66015,0.13672 -2.07227,0.9082 0.5586,0.52735 -7.47071,0.67578 -2.52929,3.45117 0.0762,6.01367 0.36719,0.47461 -0.78516,1.89063 -0.15234,3.41406 1.78906,5.70898 -9.3418,2.78125 -1.45117,0.70118 -3.92774,2.76367 -1.93164,-0.0254 -1.68359,0.66211 0.69922,0.73046 -1.25586,-0.51171 -1.28516,0.50586 0.75391,-0.72266 -1.98242,-0.80859 -1.04297,0.0332 -0.90039,-0.78906 -5.36133,-0.79297 -3.20898,1.45508 -1.46485,-1.01368 -6.14453,0.35547 -1.56641,1.375 0.32422,0.27539 -2.7539,-1.16992 -2.48047,-0.24219 -2.16016,0.26368 -6.23437,2.21289 -1.50586,-0.21485 -5.70313,4.75391 0.0449,-1.13477 -2.44726,1.61524 -1.26367,1.79883 -0.86524,3.55273 0.0527,0.37891 -1.11914,1.83593 -0.44727,2.75391 0.20313,-0.10742 -0.22852,0.27148 -0.13086,0.80274 -0.11719,-0.50977 -1.95312,2.31836 0.13281,-0.41211 -2.12305,-0.38672 -2.82031,0.30664 -0.0918,0.0391 -0.35742,-0.25782 -4.15429,-0.63476 -0.0215,-0.16406 0.59961,-0.20118 -0.65625,-0.23437 -0.34375,-2.625 -6.08203,-5.10352 -5.12695,-0.78906 -4.83008,2 -0.11719,-0.20313 -0.0195,-0.002 0.49609,-2.46094 -2.62695,-5.43945 -0.97656,-0.49805 -0.29688,1.95704 -1.30078,-4.17579 -2.28711,-2.42968 -5.19726,-1.32618 -2.82032,0.92383 -2.56445,1.91797 -2.187499,3.17969 -1.71875,1.29687 0.277343,-4.07031 -0.324218,-0.55273 -0.265625,0.28906 0.875,-5.45117 -0.01563,-0.0371 3.652344,-3.82813 1.07227,-5.18945 -0.64063,-1.72461 0.0293,-0.0508 0.1289,-2.35547 -0.89453,0.61133 0.0117,-1.53125 0.95703,-0.44922 0.0449,-0.82226 0.29493,0.6621 5.04492,-2.36718 2.02539,-1.73828 3.10742,-4.62305 0.46484,-0.0586 4.37696,-4.79102 0.0156,-0.48438 0.67383,-0.50586 1.97266,-4.39453 -0.33985,-4.21875 0.29297,0.0937 5.93945,-2.39453 0.0391,-0.0723 -1.29102,-0.26563 -0.24414,-2.27148 3.70508,4.30469 2.03125,0.53124 0.0801,0.14258 5.67773,2.375 1.2168,-0.33203 2.90625,3.55664 0.71484,0.0566 1.1543,1.33594 -0.0449,0.13477 4.38476,6.54296 9.24219,0.68165 3.6543,-1.21875 1.5625,-1.36329 0.84961,-0.12109 2.1875,2.91797 3.40429,-0.4375 4.17774,-3.60938 0.18359,-0.65625 0.0449,-0.0293 3.46289,0.41211 4.63086,-5.76368 2.39453,0.16797 4.33008,-0.82617 3.76758,-3.21875 0.97852,-2.7207 -1.91602,-0.10352 0.84766,-0.69336 1.4707,0.39649 6.93164,-0.47852 3.20703,0.82032 5.93555,-3.125 -0.23633,0.64648 3.69922,-0.73047 -1.00391,-1.59375 3.95703,2.32617 11.57813,0.63281 5.08984,-6.33007 -0.22265,-0.80469 0.21875,0.084 2.82812,-0.82812 z m -61.7461,18.60156 0.23047,0.93359 -0.625,-0.22656 -0.0527,-0.15039 z m 67.19141,8.31641 -0.0547,0.29687 -0.0664,-0.20508 z m 5.72461,18.98242 -5.20508,1.26367 -1.16797,-0.97266 -2.33594,1.02149 -1.16796,3.01367 -6.81055,3.69336 -1.60547,0.97266 -0.77734,2.96679 -3.69727,0.14453 -1.75195,1.75 0.63281,4.13282 2.33398,2.38086 -1.60351,2.18945 2.9668,0.77734 1.60546,3.0625 1.75196,-1.55664 3.16211,2.48047 0.92382,2.23633 -1.55664,5.49219 4.76758,0.82617 1.36133,5.1543 4.08594,3.0625 4.71875,0.9707 3.21094,2.57812 8.125,-0.4375 -0.0488,-4.27929 2.09179,-0.0488 -0.0488,-3.5957 4.62304,-1.41016 3.25782,0.72851 3.74609,-2.57617 2.0918,1.21485 2.23828,-2.42969 -3.61133,-3.04102 -0.0449,0.002 -0.002,-0.041 -4.36914,-3.67773 -0.24218,-4.86133 -5.93555,-4.57031 -1.26563,-3.35352 3.11329,-4.13281 -3.74415,-0.48438 -3.65039,-5.20312 -4.47461,-3.11133 -2.7246,0.29297 z m -1.35742,5.47461 1.01172,0.89453 3.8457,1.22656 0.86914,-0.0937 2.21484,1.54102 3.13868,4.47461 0.50781,0.30664 -0.46094,3.20312 1.26563,3.35547 1.62695,2.19727 4.10742,3.16211 0.12695,2.55664 1.77539,3.57617 1.44141,1.21289 -0.43945,-0.0977 -2.54883,0.0957 -4.62305,1.41015 -2.5332,3.47266 1.83398,-0.043 -4.88476,5.05469 -0.006,-0.51367 -1.42969,0.0781 -1.7207,-1.38086 -2.1211,-0.99805 -3.62304,-0.74609 -1.80078,-1.34961 -0.91797,-3.47266 -3.39453,-3.11132 0.16015,-0.56641 -0.18945,-3.27344 -0.92578,-2.23633 -1.53516,-2.02539 -3.16211,-2.47851 -2.0664,0.0625 -1.98633,-1.58008 -0.17969,-2.52148 -0.3457,-0.35157 4.09179,-3.28906 0.25977,-0.98828 6.48242,-3.51758 2.2793,-2.58789 0.10156,-0.26172 1.08594,0.25195 z"
     sodipodi:nodetypes="ccccccccccccccccccccccccccccccccccccccccccccccccccccccccccccccccccccccccccccccccccccccccccccccccccccccccccccccccccccccccccccccccccccccccccccccccccccccccccccccccccccccccccccccccccccccccccccccccccccccccccccccccccccccccccccccccccccccccccccccccccccccccccccccccccccccccccccccccccccccccccccccccccccccccccccccccccccccccccccccccccccccccccccccccccccccccccccccccccccccccccccccccccccccccccccccccccccccccccccccc" />
  <text
     xml:space="preserve"
     style="font-style:normal;font-variant:normal;font-weight:normal;font-stretch:normal;font-size:13.3333px;line-height:1.25;font-family:'HelveticaNeue LT 65 Medium';-inkscape-font-specification:'HelveticaNeue LT 65 Medium, Normal';font-variant-ligatures:normal;font-variant-caps:normal;font-variant-numeric:normal;font-variant-east-asian:normal;display:none;fill:#264eca;fill-opacity:1;stroke:none"
     x="143.68506"
     y="142.55792"
     id="text1077"><tspan
       sodipodi:role="line"
       id="tspan1075"
       x="143.68506"
       y="142.55792">Tyrol</tspan></text>
  <text
     xml:space="preserve"
     style="font-style:normal;font-variant:normal;font-weight:normal;font-stretch:normal;font-size:13.3333px;line-height:1.25;font-family:'HelveticaNeue LT 65 Medium';-inkscape-font-specification:'HelveticaNeue LT 65 Medium, Normal';font-variant-ligatures:normal;font-variant-caps:normal;font-variant-numeric:normal;font-variant-east-asian:normal;display:none;fill:#264eca;fill-opacity:1;stroke:none"
     x="171.2162"
     y="258.55316"
     id="text1081"><tspan
       sodipodi:role="line"
       id="tspan1079"
       x="171.2162"
       y="258.55316">also Tyrol</tspan></text>
  <text
     xml:space="preserve"
     style="font-style:normal;font-variant:normal;font-weight:normal;font-stretch:normal;font-size:13.3333px;line-height:1.25;font-family:'HelveticaNeue LT 65 Medium';-inkscape-font-specification:'HelveticaNeue LT 65 Medium, Normal';font-variant-ligatures:normal;font-variant-caps:normal;font-variant-numeric:normal;font-variant-east-asian:normal;display:none;fill:#264eca;fill-opacity:1;stroke:none"
     x="144.78522"
     y="-154.68729"
     id="text1957"
     transform="rotate(90)"><tspan
       sodipodi:role="line"
       id="tspan1955"
       x="144.78522"
       y="-154.68729">→</tspan></text>
  <text
     xml:space="preserve"
     style="font-style:normal;font-variant:normal;font-weight:normal;font-stretch:normal;font-size:13.3333px;line-height:1.25;font-family:'HelveticaNeue LT 65 Medium';-inkscape-font-specification:'HelveticaNeue LT 65 Medium, Normal';font-variant-ligatures:normal;font-variant-caps:normal;font-variant-numeric:normal;font-variant-east-asian:normal;display:none;fill:#264eca;fill-opacity:1;stroke:none"
     x="3.276983"
     y="331.39194"
     id="text1961"
     transform="rotate(-40.662172)"><tspan
       sodipodi:role="line"
       id="tspan1959"
       x="3.276983"
       y="331.39194">→</tspan></text>
  <g
     aria-label="Tyrol"
     id="text1965"
     style="font-size:13.3333px;line-height:1.25;font-family:'HelveticaNeue LT 65 Medium';-inkscape-font-specification:'HelveticaNeue LT 65 Medium, Normal';fill:#264eca">
    <path
       d="m 143.79172,133.03795 h 7.70665 v 1.43999 h -3.02666 v 8.07998 h -1.66666 v -8.07998 h -3.01333 z"
       id="path2004" />
    <path
       d="m 150.15171,135.66461 h 1.66667 l 1.79999,5.14665 h 0.0267 l 1.74666,-5.14665 h 1.58666 l -2.67999,7.26664 q -0.18667,0.46667 -0.37333,0.89334 -0.17334,0.42666 -0.44,0.74666 -0.25333,0.33333 -0.64,0.52 -0.38667,0.2 -0.98666,0.2 -0.53334,0 -1.05333,-0.08 v -1.28 q 0.18666,0.0267 0.35999,0.0533 0.17334,0.04 0.36,0.04 0.26667,0 0.44,-0.0667 0.17334,-0.0667 0.28,-0.2 0.12,-0.12 0.2,-0.29333 0.08,-0.17334 0.14667,-0.4 l 0.17333,-0.53333 z"
       id="path2006" />
    <path
       d="m 157.83168,135.66461 h 1.42667 v 1.33333 h 0.0267 q 0.0667,-0.28 0.25334,-0.54667 0.19999,-0.26666 0.46666,-0.48 0.28,-0.22666 0.61333,-0.36 0.33333,-0.13333 0.68,-0.13333 0.26667,0 0.36,0.0133 0.10667,0.0133 0.21333,0.0267 v 1.46666 q -0.16,-0.0267 -0.33333,-0.04 -0.16,-0.0267 -0.32,-0.0267 -0.38666,0 -0.73333,0.16 -0.33333,0.14666 -0.58667,0.45333 -0.25333,0.29333 -0.39999,0.73333 -0.14667,0.44 -0.14667,1.01333 v 3.27999 h -1.52 z"
       id="path2008" />
    <path
       d="m 165.44499,142.74459 q -0.82666,0 -1.48,-0.26667 -0.63999,-0.28 -1.09333,-0.76 -0.44,-0.47999 -0.67999,-1.14666 -0.22667,-0.66666 -0.22667,-1.46666 0,-0.78667 0.22667,-1.45333 0.23999,-0.66667 0.67999,-1.14667 0.45334,-0.47999 1.09333,-0.74666 0.65334,-0.28 1.48,-0.28 0.82667,0 1.46666,0.28 0.65334,0.26667 1.09333,0.74666 0.45334,0.48 0.68,1.14667 0.24,0.66666 0.24,1.45333 0,0.8 -0.24,1.46666 -0.22666,0.66667 -0.68,1.14666 -0.43999,0.48 -1.09333,0.76 -0.63999,0.26667 -1.46666,0.26667 z m 0,-1.2 q 0.50667,0 0.88,-0.21333 0.37333,-0.21333 0.61333,-0.56 0.24,-0.34667 0.34667,-0.77333 0.12,-0.44 0.12,-0.89333 0,-0.44 -0.12,-0.88 -0.10667,-0.44 -0.34667,-0.77333 -0.24,-0.34667 -0.61333,-0.56 -0.37333,-0.21333 -0.88,-0.21333 -0.50666,0 -0.88,0.21333 -0.37333,0.21333 -0.61333,0.56 -0.24,0.33333 -0.36,0.77333 -0.10666,0.44 -0.10666,0.88 0,0.45333 0.10666,0.89333 0.12,0.42666 0.36,0.77333 0.24,0.34667 0.61333,0.56 0.37334,0.21333 0.88,0.21333 z"
       id="path2010" />
    <path
       d="m 170.23165,133.03795 h 1.52 v 9.51997 h -1.52 z"
       id="path2012" />
  </g>
  <g
     aria-label="also Tyrol"
     id="text1969"
     style="font-size:13.3333px;line-height:1.25;font-family:'HelveticaNeue LT 65 Medium';-inkscape-font-specification:'HelveticaNeue LT 65 Medium, Normal';fill:#264eca">
    <path
       d="m 177.78952,257.01983 q 0,0.28 0.0667,0.4 0.08,0.12 0.29333,0.12 0.0667,0 0.16,0 0.0933,0 0.21333,-0.0267 v 1.05333 q -0.08,0.0267 -0.21333,0.0533 -0.12,0.04 -0.25334,0.0667 -0.13333,0.0267 -0.26666,0.04 -0.13333,0.0133 -0.22667,0.0133 -0.46666,0 -0.77333,-0.18667 -0.30666,-0.18666 -0.4,-0.65333 -0.45333,0.44 -1.12,0.64 -0.65333,0.2 -1.26666,0.2 -0.46666,0 -0.89333,-0.13334 -0.42667,-0.11999 -0.76,-0.35999 -0.32,-0.25334 -0.52,-0.62667 -0.18666,-0.38667 -0.18666,-0.89333 0,-0.64 0.22666,-1.04 0.24,-0.4 0.61334,-0.62666 0.38666,-0.22667 0.85333,-0.32 0.48,-0.10667 0.95999,-0.16 0.41334,-0.08 0.78667,-0.10667 0.37333,-0.04 0.65333,-0.12 0.29333,-0.08 0.45333,-0.24 0.17334,-0.17333 0.17334,-0.50666 0,-0.29334 -0.14667,-0.48 -0.13333,-0.18667 -0.34667,-0.28 -0.2,-0.10667 -0.45333,-0.13333 -0.25333,-0.04 -0.48,-0.04 -0.64,0 -1.05333,0.26666 -0.41333,0.26667 -0.46666,0.82667 h -1.52 q 0.04,-0.66667 0.32,-1.10667 0.28,-0.44 0.70666,-0.70666 0.44,-0.26667 0.98667,-0.37333 0.54666,-0.10667 1.12,-0.10667 0.50666,0 0.99999,0.10667 0.49334,0.10666 0.88,0.34666 0.4,0.24 0.64,0.62667 0.24,0.37333 0.24,0.91999 z m -1.52,-1.91999 q -0.34666,0.22666 -0.85333,0.28 -0.50666,0.04 -1.01333,0.13333 -0.24,0.04 -0.46667,0.12 -0.22666,0.0667 -0.39999,0.2 -0.17334,0.12 -0.28,0.33333 -0.0933,0.2 -0.0933,0.49333 0,0.25334 0.14667,0.42667 0.14667,0.17333 0.34667,0.28 0.21333,0.0933 0.45333,0.13333 0.25333,0.04 0.45333,0.04 0.25333,0 0.54667,-0.0667 0.29333,-0.0667 0.54666,-0.22666 0.26667,-0.16 0.44,-0.4 0.17333,-0.25333 0.17333,-0.61333 z"
       id="path1985" />
    <path
       d="m 179.46951,249.03319 h 1.52 v 9.51997 h -1.52 z"
       id="path1987" />
    <path
       d="m 183.78949,256.33983 q 0.0667,0.66667 0.50666,0.93333 0.44,0.26667 1.05334,0.26667 0.21333,0 0.47999,-0.0267 0.28,-0.04 0.52,-0.13333 0.24,-0.0933 0.38667,-0.26666 0.14667,-0.17334 0.14667,-0.42667 0,-0.0267 -0.0133,-0.18667 0,-0.16 -0.2,-0.34666 -0.2,-0.18667 -0.52,-0.29333 -0.30666,-0.12 -0.70666,-0.2 -0.4,-0.08 -0.81333,-0.17334 -0.42667,-0.0933 -0.82667,-0.22666 -0.38666,-0.13334 -0.70666,-0.36 -0.30667,-0.22667 -0.49333,-0.57333 -0.18667,-0.36 -0.18667,-0.88 0,-0.56 0.26667,-0.93333 0.27999,-0.38667 0.69333,-0.61333 0.42666,-0.24 0.93333,-0.33334 0.52,-0.0933 0.98666,-0.0933 0.53333,0 1.01333,0.12 0.49334,0.10667 0.88,0.36 0.4,0.25333 0.65333,0.66666 0.26667,0.4 0.33334,0.97333 h -1.58667 q -0.10666,-0.54666 -0.50666,-0.73333 -0.38667,-0.18666 -0.89333,-0.18666 -0.16,0 -0.38667,0.0267 -0.21333,0.0267 -0.41333,0.10667 -0.18667,0.0667 -0.32,0.21333 -0.13333,0.13334 -0.13333,0.36 0,0.28 0.18666,0.45333 0.2,0.17334 0.50667,0.29334 0.32,0.10666 0.72,0.18666 0.39999,0.08 0.82666,0.17334 0.41333,0.0933 0.81333,0.22666 0.4,0.13333 0.70667,0.36 0.32,0.22667 0.50666,0.57333 0.2,0.34667 0.2,0.85333 0,0.61334 -0.28,1.04 -0.28,0.42667 -0.73333,0.69333 -0.44,0.26667 -0.98666,0.38667 -0.54667,0.12 -1.08,0.12 -0.65333,0 -1.21333,-0.14667 -0.54667,-0.14666 -0.96,-0.44 -0.4,-0.30666 -0.64,-0.74666 -0.22666,-0.45333 -0.24,-1.06667 z"
       id="path1989" />
    <path
       d="m 192.72279,258.73983 q -0.82667,0 -1.48,-0.26667 -0.64,-0.28 -1.09333,-0.76 -0.44,-0.48 -0.68,-1.14666 -0.22666,-0.66667 -0.22666,-1.46666 0,-0.78667 0.22666,-1.45333 0.24,-0.66667 0.68,-1.14667 0.45333,-0.48 1.09333,-0.74666 0.65333,-0.28 1.48,-0.28 0.82666,0 1.46666,0.28 0.65333,0.26666 1.09333,0.74666 0.45333,0.48 0.68,1.14667 0.24,0.66666 0.24,1.45333 0,0.79999 -0.24,1.46666 -0.22667,0.66666 -0.68,1.14666 -0.44,0.48 -1.09333,0.76 -0.64,0.26667 -1.46666,0.26667 z m 0,-1.2 q 0.50666,0 0.88,-0.21333 0.37333,-0.21333 0.61333,-0.56 0.24,-0.34667 0.34666,-0.77333 0.12,-0.44 0.12,-0.89333 0,-0.44 -0.12,-0.88 -0.10666,-0.44 -0.34666,-0.77333 -0.24,-0.34667 -0.61333,-0.56 -0.37334,-0.21333 -0.88,-0.21333 -0.50667,0 -0.88,0.21333 -0.37333,0.21333 -0.61333,0.56 -0.24,0.33333 -0.36,0.77333 -0.10667,0.44 -0.10667,0.88 0,0.45333 0.10667,0.89333 0.12,0.42666 0.36,0.77333 0.24,0.34667 0.61333,0.56 0.37333,0.21333 0.88,0.21333 z"
       id="path1991" />
    <path
       d="m 200.48277,249.03319 h 7.70665 v 1.43999 h -3.02666 v 8.07998 h -1.66666 v -8.07998 h -3.01333 z"
       id="path1993" />
    <path
       d="m 206.84276,251.65985 h 1.66666 l 1.8,5.14665 h 0.0267 l 1.74666,-5.14665 h 1.58666 l -2.67999,7.26664 q -0.18667,0.46667 -0.37334,0.89334 -0.17333,0.42666 -0.43999,0.74666 -0.25334,0.33333 -0.64,0.52 -0.38667,0.2 -0.98667,0.2 -0.53333,0 -1.05333,-0.08 v -1.28 q 0.18667,0.0267 0.36,0.0533 0.17333,0.04 0.36,0.04 0.26667,0 0.44,-0.0667 0.17333,-0.0667 0.28,-0.2 0.12,-0.12 0.2,-0.29333 0.08,-0.17334 0.14666,-0.4 l 0.17334,-0.53333 z"
       id="path1995" />
    <path
       d="m 214.52273,251.65985 h 1.42666 v 1.33333 h 0.0267 q 0.0667,-0.28 0.25333,-0.54667 0.2,-0.26667 0.46667,-0.48 0.28,-0.22666 0.61333,-0.36 0.33333,-0.13333 0.68,-0.13333 0.26666,0 0.36,0.0133 0.10666,0.0133 0.21333,0.0267 v 1.46666 q -0.16,-0.0267 -0.33333,-0.04 -0.16,-0.0267 -0.32,-0.0267 -0.38667,0 -0.73333,0.16 -0.33334,0.14666 -0.58667,0.45333 -0.25333,0.29333 -0.4,0.73333 -0.14666,0.44 -0.14666,1.01333 v 3.27999 h -1.52 z"
       id="path1997" />
    <path
       d="m 222.13604,258.73983 q -0.82666,0 -1.47999,-0.26667 -0.64,-0.28 -1.09333,-0.76 -0.44,-0.48 -0.68,-1.14666 -0.22667,-0.66667 -0.22667,-1.46666 0,-0.78667 0.22667,-1.45333 0.24,-0.66667 0.68,-1.14667 0.45333,-0.48 1.09333,-0.74666 0.65333,-0.28 1.47999,-0.28 0.82667,0 1.46667,0.28 0.65333,0.26666 1.09333,0.74666 0.45333,0.48 0.67999,1.14667 0.24,0.66666 0.24,1.45333 0,0.79999 -0.24,1.46666 -0.22666,0.66666 -0.67999,1.14666 -0.44,0.48 -1.09333,0.76 -0.64,0.26667 -1.46667,0.26667 z m 0,-1.2 q 0.50667,0 0.88,-0.21333 0.37333,-0.21333 0.61333,-0.56 0.24,-0.34667 0.34667,-0.77333 0.12,-0.44 0.12,-0.89333 0,-0.44 -0.12,-0.88 -0.10667,-0.44 -0.34667,-0.77333 -0.24,-0.34667 -0.61333,-0.56 -0.37333,-0.21333 -0.88,-0.21333 -0.50666,0 -0.88,0.21333 -0.37333,0.21333 -0.61333,0.56 -0.24,0.33333 -0.36,0.77333 -0.10666,0.44 -0.10666,0.88 0,0.45333 0.10666,0.89333 0.12,0.42666 0.36,0.77333 0.24,0.34667 0.61333,0.56 0.37334,0.21333 0.88,0.21333 z"
       id="path1999" />
    <path
       d="m 226.9227,249.03319 h 1.52 v 9.51997 h -1.52 z"
       id="path2001" />
  </g>
  <g
     aria-label="→"
     transform="rotate(90)"
     id="text1973"
     style="font-size:13.3333px;line-height:1.25;font-family:'HelveticaNeue LT 65 Medium';-inkscape-font-specification:'HelveticaNeue LT 65 Medium, Normal';fill:#264eca">
    <path
       d="m 154.90889,-160.3904 q 0.86588,0.94401 1.49739,1.4388 0.63151,0.48828 1.1914,0.72917 v 0.29296 q -0.64452,0.3125 -1.24999,0.80078 -0.60547,0.48177 -1.44531,1.41927 h -0.5013 q 0.61198,-1.30859 1.28255,-2.01171 h -10.38409 v -0.65755 h 10.38409 q -0.49479,-0.63151 -0.69011,-0.9375 -0.19531,-0.30599 -0.57942,-1.07422 z"
       id="path1982" />
  </g>
  <g
     aria-label="→"
     transform="rotate(-40.662172)"
     id="text1977"
     style="font-size:13.3333px;line-height:1.25;font-family:'HelveticaNeue LT 65 Medium';-inkscape-font-specification:'HelveticaNeue LT 65 Medium, Normal';fill:#264eca">
    <path
       d="m 13.400655,325.68883 q 0.865884,0.944 1.497392,1.4388 0.631509,0.48828 1.191404,0.72916 v 0.29297 q -0.64453,0.3125 -1.249997,0.80078 -0.605467,0.48177 -1.445309,1.41926 h -0.501301 q 0.611978,-1.30859 1.282549,-2.01171 H 3.7913046 v -0.65755 H 14.175393 q -0.49479,-0.63151 -0.690102,-0.9375 -0.195312,-0.30599 -0.579426,-1.07421 z"
       id="path1979" />
  </g>
</svg>
