<svg viewBox="0 0 512 512" xmlns="http://www.w3.org/2000/svg" xml:space="preserve" style="fill-rule:evenodd;clip-rule:evenodd;stroke-linejoin:round;stroke-miterlimit:2"><path d="M63.516 17.721a7.393 7.393 0 0 0-7.389-7.389H21.645a7.393 7.393 0 0 0-7.389 7.389v34.483a7.393 7.393 0 0 0 7.389 7.389h34.482a7.393 7.393 0 0 0 7.389-7.389V17.721Z" style="fill:#0060c5" transform="translate(-148.172 -107.391) scale(10.3937)"/><path d="M142.089 154.847c14.124-48.448 58.874-83.892 111.831-83.892 51.949 0 95.999 34.106 110.995 81.152 9.182-5.244 19.805-8.241 31.121-8.241 34.805 0 63.063 28.36 63.063 63.293 0 9.735-2.195 18.96-6.116 27.206C488.33 255.616 512 294.346 512 338.561c0 61.126-45.239 111.769-104.03 120.244v1.218h-14.766a121.301 121.301 0 0 1-5.392 0H91.54v-.928C39.897 452.219 0 407.95 0 354.436c0-30.542 12.996-58.073 33.755-77.359-6.467-12.125-10.129-25.936-10.129-40.587 0-48.051 39.383-87.063 87.891-87.063 10.75 0 21.051 1.916 30.572 5.42Z" style="fill-opacity:.3" transform="matrix(.78536 0 0 .78536 54.948 56.91)"/><path style="fill:#fff" d="M15.211 29.739h34.18V63.91h-34.18z" transform="matrix(6.96354 0 0 6.50539 23.746 -16.397)"/><circle cx="16.995" cy="48.771" r="9.899" style="fill:#fff" transform="matrix(8.37718 0 0 8.37715 -4.497 -92.118)"/><circle cx="22.347" cy="35.773" r="11.162" style="fill:#fff" transform="matrix(6.18408 0 0 6.12582 4.337 4.647)"/><circle cx="40.436" cy="39.267" r="10.473" style="fill:#fff" transform="matrix(4.72927 0 0 4.7465 174.744 14.373)"/><circle cx="40.436" cy="39.267" r="10.473" style="fill:#fff" transform="matrix(8.73477 0 0 8.7411 -98.836 -157.91)"/><ellipse cx="50.22" cy="49.792" rx="8.401" ry="8.602" style="fill:#fff" transform="matrix(11.358 0 0 11.0927 -208.763 -248.372)"/><path d="M242.633 271.373H65.4v26.098h177.47v94.407h26.497v-93.571l-26.734-26.934Z" style="fill:#006778" transform="translate(52.85 47.585) scale(.79404)"/><path d="M242.633 271.373H65.4v26.098h177.47v94.407h26.497v-93.571l-26.734-26.934Z" style="fill:#82014f" transform="matrix(-.79404 0 0 -.79404 459.15 499.817)"/></svg>
